ISO-10303-21;
HEADER;
FILE_DESCRIPTION (( 'STEP AP203' ),
    '1' );
FILE_NAME ('BaseAlum_8mm.STEP',
    '2026-08-19T13:20:59',
    ( '' ),
    ( '' ),
    'SwSTEP 2.0',
    'SolidWorks 2026',
    '' );
FILE_SCHEMA (( 'CONFIG_CONTROL_DESIGN' ));
ENDSEC;

DATA;
#1 = LINE ( 'NONE', #641, #31 ) ;
#2 = DIRECTION ( 'NONE',  ( -1.000000000000000000, 0.000000000000000000, 0.000000000000000000 ) ) ;
#3 = ORIENTED_EDGE ( 'NONE', *, *, #361, .F. ) ;
#4 = FACE_BOUND ( 'NONE', #416, .T. ) ;
#5 = DIRECTION ( 'NONE',  ( 0.000000000000000000, 0.000000000000000000, 1.000000000000000000 ) ) ;
#6 = ADVANCED_FACE ( 'NONE', ( #290 ), #695, .T. ) ;
#7 = DIRECTION ( 'NONE',  ( 0.000000000000000000, 1.000000000000000000, 0.000000000000000000 ) ) ;
#8 = VERTEX_POINT ( 'NONE', #925 ) ;
#9 = DIRECTION ( 'NONE',  ( 1.000000000000000000, 0.000000000000000000, 0.000000000000000000 ) ) ;
#10 = DIRECTION ( 'NONE',  ( 1.000000000000000000, 0.000000000000000000, 0.000000000000000000 ) ) ;
#11 = CARTESIAN_POINT ( 'NONE',  ( 831.8356030506818115, 746.8143000505812097, 10.00000000000000000 ) ) ;
#12 = ORIENTED_EDGE ( 'NONE', *, *, #71, .T. ) ;
#13 = AXIS2_PLACEMENT_3D ( 'NONE', #580, #796, #2 ) ;
#14 = AXIS2_PLACEMENT_3D ( 'NONE', #840, #58, #356 ) ;
#15 = DIRECTION ( 'NONE',  ( -1.000000000000000000, 0.000000000000000000, 0.000000000000000000 ) ) ;
#16 = DIRECTION ( 'NONE',  ( 0.000000000000000000, 0.000000000000000000, -1.000000000000000000 ) ) ;
#17 = PLANE ( 'NONE',  #815 ) ;
#18 = VERTEX_POINT ( 'NONE', #504 ) ;
#19 = CARTESIAN_POINT ( 'NONE',  ( 836.8356030506816978, 715.1143000505812779, 8.000000000000000000 ) ) ;
#20 = EDGE_CURVE ( 'NONE', #862, #822, #842, .T. ) ;
#21 = CARTESIAN_POINT ( 'NONE',  ( 836.8356030506816978, 715.1143000505812779, 0.000000000000000000 ) ) ;
#22 = ORIENTED_EDGE ( 'NONE', *, *, #24, .T. ) ;
#23 = FACE_OUTER_BOUND ( 'NONE', #212, .T. ) ;
#24 = EDGE_CURVE ( 'NONE', #653, #558, #204, .T. ) ;
#25 = APPROVAL_STATUS ( 'not_yet_approved' ) ;
#26 = DIRECTION ( 'NONE',  ( -0.000000000000000000, -0.000000000000000000, -1.000000000000000000 ) ) ;
#27 = ORIENTED_EDGE ( 'NONE', *, *, #332, .F. ) ;
#28 = DIRECTION ( 'NONE',  ( -0.000000000000000000, -1.000000000000000000, -0.000000000000000000 ) ) ;
#29 = AXIS2_PLACEMENT_3D ( 'NONE', #683, #821, #675 ) ;
#30 = AXIS2_PLACEMENT_3D ( 'NONE', #72, #510, #651 ) ;
#31 = VECTOR ( 'NONE', #10, 1000.000000000000000 ) ;
#32 = EDGE_CURVE ( 'NONE', #336, #410, #328, .T. ) ;
#33 = CARTESIAN_POINT ( 'NONE',  ( 827.3356030506818115, 746.8143000505812097, 0.000000000000000000 ) ) ;
#34 = ORIENTED_EDGE ( 'NONE', *, *, #120, .F. ) ;
#35 = DIRECTION ( 'NONE',  ( -0.000000000000000000, 0.000000000000000000, -1.000000000000000000 ) ) ;
#36 = CARTESIAN_POINT ( 'NONE',  ( 608.8356030506816978, 715.1143000505812779, 8.000000000000000000 ) ) ;
#37 = ADVANCED_FACE ( 'NONE', ( #55 ), #147, .F. ) ;
#38 = VERTEX_POINT ( 'NONE', #851 ) ;
#39 = LINE ( 'NONE', #603, #75 ) ;
#40 = CARTESIAN_POINT ( 'NONE',  ( 616.0356030506817433, 787.4143000505813461, 10.00000000000000000 ) ) ;
#41 = ORIENTED_EDGE ( 'NONE', *, *, #240, .F. ) ;
#42 = CARTESIAN_POINT ( 'NONE',  ( 614.8356030506816978, 715.1143000505812779, 8.000000000000000000 ) ) ;
#43 = MANIFOLD_SOLID_BREP ( 'Cortar-Extruir1', #734 ) ;
#44 = EDGE_CURVE ( 'NONE', #810, #269, #642, .T. ) ;
#45 = VECTOR ( 'NONE', #313, 1000.000000000000000 ) ;
#46 = CIRCLE ( 'NONE', #177, 2.199999999999979750 ) ;
#47 = LINE ( 'NONE', #612, #325 ) ;
#48 = VECTOR ( 'NONE', #85, 1000.000000000000000 ) ;
#49 = ORIENTED_EDGE ( 'NONE', *, *, #929, .F. ) ;
#50 = LINE ( 'NONE', #396, #297 ) ;
#51 = EDGE_CURVE ( 'NONE', #700, #18, #152, .T. ) ;
#52 = DIRECTION ( 'NONE',  ( -0.000000000000000000, -0.000000000000000000, -1.000000000000000000 ) ) ;
#53 = VERTEX_POINT ( 'NONE', #100 ) ;
#54 = DIRECTION ( 'NONE',  ( 0.000000000000000000, -0.000000000000000000, 1.000000000000000000 ) ) ;
#55 = FACE_OUTER_BOUND ( 'NONE', #428, .T. ) ;
#56 = VERTEX_POINT ( 'NONE', #737 ) ;
#57 = AXIS2_PLACEMENT_3D ( 'NONE', #225, #243, #726 ) ;
#58 = DIRECTION ( 'NONE',  ( 0.000000000000000000, 1.000000000000000000, 0.000000000000000000 ) ) ;
#59 = CIRCLE ( 'NONE', #751, 6.000000000000005329 ) ;
#60 = CARTESIAN_POINT ( 'NONE',  ( 831.8356030506818115, 819.1143000505810505, 8.000000000000000000 ) ) ;
#61 = ORIENTED_EDGE ( 'NONE', *, *, #673, .F. ) ;
#62 = DIRECTION ( 'NONE',  ( -0.000000000000000000, 0.000000000000000000, -1.000000000000000000 ) ) ;
#63 = CALENDAR_DATE ( 2026, 19, 8 ) ;
#64 = EDGE_LOOP ( 'NONE', ( #95, #494, #722, #846 ) ) ;
#65 = ORIENTED_EDGE ( 'NONE', *, *, #308, .F. ) ;
#66 = LINE ( 'NONE', #923, #897 ) ;
#67 = CARTESIAN_POINT ( 'NONE',  ( 830.8356030506816978, 819.1143000505810505, 0.000000000000000000 ) ) ;
#68 = DIRECTION ( 'NONE',  ( -1.000000000000000000, 0.000000000000000000, 0.000000000000000000 ) ) ;
#69 = ORIENTED_EDGE ( 'NONE', *, *, #873, .T. ) ;
#70 = FACE_OUTER_BOUND ( 'NONE', #768, .T. ) ;
#71 = EDGE_CURVE ( 'NONE', #53, #698, #876, .T. ) ;
#72 = CARTESIAN_POINT ( 'NONE',  ( 614.8356030506816978, 819.1143000505810505, 8.000000000000000000 ) ) ;
#73 = AXIS2_PLACEMENT_3D ( 'NONE', #40, #345, #110 ) ;
#74 = DIRECTION ( 'NONE',  ( 0.000000000000000000, 1.000000000000000000, 0.000000000000000000 ) ) ;
#75 = VECTOR ( 'NONE', #820, 1000.000000000000000 ) ;
#76 = ORIENTED_EDGE ( 'NONE', *, *, #618, .T. ) ;
#77 = CARTESIAN_POINT ( 'NONE',  ( 608.8356030506816978, 819.1143000505810505, 0.000000000000000000 ) ) ;
#78 = EDGE_CURVE ( 'NONE', #407, #410, #453, .T. ) ;
#79 = CARTESIAN_POINT ( 'NONE',  ( 829.5356030506817433, 787.4143000505813461, 10.00000000000000000 ) ) ;
#80 = COORDINATED_UNIVERSAL_TIME_OFFSET ( 3, 0, .BEHIND. ) ;
#81 = DIRECTION ( 'NONE',  ( -0.000000000000000000, -0.000000000000000000, -1.000000000000000000 ) ) ;
#82 = ORIENTED_EDGE ( 'NONE', *, *, #833, .T. ) ;
#83 = DIRECTION ( 'NONE',  ( -0.000000000000000000, 0.000000000000000000, -1.000000000000000000 ) ) ;
#84 = DIRECTION ( 'NONE',  ( -1.000000000000000000, 0.000000000000000000, 0.000000000000000000 ) ) ;
#85 = DIRECTION ( 'NONE',  ( 0.000000000000000000, 1.000000000000000000, 0.000000000000000000 ) ) ;
#86 = EDGE_CURVE ( 'NONE', #819, #360, #231, .T. ) ;
#87 = DIRECTION ( 'NONE',  ( -0.000000000000000000, -0.000000000000000000, -1.000000000000000000 ) ) ;
#88 = ORIENTED_EDGE ( 'NONE', *, *, #773, .F. ) ;
#89 = DIRECTION ( 'NONE',  ( -0.000000000000000000, -0.000000000000000000, -1.000000000000000000 ) ) ;
#90 = CARTESIAN_POINT ( 'NONE',  ( 608.8356030506816978, 715.1143000505812779, 8.000000000000000000 ) ) ;
#91 = ADVANCED_BREP_SHAPE_REPRESENTATION ( 'BaseAlum_8mm', ( #43, #572 ), #701 ) ;
#92 = PERSON_AND_ORGANIZATION ( #199, #616 ) ;
#93 = LINE ( 'NONE', #174, #907 ) ;
#94 = ADVANCED_FACE ( 'NONE', ( #237 ), #883, .F. ) ;
#95 = ORIENTED_EDGE ( 'NONE', *, *, #471, .T. ) ;
#96 = VECTOR ( 'NONE', #74, 1000.000000000000000 ) ;
#97 = CIRCLE ( 'NONE', #159, 2.199999999999979750 ) ;
#98 = LINE ( 'NONE', #19, #141 ) ;
#99 = AXIS2_PLACEMENT_3D ( 'NONE', #913, #835, #690 ) ;
#100 = CARTESIAN_POINT ( 'NONE',  ( 608.8356030506816978, 819.1143000505810505, 8.000000000000000000 ) ) ;
#101 = VERTEX_POINT ( 'NONE', #520 ) ;
#102 = EDGE_CURVE ( 'NONE', #352, #38, #248, .T. ) ;
#103 = DIRECTION ( 'NONE',  ( -0.000000000000000000, -0.000000000000000000, -1.000000000000000000 ) ) ;
#104 = SECURITY_CLASSIFICATION_LEVEL ( 'unclassified' ) ;
#105 = DIRECTION ( 'NONE',  ( -0.000000000000000000, -0.000000000000000000, -1.000000000000000000 ) ) ;
#106 = ORIENTED_EDGE ( 'NONE', *, *, #402, .F. ) ;
#107 = FACE_OUTER_BOUND ( 'NONE', #461, .T. ) ;
#108 = PRODUCT_RELATED_PRODUCT_CATEGORY ( 'detail', '', ( #764 ) ) ;
#109 = EDGE_CURVE ( 'NONE', #53, #512, #527, .T. ) ;
#110 = DIRECTION ( 'NONE',  ( -1.000000000000000000, 0.000000000000000000, 0.000000000000000000 ) ) ;
#111 = ORIENTED_EDGE ( 'NONE', *, *, #632, .T. ) ;
#112 = DIRECTION ( 'NONE',  ( -0.000000000000000000, -0.000000000000000000, -1.000000000000000000 ) ) ;
#113 = AXIS2_PLACEMENT_3D ( 'NONE', #583, #870, #166 ) ;
#114 = AXIS2_PLACEMENT_3D ( 'NONE', #560, #144, #276 ) ;
#115 = CC_DESIGN_SECURITY_CLASSIFICATION ( #555, ( #267 ) ) ;
#116 = DIRECTION ( 'NONE',  ( -1.000000000000000000, 0.000000000000000000, 0.000000000000000000 ) ) ;
#117 = EDGE_LOOP ( 'NONE', ( #649, #711, #434, #903 ) ) ;
#118 = CC_DESIGN_PERSON_AND_ORGANIZATION_ASSIGNMENT ( #850, #795, ( #764 ) ) ;
#119 = CARTESIAN_POINT ( 'NONE',  ( 608.8356030506816978, 715.1143000505812779, 8.000000000000000000 ) ) ;
#120 = EDGE_CURVE ( 'NONE', #148, #505, #93, .T. ) ;
#121 = ORIENTED_EDGE ( 'NONE', *, *, #691, .T. ) ;
#122 = CYLINDRICAL_SURFACE ( 'NONE', #736, 2.199999999999979750 ) ;
#123 = LINE ( 'NONE', #538, #311 ) ;
#124 = ORIENTED_EDGE ( 'NONE', *, *, #929, .T. ) ;
#125 = EDGE_CURVE ( 'NONE', #559, #633, #514, .T. ) ;
#126 = DIRECTION ( 'NONE',  ( 0.000000000000000000, 0.000000000000000000, 1.000000000000000000 ) ) ;
#127 = AXIS2_PLACEMENT_3D ( 'NONE', #303, #87, #170 ) ;
#128 = CIRCLE ( 'NONE', #30, 6.000000000000005329 ) ;
#129 = AXIS2_PLACEMENT_3D ( 'NONE', #749, #270, #198 ) ;
#130 = DIRECTION ( 'NONE',  ( -0.000000000000000000, -0.000000000000000000, -1.000000000000000000 ) ) ;
#131 = ORIENTED_EDGE ( 'NONE', *, *, #20, .T. ) ;
#132 = ADVANCED_FACE ( 'NONE', ( #809 ), #17, .F. ) ;
#133 = PLANE ( 'NONE',  #232 ) ;
#134 = EDGE_LOOP ( 'NONE', ( #681, #861, #732, #857 ) ) ;
#135 = EDGE_CURVE ( 'NONE', #8, #693, #655, .T. ) ;
#136 = CARTESIAN_POINT ( 'NONE',  ( 616.0356030506817433, 744.6143000505813916, 8.000000000000000000 ) ) ;
#137 = ORIENTED_EDGE ( 'NONE', *, *, #135, .T. ) ;
#138 = VERTEX_POINT ( 'NONE', #864 ) ;
#139 = AXIS2_PLACEMENT_3D ( 'NONE', #394, #196, #760 ) ;
#140 = ADVANCED_FACE ( 'NONE', ( #457 ), #743, .T. ) ;
#141 = VECTOR ( 'NONE', #657, 1000.000000000000000 ) ;
#142 = APPROVAL_DATE_TIME ( #497, #703 ) ;
#143 = ORIENTED_EDGE ( 'NONE', *, *, #361, .T. ) ;
#144 = DIRECTION ( 'NONE',  ( -0.000000000000000000, -0.000000000000000000, -1.000000000000000000 ) ) ;
#145 = CARTESIAN_POINT ( 'NONE',  ( 831.8356030506816978, 787.4143000505813461, 0.000000000000000000 ) ) ;
#146 = APPROVAL_DATE_TIME ( #503, #738 ) ;
#147 = PLANE ( 'NONE',  #613 ) ;
#148 = VERTEX_POINT ( 'NONE', #318 ) ;
#149 = CARTESIAN_POINT ( 'NONE',  ( 618.3356030506816978, 746.8143000505812097, 0.000000000000000000 ) ) ;
#150 = CARTESIAN_POINT ( 'NONE',  ( 618.3356030506816978, 819.1143000505810505, 8.000000000000000000 ) ) ;
#151 =( NAMED_UNIT ( * ) PLANE_ANGLE_UNIT ( ) SI_UNIT ( $, .RADIAN. ) );
#152 = LINE ( 'NONE', #436, #96 ) ;
#153 = ORIENTED_EDGE ( 'NONE', *, *, #381, .T. ) ;
#154 = EDGE_CURVE ( 'NONE', #269, #291, #511, .T. ) ;
#155 = CARTESIAN_POINT ( 'NONE',  ( 829.5356030506817433, 744.6143000505812779, 0.000000000000000000 ) ) ;
#156 = CARTESIAN_POINT ( 'NONE',  ( 827.3356030506818115, 787.4143000505813461, 0.000000000000000000 ) ) ;
#157 = CIRCLE ( 'NONE', #672, 6.000000000000005329 ) ;
#158 = LINE ( 'NONE', #443, #473 ) ;
#159 = AXIS2_PLACEMENT_3D ( 'NONE', #574, #62, #905 ) ;
#160 = AXIS2_PLACEMENT_3D ( 'NONE', #183, #467, #470 ) ;
#161 = ORIENTED_EDGE ( 'NONE', *, *, #78, .F. ) ;
#162 = CARTESIAN_POINT ( 'NONE',  ( 830.8356030506816978, 825.1143000505810505, 0.000000000000000000 ) ) ;
#163 = ADVANCED_FACE ( 'NONE', ( #591 ), #648, .T. ) ;
#164 = DIRECTION ( 'NONE',  ( -0.000000000000000000, -0.000000000000000000, -1.000000000000000000 ) ) ;
#165 = CARTESIAN_POINT ( 'NONE',  ( 616.0356030506817433, 789.6143000505812779, 10.00000000000000000 ) ) ;
#166 = DIRECTION ( 'NONE',  ( 1.000000000000000000, 0.000000000000000000, 0.000000000000000000 ) ) ;
#167 = ORIENTED_EDGE ( 'NONE', *, *, #187, .F. ) ;
#168 = CARTESIAN_POINT ( 'NONE',  ( 829.6356030506817660, 787.4143000505813461, 10.00000000000000000 ) ) ;
#169 = DIRECTION ( 'NONE',  ( -1.000000000000000000, 0.000000000000000000, 0.000000000000000000 ) ) ;
#170 = DIRECTION ( 'NONE',  ( -1.000000000000000000, 0.000000000000000000, 0.000000000000000000 ) ) ;
#171 = EDGE_LOOP ( 'NONE', ( #854, #340, #161, #181 ) ) ;
#172 = DIRECTION ( 'NONE',  ( -0.000000000000000000, -0.000000000000000000, -1.000000000000000000 ) ) ;
#173 = EDGE_CURVE ( 'NONE', #810, #101, #158, .T. ) ;
#174 = CARTESIAN_POINT ( 'NONE',  ( 614.8356030506816978, 825.1143000505810505, 8.000000000000000000 ) ) ;
#175 = VECTOR ( 'NONE', #449, 1000.000000000000000 ) ;
#176 = ORIENTED_EDGE ( 'NONE', *, *, #507, .F. ) ;
#177 = AXIS2_PLACEMENT_3D ( 'NONE', #305, #867, #874 ) ;
#178 = LINE ( 'NONE', #582, #909 ) ;
#179 = PERSON_AND_ORGANIZATION_ROLE ( 'classification_officer' ) ;
#180 = DIRECTION ( 'NONE',  ( -0.000000000000000000, -1.000000000000000000, -0.000000000000000000 ) ) ;
#181 = ORIENTED_EDGE ( 'NONE', *, *, #266, .F. ) ;
#182 = EDGE_CURVE ( 'NONE', #372, #360, #376, .T. ) ;
#183 = CARTESIAN_POINT ( 'NONE',  ( 829.5356030506817433, 746.8143000505812097, 10.00000000000000000 ) ) ;
#184 = LINE ( 'NONE', #33, #798 ) ;
#185 = ORIENTED_EDGE ( 'NONE', *, *, #833, .F. ) ;
#186 = CARTESIAN_POINT ( 'NONE',  ( 831.8356030506818115, 746.8143000505812097, 8.000000000000000000 ) ) ;
#187 = EDGE_CURVE ( 'NONE', #383, #372, #588, .T. ) ;
#188 = FACE_OUTER_BOUND ( 'NONE', #797, .T. ) ;
#189 = EDGE_LOOP ( 'NONE', ( #137, #772, #49, #365 ) ) ;
#190 = DIRECTION ( 'NONE',  ( -1.000000000000000000, 0.000000000000000000, 0.000000000000000000 ) ) ;
#191 = VECTOR ( 'NONE', #757, 1000.000000000000000 ) ;
#192 = AXIS2_PLACEMENT_3D ( 'NONE', #79, #164, #84 ) ;
#193 = DIRECTION ( 'NONE',  ( -1.000000000000000000, 0.000000000000000000, 0.000000000000000000 ) ) ;
#194 = ORIENTED_EDGE ( 'NONE', *, *, #663, .F. ) ;
#195 = LINE ( 'NONE', #408, #277 ) ;
#196 = DIRECTION ( 'NONE',  ( -0.000000000000000000, -0.000000000000000000, -1.000000000000000000 ) ) ;
#197 = ORIENTED_EDGE ( 'NONE', *, *, #731, .F. ) ;
#198 = DIRECTION ( 'NONE',  ( -1.000000000000000000, 0.000000000000000000, 0.000000000000000000 ) ) ;
#199 = PERSON ( 'UNSPECIFIED', 'UNSPECIFIED', 'UNSPECIFIED', ('UNSPECIFIED'), ('UNSPECIFIED'), ('UNSPECIFIED') ) ;
#200 = LINE ( 'NONE', #271, #627 ) ;
#201 = ORIENTED_EDGE ( 'NONE', *, *, #632, .F. ) ;
#202 = AXIS2_PLACEMENT_3D ( 'NONE', #611, #256, #263 ) ;
#203 = LINE ( 'NONE', #692, #841 ) ;
#204 = LINE ( 'NONE', #786, #342 ) ;
#205 = DESIGN_CONTEXT ( 'detailed design', #223, 'design' ) ;
#206 = EDGE_CURVE ( 'NONE', #919, #698, #368, .T. ) ;
#207 = DIRECTION ( 'NONE',  ( -1.000000000000000000, 0.000000000000000000, 0.000000000000000000 ) ) ;
#208 = DIRECTION ( 'NONE',  ( 0.000000000000000000, -1.000000000000000000, 0.000000000000000000 ) ) ;
#209 = VERTEX_POINT ( 'NONE', #534 ) ;
#210 = CARTESIAN_POINT ( 'NONE',  ( 613.8356030506815841, 819.1143000505810505, 8.000000000000000000 ) ) ;
#211 = CALENDAR_DATE ( 2026, 19, 8 ) ;
#212 = EDGE_LOOP ( 'NONE', ( #643, #899, #696, #629, #620, #22, #755, #124 ) ) ;
#213 = CYLINDRICAL_SURFACE ( 'NONE', #344, 6.000000000000005329 ) ;
#214 = PRODUCT_DEFINITION ( 'UNKNOWN', '', #267, #205 ) ;
#215 = ADVANCED_FACE ( 'NONE', ( #403 ), #468, .F. ) ;
#216 = CIRCLE ( 'NONE', #526, 2.199999999999979750 ) ;
#217 = CALENDAR_DATE ( 2026, 19, 8 ) ;
#218 = ORIENTED_EDGE ( 'NONE', *, *, #44, .T. ) ;
#219 = EDGE_LOOP ( 'NONE', ( #255, #358, #744, #894 ) ) ;
#220 = CARTESIAN_POINT ( 'NONE',  ( 618.3356030506816978, 787.4143000505813461, 0.000000000000000000 ) ) ;
#221 = MECHANICAL_CONTEXT ( 'NONE', #794, 'mechanical' ) ;
#222 = CARTESIAN_POINT ( 'NONE',  ( 830.8356030507644618, 744.6143000505827558, 8.000000000000000000 ) ) ;
#223 = APPLICATION_CONTEXT ( 'configuration controlled 3d designs of mechanical parts and assemblies' ) ;
#224 = ORIENTED_EDGE ( 'NONE', *, *, #227, .F. ) ;
#225 = CARTESIAN_POINT ( 'NONE',  ( 618.3356030506816978, 746.8143000505812097, 10.00000000000000000 ) ) ;
#226 = VERTEX_POINT ( 'NONE', #268 ) ;
#227 = EDGE_CURVE ( 'NONE', #38, #209, #439, .T. ) ;
#228 = FACE_OUTER_BOUND ( 'NONE', #117, .T. ) ;
#229 = VECTOR ( 'NONE', #321, 1000.000000000000000 ) ;
#230 = DIRECTION ( 'NONE',  ( -1.000000000000000000, 0.000000000000000000, 0.000000000000000000 ) ) ;
#231 = LINE ( 'NONE', #594, #175 ) ;
#232 = AXIS2_PLACEMENT_3D ( 'NONE', #417, #694, #54 ) ;
#233 = DIRECTION ( 'NONE',  ( -0.000000000000000000, 0.000000000000000000, -1.000000000000000000 ) ) ;
#234 = ADVANCED_FACE ( 'NONE', ( #887 ), #406, .F. ) ;
#235 = FACE_OUTER_BOUND ( 'NONE', #437, .T. ) ;
#236 = SHAPE_DEFINITION_REPRESENTATION ( #621, #91 ) ;
#237 = FACE_OUTER_BOUND ( 'NONE', #787, .T. ) ;
#238 = ORIENTED_EDGE ( 'NONE', *, *, #478, .T. ) ;
#239 = FACE_OUTER_BOUND ( 'NONE', #521, .T. ) ;
#240 = EDGE_CURVE ( 'NONE', #209, #633, #200, .T. ) ;
#241 = LINE ( 'NONE', #150, #570 ) ;
#242 = EDGE_CURVE ( 'NONE', #398, #18, #123, .T. ) ;
#243 = DIRECTION ( 'NONE',  ( 1.000000000000000000, 0.000000000000000000, 0.000000000000000000 ) ) ;
#244 = ORIENTED_EDGE ( 'NONE', *, *, #639, .F. ) ;
#245 = CARTESIAN_POINT ( 'NONE',  ( 614.8356030506816978, 715.1143000505812779, 0.000000000000000000 ) ) ;
#246 = DATE_TIME_ROLE ( 'classification_date' ) ;
#247 = EDGE_CURVE ( 'NONE', #138, #592, #47, .T. ) ;
#248 = LINE ( 'NONE', #730, #553 ) ;
#249 = ORIENTED_EDGE ( 'NONE', *, *, #109, .F. ) ;
#250 = AXIS2_PLACEMENT_3D ( 'NONE', #723, #83, #378 ) ;
#251 = CIRCLE ( 'NONE', #676, 2.199999999999979750 ) ;
#252 = CARTESIAN_POINT ( 'NONE',  ( 616.0356030506817433, 746.8143000505812097, 10.00000000000000000 ) ) ;
#253 = DIRECTION ( 'NONE',  ( 0.000000000000000000, 0.000000000000000000, 1.000000000000000000 ) ) ;
#254 = ADVANCED_FACE ( 'NONE', ( #832 ), #549, .F. ) ;
#255 = ORIENTED_EDGE ( 'NONE', *, *, #173, .T. ) ;
#256 = DIRECTION ( 'NONE',  ( 0.000000000000000000, 0.000000000000000000, -1.000000000000000000 ) ) ;
#257 = APPROVAL_DATE_TIME ( #604, #791 ) ;
#258 = FACE_OUTER_BOUND ( 'NONE', #498, .T. ) ;
#259 = VERTEX_POINT ( 'NONE', #609 ) ;
#260 = DIRECTION ( 'NONE',  ( 1.000000000000000000, 0.000000000000000000, 0.000000000000000000 ) ) ;
#261 = DIRECTION ( 'NONE',  ( -0.000000000000000000, -0.000000000000000000, -1.000000000000000000 ) ) ;
#262 = ORIENTED_EDGE ( 'NONE', *, *, #896, .F. ) ;
#263 = DIRECTION ( 'NONE',  ( -1.000000000000000000, 0.000000000000000000, 0.000000000000000000 ) ) ;
#264 = AXIS2_PLACEMENT_3D ( 'NONE', #576, #284, #68 ) ;
#265 = AXIS2_PLACEMENT_3D ( 'NONE', #928, #452, #169 ) ;
#266 = EDGE_CURVE ( 'NONE', #592, #407, #487, .T. ) ;
#267 = PRODUCT_DEFINITION_FORMATION_WITH_SPECIFIED_SOURCE ( 'ANY', '', #764, .NOT_KNOWN. ) ;
#268 = CARTESIAN_POINT ( 'NONE',  ( 830.8356030506816978, 709.1143000505812779, 0.000000000000000000 ) ) ;
#269 = VERTEX_POINT ( 'NONE', #331 ) ;
#270 = DIRECTION ( 'NONE',  ( 0.000000000000000000, 0.000000000000000000, 1.000000000000000000 ) ) ;
#271 = CARTESIAN_POINT ( 'NONE',  ( 829.5356030506817433, 789.6143000505812779, 10.00000000000000000 ) ) ;
#272 = ORIENTED_EDGE ( 'NONE', *, *, #896, .T. ) ;
#273 = CARTESIAN_POINT ( 'NONE',  ( 616.1356030506817660, 744.6143000505812779, 8.000000000000000000 ) ) ;
#274 = ADVANCED_FACE ( 'NONE', ( #188 ), #619, .F. ) ;
#275 = ORIENTED_EDGE ( 'NONE', *, *, #807, .T. ) ;
#276 = DIRECTION ( 'NONE',  ( -1.000000000000000000, 0.000000000000000000, 0.000000000000000000 ) ) ;
#277 = VECTOR ( 'NONE', #622, 1000.000000000000000 ) ;
#278 = DIRECTION ( 'NONE',  ( -1.000000000000000000, 0.000000000000000000, 0.000000000000000000 ) ) ;
#279 = DIRECTION ( 'NONE',  ( -1.000000000000000000, 0.000000000000000000, 0.000000000000000000 ) ) ;
#280 = ORIENTED_EDGE ( 'NONE', *, *, #308, .T. ) ;
#281 = CARTESIAN_POINT ( 'NONE',  ( 614.8356030506816978, 819.1143000505810505, 8.000000000000000000 ) ) ;
#282 = CARTESIAN_POINT ( 'NONE',  ( 618.3356030506816978, 746.8143000505812097, 0.000000000000000000 ) ) ;
#283 = CARTESIAN_POINT ( 'NONE',  ( 616.1356030506817660, 746.8143000505812097, 10.00000000000000000 ) ) ;
#284 = DIRECTION ( 'NONE',  ( 0.000000000000000000, 0.000000000000000000, -1.000000000000000000 ) ) ;
#285 = EDGE_CURVE ( 'NONE', #38, #559, #479, .T. ) ;
#286 = ORIENTED_EDGE ( 'NONE', *, *, #837, .F. ) ;
#287 = EDGE_CURVE ( 'NONE', #512, #469, #836, .T. ) ;
#288 = DIRECTION ( 'NONE',  ( 0.000000000000000000, 1.000000000000000000, 0.000000000000000000 ) ) ;
#289 = APPROVAL_ROLE ( '' ) ;
#290 = FACE_OUTER_BOUND ( 'NONE', #421, .T. ) ;
#291 = VERTEX_POINT ( 'NONE', #753 ) ;
#292 = CARTESIAN_POINT ( 'NONE',  ( 829.5356030506817433, 789.6143000505812779, 0.000000000000000000 ) ) ;
#293 = VECTOR ( 'NONE', #523, 1000.000000000000000 ) ;
#294 = EDGE_CURVE ( 'NONE', #838, #383, #839, .T. ) ;
#295 = CIRCLE ( 'NONE', #716, 2.199999999999979750 ) ;
#296 = DIRECTION ( 'NONE',  ( -0.000000000000000000, -0.000000000000000000, -1.000000000000000000 ) ) ;
#297 = VECTOR ( 'NONE', #28, 1000.000000000000000 ) ;
#298 = CARTESIAN_POINT ( 'NONE',  ( 0.000000000000000000, 0.000000000000000000, 0.000000000000000000 ) ) ;
#299 = ORIENTED_EDGE ( 'NONE', *, *, #32, .F. ) ;
#300 = ORIENTED_EDGE ( 'NONE', *, *, #639, .T. ) ;
#301 = CC_DESIGN_PERSON_AND_ORGANIZATION_ASSIGNMENT ( #886, #742, ( #267 ) ) ;
#302 = LINE ( 'NONE', #725, #48 ) ;
#303 = CARTESIAN_POINT ( 'NONE',  ( 830.8356030506816978, 819.1143000505810505, 8.000000000000000000 ) ) ;
#304 = ORIENTED_EDGE ( 'NONE', *, *, #287, .T. ) ;
#305 = CARTESIAN_POINT ( 'NONE',  ( 829.6356030506817660, 746.8143000505812097, 8.000000000000000000 ) ) ;
#306 = APPLICATION_PROTOCOL_DEFINITION ( 'international standard', 'config_control_design', 1994, #223 ) ;
#307 = DIRECTION ( 'NONE',  ( -1.000000000000000000, 1.110223024625278921E-12, 0.000000000000000000 ) ) ;
#308 = EDGE_CURVE ( 'NONE', #372, #517, #539, .T. ) ;
#309 = ORIENTED_EDGE ( 'NONE', *, *, #242, .F. ) ;
#310 = DIRECTION ( 'NONE',  ( 0.000000000000000000, 0.000000000000000000, -1.000000000000000000 ) ) ;
#311 = VECTOR ( 'NONE', #546, 1000.000000000000000 ) ;
#312 = COORDINATED_UNIVERSAL_TIME_OFFSET ( 3, 0, .BEHIND. ) ;
#313 = DIRECTION ( 'NONE',  ( -0.000000000000000000, -0.000000000000000000, -1.000000000000000000 ) ) ;
#314 = AXIS2_PLACEMENT_3D ( 'NONE', #586, #233, #9 ) ;
#315 = ORIENTED_EDGE ( 'NONE', *, *, #285, .T. ) ;
#316 = EDGE_CURVE ( 'NONE', #653, #259, #601, .T. ) ;
#317 = PLANE ( 'NONE',  #781 ) ;
#318 = CARTESIAN_POINT ( 'NONE',  ( 830.8356030506816978, 825.1143000505810505, 8.000000000000000000 ) ) ;
#319 = ORIENTED_EDGE ( 'NONE', *, *, #20, .F. ) ;
#320 = LINE ( 'NONE', #155, #615 ) ;
#321 = DIRECTION ( 'NONE',  ( -0.000000000000000000, -0.000000000000000000, -1.000000000000000000 ) ) ;
#322 = EDGE_LOOP ( 'NONE', ( #626, #300, #547, #830 ) ) ;
#323 = PERSON_AND_ORGANIZATION ( #199, #616 ) ;
#324 = CARTESIAN_POINT ( 'NONE',  ( 830.8356030506816978, 715.1143000505812779, 0.000000000000000000 ) ) ;
#325 = VECTOR ( 'NONE', #898, 1000.000000000000000 ) ;
#326 = ORIENTED_EDGE ( 'NONE', *, *, #337, .F. ) ;
#327 = DIRECTION ( 'NONE',  ( 1.000000000000000000, -0.000000000000000000, -0.000000000000000000 ) ) ;
#328 = CIRCLE ( 'NONE', #264, 2.199999999999979750 ) ;
#329 = COORDINATED_UNIVERSAL_TIME_OFFSET ( 3, 0, .BEHIND. ) ;
#330 = CC_DESIGN_PERSON_AND_ORGANIZATION_ASSIGNMENT ( #92, #179, ( #555 ) ) ;
#331 = CARTESIAN_POINT ( 'NONE',  ( 829.5356030506817433, 744.6143000505812779, 8.000000000000000000 ) ) ;
#332 = EDGE_CURVE ( 'NONE', #226, #8, #157, .T. ) ;
#333 = ORIENTED_EDGE ( 'NONE', *, *, #818, .F. ) ;
#334 = DIRECTION ( 'NONE',  ( -0.000000000000000000, -0.000000000000000000, -1.000000000000000000 ) ) ;
#335 = DIRECTION ( 'NONE',  ( 1.110223024625278921E-12, -1.000000000000000000, 0.000000000000000000 ) ) ;
#336 = VERTEX_POINT ( 'NONE', #890 ) ;
#337 = EDGE_CURVE ( 'NONE', #927, #559, #184, .T. ) ;
#338 = DIRECTION ( 'NONE',  ( -1.000000000000000000, 0.000000000000000000, 0.000000000000000000 ) ) ;
#339 = DIRECTION ( 'NONE',  ( -0.000000000000000000, -0.000000000000000000, -1.000000000000000000 ) ) ;
#340 = ORIENTED_EDGE ( 'NONE', *, *, #32, .T. ) ;
#341 = LINE ( 'NONE', #900, #689 ) ;
#342 = VECTOR ( 'NONE', #357, 1000.000000000000000 ) ;
#343 = ADVANCED_FACE ( 'NONE', ( #258 ), #679, .F. ) ;
#344 = AXIS2_PLACEMENT_3D ( 'NONE', #281, #571, #207 ) ;
#345 = DIRECTION ( 'NONE',  ( -0.000000000000000000, -0.000000000000000000, -1.000000000000000000 ) ) ;
#346 = ORIENTED_EDGE ( 'NONE', *, *, #332, .T. ) ;
#347 = LINE ( 'NONE', #826, #488 ) ;
#348 = ORIENTED_EDGE ( 'NONE', *, *, #294, .F. ) ;
#349 = UNCERTAINTY_MEASURE_WITH_UNIT (LENGTH_MEASURE( 1.000000000000000082E-05 ), #714, 'distance_accuracy_value', 'NONE');
#350 = DIRECTION ( 'NONE',  ( 1.000000000000000000, 0.000000000000000000, 0.000000000000000000 ) ) ;
#351 = CARTESIAN_POINT ( 'NONE',  ( 616.0356030506817433, 789.6143000505812779, 0.000000000000000000 ) ) ;
#352 = VERTEX_POINT ( 'NONE', #561 ) ;
#353 = ORIENTED_EDGE ( 'NONE', *, *, #922, .F. ) ;
#354 = AXIS2_PLACEMENT_3D ( 'NONE', #482, #335, #530 ) ;
#355 = VECTOR ( 'NONE', #172, 1000.000000000000000 ) ;
#356 = DIRECTION ( 'NONE',  ( 0.000000000000000000, -0.000000000000000000, 1.000000000000000000 ) ) ;
#357 = DIRECTION ( 'NONE',  ( 1.000000000000000000, 0.000000000000000000, 0.000000000000000000 ) ) ;
#358 = ORIENTED_EDGE ( 'NONE', *, *, #712, .T. ) ;
#359 = ORIENTED_EDGE ( 'NONE', *, *, #78, .T. ) ;
#360 = VERTEX_POINT ( 'NONE', #496 ) ;
#361 = EDGE_CURVE ( 'NONE', #269, #352, #216, .T. ) ;
#362 = DIRECTION ( 'NONE',  ( -0.000000000000000000, -0.000000000000000000, -1.000000000000000000 ) ) ;
#363 = CARTESIAN_POINT ( 'NONE',  ( 836.8356030506816978, 715.1143000505812779, 8.000000000000000000 ) ) ;
#364 = DIRECTION ( 'NONE',  ( -1.000000000000000000, 0.000000000000000000, 0.000000000000000000 ) ) ;
#365 = ORIENTED_EDGE ( 'NONE', *, *, #706, .T. ) ;
#366 = PLANE ( 'NONE',  #515 ) ;
#367 = EDGE_CURVE ( 'NONE', #838, #595, #777, .T. ) ;
#368 = CIRCLE ( 'NONE', #113, 6.000000000000005329 ) ;
#369 = VECTOR ( 'NONE', #763, 1000.000000000000000 ) ;
#370 = CC_DESIGN_APPROVAL ( #703, ( #214 ) ) ;
#371 = DIRECTION ( 'NONE',  ( -0.000000000000000000, 0.000000000000000000, -1.000000000000000000 ) ) ;
#372 = VERTEX_POINT ( 'NONE', #136 ) ;
#373 = CARTESIAN_POINT ( 'NONE',  ( 616.1356030506817660, 789.6143000505812779, 10.00000000000000000 ) ) ;
#374 = EDGE_CURVE ( 'NONE', #410, #595, #849, .T. ) ;
#375 = PERSON_AND_ORGANIZATION ( #199, #616 ) ;
#376 = LINE ( 'NONE', #879, #385 ) ;
#377 = VERTEX_POINT ( 'NONE', #145 ) ;
#378 = DIRECTION ( 'NONE',  ( -1.000000000000000000, 0.000000000000000000, 0.000000000000000000 ) ) ;
#379 = CARTESIAN_POINT ( 'NONE',  ( 616.0356030506817433, 787.4143000505813461, 0.000000000000000000 ) ) ;
#380 = APPLICATION_PROTOCOL_DEFINITION ( 'international standard', 'config_control_design', 1994, #794 ) ;
#381 = EDGE_CURVE ( 'NONE', #595, #819, #97, .T. ) ;
#382 = CARTESIAN_POINT ( 'NONE',  ( 829.5356030506817433, 744.6143000505812779, 10.00000000000000000 ) ) ;
#383 = VERTEX_POINT ( 'NONE', #273 ) ;
#384 = CARTESIAN_POINT ( 'NONE',  ( 827.3356030506818115, 746.8143000505812097, 10.00000000000000000 ) ) ;
#385 = VECTOR ( 'NONE', #721, 1000.000000000000000 ) ;
#386 = DIRECTION ( 'NONE',  ( 0.000000000000000000, 1.000000000000000000, 0.000000000000000000 ) ) ;
#387 = CC_DESIGN_APPROVAL ( #738, ( #267 ) ) ;
#388 = ORIENTED_EDGE ( 'NONE', *, *, #922, .T. ) ;
#389 = CARTESIAN_POINT ( 'NONE',  ( 830.8356030506816978, 709.1143000505812779, 8.000000000000000000 ) ) ;
#390 = CARTESIAN_POINT ( 'NONE',  ( 618.3356030506816978, 787.4143000505813461, 10.00000000000000000 ) ) ;
#391 = ORIENTED_EDGE ( 'NONE', *, *, #374, .F. ) ;
#392 = DIRECTION ( 'NONE',  ( -0.000000000000000000, -0.000000000000000000, -1.000000000000000000 ) ) ;
#393 = DATE_AND_TIME ( #668, #660 ) ;
#394 = CARTESIAN_POINT ( 'NONE',  ( 616.0356030506817433, 746.8143000505812097, 8.000000000000000000 ) ) ;
#395 = ORIENTED_EDGE ( 'NONE', *, *, #853, .T. ) ;
#396 = CARTESIAN_POINT ( 'NONE',  ( 831.8356030506818115, 746.8143000505812097, 0.000000000000000000 ) ) ;
#397 = CARTESIAN_POINT ( 'NONE',  ( 613.8356030506815841, 746.8143000505812097, 10.00000000000000000 ) ) ;
#398 = VERTEX_POINT ( 'NONE', #635 ) ;
#399 = AXIS2_PLACEMENT_3D ( 'NONE', #252, #455, #529 ) ;
#400 = AXIS2_PLACEMENT_3D ( 'NONE', #42, #126, #671 ) ;
#401 = DIRECTION ( 'NONE',  ( 1.000000000000000000, 0.000000000000000000, 0.000000000000000000 ) ) ;
#402 = EDGE_CURVE ( 'NONE', #517, #398, #916, .T. ) ;
#403 = FACE_OUTER_BOUND ( 'NONE', #480, .T. ) ;
#404 = EDGE_LOOP ( 'NONE', ( #688, #391, #299, #508, #176, #912, #61, #450 ) ) ;
#405 = FACE_OUTER_BOUND ( 'NONE', #493, .T. ) ;
#406 = PLANE ( 'NONE',  #354 ) ;
#407 = VERTEX_POINT ( 'NONE', #766 ) ;
#408 = CARTESIAN_POINT ( 'NONE',  ( 830.8356030506816978, 825.1143000505810505, 8.000000000000000000 ) ) ;
#409 = DIRECTION ( 'NONE',  ( 1.000000000000000000, 0.000000000000000000, 0.000000000000000000 ) ) ;
#410 = VERTEX_POINT ( 'NONE', #220 ) ;
#411 = DIRECTION ( 'NONE',  ( -0.000000000000000000, -0.000000000000000000, -1.000000000000000000 ) ) ;
#412 = VECTOR ( 'NONE', #130, 1000.000000000000000 ) ;
#413 = EDGE_CURVE ( 'NONE', #862, #377, #420, .T. ) ;
#414 = APPROVAL_PERSON_ORGANIZATION ( #647, #738, #289 ) ;
#415 = CARTESIAN_POINT ( 'NONE',  ( 829.6356030506817660, 787.4143000505813461, 8.000000000000000000 ) ) ;
#416 = EDGE_LOOP ( 'NONE', ( #666, #775, #914, #280, #776, #813, #884, #563 ) ) ;
#417 = CARTESIAN_POINT ( 'NONE',  ( 829.5356030506817433, 789.6143000505812779, 10.00000000000000000 ) ) ;
#418 = DIRECTION ( 'NONE',  ( -0.000000000000000000, -0.000000000000000000, -1.000000000000000000 ) ) ;
#419 = ORIENTED_EDGE ( 'NONE', *, *, #646, .T. ) ;
#420 = LINE ( 'NONE', #565, #827 ) ;
#421 = EDGE_LOOP ( 'NONE', ( #111, #637, #286, #304 ) ) ;
#422 = EDGE_LOOP ( 'NONE', ( #670, #326, #631, #779, #656, #262, #244, #610 ) ) ;
#423 = VECTOR ( 'NONE', #208, 1000.000000000000000 ) ;
#424 = CARTESIAN_POINT ( 'NONE',  ( 836.8356030506816978, 715.1143000505812779, 8.000000000000000000 ) ) ;
#425 = AXIS2_PLACEMENT_3D ( 'NONE', #625, #492, #845 ) ;
#426 = PERSON_AND_ORGANIZATION ( #199, #616 ) ;
#427 = ORIENTED_EDGE ( 'NONE', *, *, #731, .T. ) ;
#428 = EDGE_LOOP ( 'NONE', ( #121, #528, #848, #906 ) ) ;
#429 = FACE_OUTER_BOUND ( 'NONE', #64, .T. ) ;
#430 = CARTESIAN_POINT ( 'NONE',  ( 608.8356030506816978, 715.1143000505812779, 0.000000000000000000 ) ) ;
#431 = PLANE ( 'NONE',  #645 ) ;
#432 = DIRECTION ( 'NONE',  ( 0.000000000000000000, 0.000000000000000000, 1.000000000000000000 ) ) ;
#433 = EDGE_CURVE ( 'NONE', #592, #336, #502, .T. ) ;
#434 = ORIENTED_EDGE ( 'NONE', *, *, #433, .F. ) ;
#435 = DATE_TIME_ROLE ( 'creation_date' ) ;
#436 = CARTESIAN_POINT ( 'NONE',  ( 613.8356030506815841, 746.8143000505812097, 0.000000000000000000 ) ) ;
#437 = EDGE_LOOP ( 'NONE', ( #315, #552, #41, #224 ) ) ;
#438 = DIRECTION ( 'NONE',  ( -1.000000000000000000, 0.000000000000000000, 0.000000000000000000 ) ) ;
#439 = CIRCLE ( 'NONE', #569, 2.199999999999979750 ) ;
#440 = CIRCLE ( 'NONE', #541, 6.000000000000005329 ) ;
#441 = CARTESIAN_POINT ( 'NONE',  ( 830.8356030506816978, 819.1143000505810505, 8.000000000000000000 ) ) ;
#442 = CIRCLE ( 'NONE', #129, 6.000000000000005329 ) ;
#443 = CARTESIAN_POINT ( 'NONE',  ( 829.6356030506817660, 744.6143000505812779, 10.00000000000000000 ) ) ;
#444 = AXIS2_PLACEMENT_3D ( 'NONE', #567, #418, #279 ) ;
#445 = ORIENTED_EDGE ( 'NONE', *, *, #873, .F. ) ;
#446 = CYLINDRICAL_SURFACE ( 'NONE', #699, 2.199999999999979750 ) ;
#447 = ADVANCED_FACE ( 'NONE', ( #859 ), #551, .F. ) ;
#448 = DIRECTION ( 'NONE',  ( -0.000000000000000000, -0.000000000000000000, -1.000000000000000000 ) ) ;
#449 = DIRECTION ( 'NONE',  ( -1.000000000000000000, 1.110223024625278921E-12, 0.000000000000000000 ) ) ;
#450 = ORIENTED_EDGE ( 'NONE', *, *, #86, .F. ) ;
#451 = CARTESIAN_POINT ( 'NONE',  ( 836.8356030506816978, 819.1143000505810505, 0.000000000000000000 ) ) ;
#452 = DIRECTION ( 'NONE',  ( 0.000000000000000000, 0.000000000000000000, 1.000000000000000000 ) ) ;
#453 = LINE ( 'NONE', #390, #293 ) ;
#454 = VERTEX_POINT ( 'NONE', #630 ) ;
#455 = DIRECTION ( 'NONE',  ( -0.000000000000000000, -0.000000000000000000, -1.000000000000000000 ) ) ;
#456 = VECTOR ( 'NONE', #327, 1000.000000000000000 ) ;
#457 = FACE_OUTER_BOUND ( 'NONE', #568, .T. ) ;
#458 = CIRCLE ( 'NONE', #314, 2.199999999999979750 ) ;
#459 = EDGE_CURVE ( 'NONE', #662, #919, #203, .T. ) ;
#460 = VECTOR ( 'NONE', #448, 1000.000000000000000 ) ;
#461 = EDGE_LOOP ( 'NONE', ( #771, #275, #758, #3 ) ) ;
#462 = DIRECTION ( 'NONE',  ( 0.000000000000000000, 0.000000000000000000, 1.000000000000000000 ) ) ;
#463 = PERSON_AND_ORGANIZATION ( #199, #616 ) ;
#464 = DIRECTION ( 'NONE',  ( 1.000000000000000000, 0.000000000000000000, 0.000000000000000000 ) ) ;
#465 = ORIENTED_EDGE ( 'NONE', *, *, #921, .F. ) ;
#466 = CC_DESIGN_DATE_AND_TIME_ASSIGNMENT ( #636, #435, ( #214 ) ) ;
#467 = DIRECTION ( 'NONE',  ( -0.000000000000000000, -0.000000000000000000, -1.000000000000000000 ) ) ;
#468 = PLANE ( 'NONE',  #765 ) ;
#469 = VERTEX_POINT ( 'NONE', #430 ) ;
#470 = DIRECTION ( 'NONE',  ( -1.000000000000000000, 0.000000000000000000, 0.000000000000000000 ) ) ;
#471 = EDGE_CURVE ( 'NONE', #822, #474, #66, .T. ) ;
#472 = CARTESIAN_POINT ( 'NONE',  ( 827.3356030506818115, 787.4143000505813461, 10.00000000000000000 ) ) ;
#473 = VECTOR ( 'NONE', #81, 1000.000000000000000 ) ;
#474 = VERTEX_POINT ( 'NONE', #640 ) ;
#475 = VECTOR ( 'NONE', #288, 1000.000000000000000 ) ;
#476 = CIRCLE ( 'NONE', #400, 6.000000000000005329 ) ;
#477 = FACE_BOUND ( 'NONE', #404, .T. ) ;
#478 = EDGE_CURVE ( 'NONE', #454, #862, #295, .T. ) ;
#479 = LINE ( 'NONE', #472, #191 ) ;
#480 = EDGE_LOOP ( 'NONE', ( #871, #715, #249, #12 ) ) ;
#481 = LINE ( 'NONE', #759, #369 ) ;
#482 = CARTESIAN_POINT ( 'NONE',  ( 829.5356030506817433, 744.6143000505812779, 10.00000000000000000 ) ) ;
#483 = ADVANCED_FACE ( 'NONE', ( #623 ), #133, .F. ) ;
#484 = EDGE_LOOP ( 'NONE', ( #790, #638, #388, #238, #131, #76, #218, #143 ) ) ;
#485 = DIRECTION ( 'NONE',  ( -0.000000000000000000, -1.000000000000000000, -0.000000000000000000 ) ) ;
#486 = DIRECTION ( 'NONE',  ( -1.000000000000000000, 0.000000000000000000, 0.000000000000000000 ) ) ;
#487 = CIRCLE ( 'NONE', #872, 2.199999999999979750 ) ;
#488 = VECTOR ( 'NONE', #401, 1000.000000000000000 ) ;
#489 = DIRECTION ( 'NONE',  ( -1.000000000000000000, -0.000000000000000000, -0.000000000000000000 ) ) ;
#490 = VERTEX_POINT ( 'NONE', #351 ) ;
#491 = ORIENTED_EDGE ( 'NONE', *, *, #459, .T. ) ;
#492 = DIRECTION ( 'NONE',  ( 0.000000000000000000, -1.000000000000000000, 0.000000000000000000 ) ) ;
#493 = EDGE_LOOP ( 'NONE', ( #445, #866, #27, #333, #201, #88, #624, #581 ) ) ;
#494 = ORIENTED_EDGE ( 'NONE', *, *, #901, .T. ) ;
#495 = FACE_OUTER_BOUND ( 'NONE', #189, .T. ) ;
#496 = CARTESIAN_POINT ( 'NONE',  ( 616.0356030506817433, 744.6143000505813916, 0.000000000000000000 ) ) ;
#497 = DATE_AND_TIME ( #211, #783 ) ;
#498 = EDGE_LOOP ( 'NONE', ( #491, #197, #34, #395 ) ) ;
#499 = VERTEX_POINT ( 'NONE', #659 ) ;
#500 = VECTOR ( 'NONE', #26, 1000.000000000000000 ) ;
#501 = VECTOR ( 'NONE', #296, 1000.000000000000000 ) ;
#502 = LINE ( 'NONE', #697, #412 ) ;
#503 = DATE_AND_TIME ( #217, #542 ) ;
#504 = CARTESIAN_POINT ( 'NONE',  ( 613.8356030506815841, 787.4143000505813461, 0.000000000000000000 ) ) ;
#505 = VERTEX_POINT ( 'NONE', #788 ) ;
#506 = DIRECTION ( 'NONE',  ( -1.000000000000000000, -1.110223024625278921E-12, 0.000000000000000000 ) ) ;
#507 = EDGE_CURVE ( 'NONE', #18, #490, #674, .T. ) ;
#508 = ORIENTED_EDGE ( 'NONE', *, *, #785, .F. ) ;
#509 = DIRECTION ( 'NONE',  ( -1.000000000000000000, 0.000000000000000000, 0.000000000000000000 ) ) ;
#510 = DIRECTION ( 'NONE',  ( 0.000000000000000000, 0.000000000000000000, 1.000000000000000000 ) ) ;
#511 = LINE ( 'NONE', #382, #45 ) ;
#512 = VERTEX_POINT ( 'NONE', #90 ) ;
#513 = CARTESIAN_POINT ( 'NONE',  ( 614.8356030506816978, 825.1143000505810505, 8.000000000000000000 ) ) ;
#514 = CIRCLE ( 'NONE', #844, 2.199999999999979750 ) ;
#515 = AXIS2_PLACEMENT_3D ( 'NONE', #424, #509, #634 ) ;
#516 = CARTESIAN_POINT ( 'NONE',  ( 608.8356030506816978, 715.1143000505812779, 8.000000000000000000 ) ) ;
#517 = VERTEX_POINT ( 'NONE', #863 ) ;
#518 = CARTESIAN_POINT ( 'NONE',  ( 614.8356030506816978, 709.1143000505812779, 8.000000000000000000 ) ) ;
#519 = LINE ( 'NONE', #292, #554 ) ;
#520 = CARTESIAN_POINT ( 'NONE',  ( 829.6356030506817660, 744.6143000505812779, 0.000000000000000000 ) ) ;
#521 = EDGE_LOOP ( 'NONE', ( #540, #684, #185, #65 ) ) ;
#522 = DIRECTION ( 'NONE',  ( -1.000000000000000000, 0.000000000000000000, 0.000000000000000000 ) ) ;
#523 = DIRECTION ( 'NONE',  ( -0.000000000000000000, -0.000000000000000000, -1.000000000000000000 ) ) ;
#524 = EDGE_LOOP ( 'NONE', ( #880, #805, #465, #891 ) ) ;
#525 = DIRECTION ( 'NONE',  ( -1.000000000000000000, -1.110223024625278921E-12, -0.000000000000000000 ) ) ;
#526 = AXIS2_PLACEMENT_3D ( 'NONE', #708, #908, #278 ) ;
#527 = LINE ( 'NONE', #516, #587 ) ;
#528 = ORIENTED_EDGE ( 'NONE', *, *, #337, .T. ) ;
#529 = DIRECTION ( 'NONE',  ( -1.000000000000000000, 0.000000000000000000, 0.000000000000000000 ) ) ;
#530 = DIRECTION ( 'NONE',  ( 1.000000000000000000, 1.110223024625278921E-12, 0.000000000000000000 ) ) ;
#531 = ORIENTED_EDGE ( 'NONE', *, *, #367, .F. ) ;
#532 = EDGE_CURVE ( 'NONE', #407, #838, #241, .T. ) ;
#533 = CARTESIAN_POINT ( 'NONE',  ( 831.8356030506816978, 787.4143000505813461, 8.000000000000000000 ) ) ;
#534 = CARTESIAN_POINT ( 'NONE',  ( 829.5356030506817433, 789.6143000505812779, 8.000000000000000000 ) ) ;
#535 = ORIENTED_EDGE ( 'NONE', *, *, #853, .F. ) ;
#536 = FACE_OUTER_BOUND ( 'NONE', #834, .T. ) ;
#537 = EDGE_CURVE ( 'NONE', #505, #53, #128, .T. ) ;
#538 = CARTESIAN_POINT ( 'NONE',  ( 613.8356030506815841, 787.4143000505813461, 10.00000000000000000 ) ) ;
#539 = CIRCLE ( 'NONE', #139, 2.199999999999979750 ) ;
#540 = ORIENTED_EDGE ( 'NONE', *, *, #182, .T. ) ;
#541 = AXIS2_PLACEMENT_3D ( 'NONE', #245, #462, #438 ) ;
#542 = LOCAL_TIME ( 10, 20, 59.00000000000000000, #566 ) ;
#543 = CARTESIAN_POINT ( 'NONE',  ( 829.6356030506817660, 744.6143000505812779, 8.000000000000000000 ) ) ;
#544 = CC_DESIGN_DATE_AND_TIME_ASSIGNMENT ( #393, #246, ( #555 ) ) ;
#545 = EDGE_CURVE ( 'NONE', #558, #918, #598, .T. ) ;
#546 = DIRECTION ( 'NONE',  ( -0.000000000000000000, -0.000000000000000000, -1.000000000000000000 ) ) ;
#547 = ORIENTED_EDGE ( 'NONE', *, *, #413, .F. ) ;
#548 = FACE_OUTER_BOUND ( 'NONE', #710, .T. ) ;
#549 = CYLINDRICAL_SURFACE ( 'NONE', #73, 2.199999999999979750 ) ;
#550 = ORIENTED_EDGE ( 'NONE', *, *, #537, .F. ) ;
#551 = PLANE ( 'NONE',  #14 ) ;
#552 = ORIENTED_EDGE ( 'NONE', *, *, #125, .T. ) ;
#553 = VECTOR ( 'NONE', #386, 1000.000000000000000 ) ;
#554 = VECTOR ( 'NONE', #350, 1000.000000000000000 ) ;
#555 = SECURITY_CLASSIFICATION ( '', '', #104 ) ;
#556 = CARTESIAN_POINT ( 'NONE',  ( 616.1356030506817660, 789.6143000505812779, 8.000000000000000000 ) ) ;
#557 = DIRECTION ( 'NONE',  ( -0.000000000000000000, -0.000000000000000000, -1.000000000000000000 ) ) ;
#558 = VERTEX_POINT ( 'NONE', #802 ) ;
#559 = VERTEX_POINT ( 'NONE', #156 ) ;
#560 = CARTESIAN_POINT ( 'NONE',  ( 829.6356030506817660, 746.8143000505812097, 10.00000000000000000 ) ) ;
#561 = CARTESIAN_POINT ( 'NONE',  ( 827.3356030506818115, 746.8143000505812097, 8.000000000000000000 ) ) ;
#562 = CARTESIAN_POINT ( 'NONE',  ( 827.3356030506818115, 746.8143000505812097, 10.00000000000000000 ) ) ;
#563 = ORIENTED_EDGE ( 'NONE', *, *, #266, .T. ) ;
#564 = EDGE_CURVE ( 'NONE', #56, #148, #59, .T. ) ;
#565 = CARTESIAN_POINT ( 'NONE',  ( 831.8356030506816978, 787.4143000505813461, 10.00000000000000000 ) ) ;
#566 = COORDINATED_UNIVERSAL_TIME_OFFSET ( 3, 0, .BEHIND. ) ;
#567 = CARTESIAN_POINT ( 'NONE',  ( 614.8356030506816978, 715.1143000505812779, 8.000000000000000000 ) ) ;
#568 = EDGE_LOOP ( 'NONE', ( #69, #535, #739, #677 ) ) ;
#569 = AXIS2_PLACEMENT_3D ( 'NONE', #687, #261, #486 ) ;
#570 = VECTOR ( 'NONE', #713, 1000.000000000000000 ) ;
#571 = DIRECTION ( 'NONE',  ( -0.000000000000000000, -0.000000000000000000, -1.000000000000000000 ) ) ;
#572 = AXIS2_PLACEMENT_3D ( 'NONE', #298, #5, #869 ) ;
#573 = CC_DESIGN_PERSON_AND_ORGANIZATION_ASSIGNMENT ( #463, #729, ( #267 ) ) ;
#574 = CARTESIAN_POINT ( 'NONE',  ( 616.1356030506817660, 746.8143000505812097, 0.000000000000000000 ) ) ;
#575 = ADVANCED_FACE ( 'NONE', ( #235 ), #808, .F. ) ;
#576 = CARTESIAN_POINT ( 'NONE',  ( 616.1356030506817660, 787.4143000505813461, 0.000000000000000000 ) ) ;
#577 = ORIENTED_EDGE ( 'NONE', *, *, #374, .T. ) ;
#578 =( NAMED_UNIT ( * ) SI_UNIT ( $, .STERADIAN. ) SOLID_ANGLE_UNIT ( ) );
#579 = EDGE_CURVE ( 'NONE', #633, #499, #519, .T. ) ;
#580 = CARTESIAN_POINT ( 'NONE',  ( 830.8356030506816978, 715.1143000505812779, 8.000000000000000000 ) ) ;
#581 = ORIENTED_EDGE ( 'NONE', *, *, #459, .F. ) ;
#582 = CARTESIAN_POINT ( 'NONE',  ( 616.1356030506817660, 744.6143000505812779, 10.00000000000000000 ) ) ;
#583 = CARTESIAN_POINT ( 'NONE',  ( 614.8356030506816978, 819.1143000505810505, 0.000000000000000000 ) ) ;
#584 = ORIENTED_EDGE ( 'NONE', *, *, #240, .T. ) ;
#585 = ADVANCED_FACE ( 'NONE', ( #429 ), #920, .F. ) ;
#586 = CARTESIAN_POINT ( 'NONE',  ( 829.6356030506817660, 787.4143000505813461, 0.000000000000000000 ) ) ;
#587 = VECTOR ( 'NONE', #180, 1000.000000000000000 ) ;
#588 = LINE ( 'NONE', #652, #750 ) ;
#589 = ORIENTED_EDGE ( 'NONE', *, *, #858, .F. ) ;
#590 = FACE_OUTER_BOUND ( 'NONE', #171, .T. ) ;
#591 = FACE_OUTER_BOUND ( 'NONE', #782, .T. ) ;
#592 = VERTEX_POINT ( 'NONE', #556 ) ;
#593 = DIRECTION ( 'NONE',  ( 0.000000000000000000, 1.000000000000000000, -0.000000000000000000 ) ) ;
#594 = CARTESIAN_POINT ( 'NONE',  ( 616.1356030506817660, 744.6143000505812779, 0.000000000000000000 ) ) ;
#595 = VERTEX_POINT ( 'NONE', #149 ) ;
#596 = DIRECTION ( 'NONE',  ( -1.000000000000000000, 0.000000000000000000, 0.000000000000000000 ) ) ;
#597 = VECTOR ( 'NONE', #105, 1000.000000000000000 ) ;
#598 = CIRCLE ( 'NONE', #265, 6.000000000000005329 ) ;
#599 = APPROVAL_ROLE ( '' ) ;
#600 = ADVANCED_FACE ( 'NONE', ( #70 ), #213, .T. ) ;
#601 = LINE ( 'NONE', #669, #500 ) ;
#602 = ORIENTED_EDGE ( 'NONE', *, *, #86, .T. ) ;
#603 = CARTESIAN_POINT ( 'NONE',  ( 613.8356030506816978, 746.8143000505812097, 10.00000000000000000 ) ) ;
#604 = DATE_AND_TIME ( #752, #801 ) ;
#605 = DIRECTION ( 'NONE',  ( 0.000000000000000000, 1.000000000000000000, 0.000000000000000000 ) ) ;
#606 = ADVANCED_FACE ( 'NONE', ( #495 ), #366, .F. ) ;
#607 = ORIENTED_EDGE ( 'NONE', *, *, #367, .T. ) ;
#608 = PLANE ( 'NONE',  #99 ) ;
#609 = CARTESIAN_POINT ( 'NONE',  ( 614.8356030506816978, 709.1143000505812779, 0.000000000000000000 ) ) ;
#610 = ORIENTED_EDGE ( 'NONE', *, *, #579, .F. ) ;
#611 = CARTESIAN_POINT ( 'NONE',  ( 829.5356030506817433, 746.8143000505812097, 0.000000000000000000 ) ) ;
#612 = CARTESIAN_POINT ( 'NONE',  ( 830.8356030506816978, 789.6143000505812779, 8.000000000000000000 ) ) ;
#613 = AXIS2_PLACEMENT_3D ( 'NONE', #562, #364, #432 ) ;
#614 = ORIENTED_EDGE ( 'NONE', *, *, #71, .F. ) ;
#615 = VECTOR ( 'NONE', #525, 1000.000000000000000 ) ;
#616 = ORGANIZATION ( 'UNSPECIFIED', 'UNSPECIFIED', '' ) ;
#617 = LINE ( 'NONE', #745, #767 ) ;
#618 = EDGE_CURVE ( 'NONE', #822, #810, #46, .T. ) ;
#619 = PLANE ( 'NONE',  #780 ) ;
#620 = ORIENTED_EDGE ( 'NONE', *, *, #837, .T. ) ;
#621 = PRODUCT_DEFINITION_SHAPE ( 'NONE', 'NONE',  #214 ) ;
#622 = DIRECTION ( 'NONE',  ( -0.000000000000000000, -0.000000000000000000, -1.000000000000000000 ) ) ;
#623 = FACE_OUTER_BOUND ( 'NONE', #748, .T. ) ;
#624 = ORIENTED_EDGE ( 'NONE', *, *, #206, .F. ) ;
#625 = CARTESIAN_POINT ( 'NONE',  ( 614.8356030506816978, 825.1143000505810505, 8.000000000000000000 ) ) ;
#626 = ORIENTED_EDGE ( 'NONE', *, *, #858, .T. ) ;
#627 = VECTOR ( 'NONE', #339, 1000.000000000000000 ) ;
#628 = VECTOR ( 'NONE', #814, 1000.000000000000000 ) ;
#629 = ORIENTED_EDGE ( 'NONE', *, *, #109, .T. ) ;
#630 = CARTESIAN_POINT ( 'NONE',  ( 829.6356030506817660, 789.6143000505812779, 8.000000000000000000 ) ) ;
#631 = ORIENTED_EDGE ( 'NONE', *, *, #807, .F. ) ;
#632 = EDGE_CURVE ( 'NONE', #469, #259, #440, .T. ) ;
#633 = VERTEX_POINT ( 'NONE', #811 ) ;
#634 = DIRECTION ( 'NONE',  ( 0.000000000000000000, 0.000000000000000000, 1.000000000000000000 ) ) ;
#635 = CARTESIAN_POINT ( 'NONE',  ( 613.8356030506815841, 787.4143000505813461, 8.000000000000000000 ) ) ;
#636 = DATE_AND_TIME ( #63, #911 ) ;
#637 = ORIENTED_EDGE ( 'NONE', *, *, #316, .F. ) ;
#638 = ORIENTED_EDGE ( 'NONE', *, *, #227, .T. ) ;
#639 = EDGE_CURVE ( 'NONE', #499, #377, #458, .T. ) ;
#640 = CARTESIAN_POINT ( 'NONE',  ( 831.8356030506818115, 746.8143000505812097, 0.000000000000000000 ) ) ;
#641 = CARTESIAN_POINT ( 'NONE',  ( 830.8356030506816978, 789.6143000505812779, 8.000000000000000000 ) ) ;
#642 = LINE ( 'NONE', #222, #718 ) ;
#643 = ORIENTED_EDGE ( 'NONE', *, *, #564, .T. ) ;
#644 = VECTOR ( 'NONE', #702, 1000.000000000000000 ) ;
#645 = AXIS2_PLACEMENT_3D ( 'NONE', #67, #860, #230 ) ;
#646 = EDGE_CURVE ( 'NONE', #558, #226, #654, .T. ) ;
#647 = PERSON_AND_ORGANIZATION ( #199, #616 ) ;
#648 = CYLINDRICAL_SURFACE ( 'NONE', #13, 6.000000000000005329 ) ;
#649 = ORIENTED_EDGE ( 'NONE', *, *, #921, .T. ) ;
#650 = CARTESIAN_POINT ( 'NONE',  ( 616.0356030506817433, 746.8143000505812097, 0.000000000000000000 ) ) ;
#651 = DIRECTION ( 'NONE',  ( 1.000000000000000000, 0.000000000000000000, 0.000000000000000000 ) ) ;
#652 = CARTESIAN_POINT ( 'NONE',  ( 830.8356030505990475, 744.6143000503428766, 8.000000000000000000 ) ) ;
#653 = VERTEX_POINT ( 'NONE', #518 ) ;
#654 = LINE ( 'NONE', #389, #355 ) ;
#655 = LINE ( 'NONE', #21, #924 ) ;
#656 = ORIENTED_EDGE ( 'NONE', *, *, #901, .F. ) ;
#657 = DIRECTION ( 'NONE',  ( -0.000000000000000000, -0.000000000000000000, -1.000000000000000000 ) ) ;
#658 = AXIS2_PLACEMENT_3D ( 'NONE', #728, #392, #15 ) ;
#659 = CARTESIAN_POINT ( 'NONE',  ( 829.6356030506817660, 789.6143000505812779, 0.000000000000000000 ) ) ;
#660 = LOCAL_TIME ( 10, 20, 59.00000000000000000, #329 ) ;
#661 = CARTESIAN_POINT ( 'NONE',  ( 829.5356030506817433, 787.4143000505813461, 0.000000000000000000 ) ) ;
#662 = VERTEX_POINT ( 'NONE', #162 ) ;
#663 = EDGE_CURVE ( 'NONE', #383, #819, #178, .T. ) ;
#664 = CARTESIAN_POINT ( 'NONE',  ( 613.8356030506816978, 746.8143000505812097, 0.000000000000000000 ) ) ;
#665 = DIRECTION ( 'NONE',  ( 0.000000000000000000, 0.000000000000000000, -1.000000000000000000 ) ) ;
#666 = ORIENTED_EDGE ( 'NONE', *, *, #532, .T. ) ;
#667 = LINE ( 'NONE', #513, #628 ) ;
#668 = CALENDAR_DATE ( 2026, 19, 8 ) ;
#669 = CARTESIAN_POINT ( 'NONE',  ( 614.8356030506816978, 709.1143000505812779, 8.000000000000000000 ) ) ;
#670 = ORIENTED_EDGE ( 'NONE', *, *, #125, .F. ) ;
#671 = DIRECTION ( 'NONE',  ( -1.000000000000000000, 0.000000000000000000, 0.000000000000000000 ) ) ;
#672 = AXIS2_PLACEMENT_3D ( 'NONE', #324, #253, #116 ) ;
#673 = EDGE_CURVE ( 'NONE', #360, #700, #816, .T. ) ;
#674 = CIRCLE ( 'NONE', #735, 2.199999999999979750 ) ;
#675 = DIRECTION ( 'NONE',  ( -1.000000000000000000, 0.000000000000000000, 0.000000000000000000 ) ) ;
#676 = AXIS2_PLACEMENT_3D ( 'NONE', #678, #35, #260 ) ;
#677 = ORIENTED_EDGE ( 'NONE', *, *, #793, .T. ) ;
#678 = CARTESIAN_POINT ( 'NONE',  ( 829.6356030506817660, 746.8143000505812097, 0.000000000000000000 ) ) ;
#679 = PLANE ( 'NONE',  #425 ) ;
#680 = ADVANCED_FACE ( 'NONE', ( #239 ), #741, .F. ) ;
#681 = ORIENTED_EDGE ( 'NONE', *, *, #818, .T. ) ;
#682 = CARTESIAN_POINT ( 'NONE',  ( 616.1356030506817660, 787.4143000505813461, 10.00000000000000000 ) ) ;
#683 = CARTESIAN_POINT ( 'NONE',  ( 616.1356030506817660, 746.8143000505812097, 8.000000000000000000 ) ) ;
#684 = ORIENTED_EDGE ( 'NONE', *, *, #673, .T. ) ;
#685 = ADVANCED_FACE ( 'NONE', ( #717 ), #446, .F. ) ;
#686 = CARTESIAN_POINT ( 'NONE',  ( 618.3356030506816978, 746.8143000505812097, 8.000000000000000000 ) ) ;
#687 = CARTESIAN_POINT ( 'NONE',  ( 829.5356030506817433, 787.4143000505813461, 8.000000000000000000 ) ) ;
#688 = ORIENTED_EDGE ( 'NONE', *, *, #381, .F. ) ;
#689 = VECTOR ( 'NONE', #411, 1000.000000000000000 ) ;
#690 = DIRECTION ( 'NONE',  ( 1.000000000000000000, -1.110223024625278921E-12, 0.000000000000000000 ) ) ;
#691 = EDGE_CURVE ( 'NONE', #352, #927, #733, .T. ) ;
#692 = CARTESIAN_POINT ( 'NONE',  ( 614.8356030506816978, 825.1143000505810505, 0.000000000000000000 ) ) ;
#693 = VERTEX_POINT ( 'NONE', #451 ) ;
#694 = DIRECTION ( 'NONE',  ( 0.000000000000000000, 1.000000000000000000, 0.000000000000000000 ) ) ;
#695 = CYLINDRICAL_SURFACE ( 'NONE', #444, 6.000000000000005329 ) ;
#696 = ORIENTED_EDGE ( 'NONE', *, *, #537, .T. ) ;
#697 = CARTESIAN_POINT ( 'NONE',  ( 616.1356030506817660, 789.6143000505812779, 10.00000000000000000 ) ) ;
#698 = VERTEX_POINT ( 'NONE', #77 ) ;
#699 = AXIS2_PLACEMENT_3D ( 'NONE', #168, #103, #522 ) ;
#700 = VERTEX_POINT ( 'NONE', #664 ) ;
#701 =( GEOMETRIC_REPRESENTATION_CONTEXT ( 3 ) GLOBAL_UNCERTAINTY_ASSIGNED_CONTEXT ( ( #349 ) ) GLOBAL_UNIT_ASSIGNED_CONTEXT ( ( #714, #151, #578 ) ) REPRESENTATION_CONTEXT ( 'NONE', 'WORKASPACE' ) );
#702 = DIRECTION ( 'NONE',  ( -0.000000000000000000, -1.000000000000000000, -0.000000000000000000 ) ) ;
#703 = APPROVAL ( #720, 'UNSPECIFIED' ) ;
#704 = COORDINATED_UNIVERSAL_TIME_OFFSET ( 3, 0, .BEHIND. ) ;
#705 = ORIENTED_EDGE ( 'NONE', *, *, #51, .T. ) ;
#706 = EDGE_CURVE ( 'NONE', #918, #8, #98, .T. ) ;
#707 = ORIENTED_EDGE ( 'NONE', *, *, #706, .F. ) ;
#708 = CARTESIAN_POINT ( 'NONE',  ( 829.5356030506817433, 746.8143000505812097, 8.000000000000000000 ) ) ;
#709 = APPROVAL_ROLE ( '' ) ;
#710 = EDGE_LOOP ( 'NONE', ( #888, #602, #915, #167 ) ) ;
#711 = ORIENTED_EDGE ( 'NONE', *, *, #785, .T. ) ;
#712 = EDGE_CURVE ( 'NONE', #101, #291, #320, .T. ) ;
#713 = DIRECTION ( 'NONE',  ( 0.000000000000000000, -1.000000000000000000, 0.000000000000000000 ) ) ;
#714 =( LENGTH_UNIT ( ) NAMED_UNIT ( * ) SI_UNIT ( .MILLI., .METRE. ) );
#715 = ORIENTED_EDGE ( 'NONE', *, *, #287, .F. ) ;
#716 = AXIS2_PLACEMENT_3D ( 'NONE', #415, #52, #770 ) ;
#717 = FACE_OUTER_BOUND ( 'NONE', #322, .T. ) ;
#718 = VECTOR ( 'NONE', #506, 1000.000000000000000 ) ;
#719 = DIRECTION ( 'NONE',  ( -1.000000000000000000, 0.000000000000000000, 0.000000000000000000 ) ) ;
#720 = APPROVAL_STATUS ( 'not_yet_approved' ) ;
#721 = DIRECTION ( 'NONE',  ( -0.000000000000000000, -0.000000000000000000, -1.000000000000000000 ) ) ;
#722 = ORIENTED_EDGE ( 'NONE', *, *, #173, .F. ) ;
#723 = CARTESIAN_POINT ( 'NONE',  ( 830.8356030506816978, 819.1143000505810505, 8.000000000000000000 ) ) ;
#724 = EDGE_CURVE ( 'NONE', #398, #138, #856, .T. ) ;
#725 = CARTESIAN_POINT ( 'NONE',  ( 836.8356030506816978, 715.1143000505812779, 8.000000000000000000 ) ) ;
#726 = DIRECTION ( 'NONE',  ( 0.000000000000000000, 0.000000000000000000, -1.000000000000000000 ) ) ;
#727 = ORIENTED_EDGE ( 'NONE', *, *, #471, .F. ) ;
#728 = CARTESIAN_POINT ( 'NONE',  ( 616.0356030506817433, 787.4143000505813461, 8.000000000000000000 ) ) ;
#729 = PERSON_AND_ORGANIZATION_ROLE ( 'creator' ) ;
#730 = CARTESIAN_POINT ( 'NONE',  ( 827.3356030506818115, 819.1143000505810505, 8.000000000000000000 ) ) ;
#731 = EDGE_CURVE ( 'NONE', #505, #919, #667, .T. ) ;
#732 = ORIENTED_EDGE ( 'NONE', *, *, #24, .F. ) ;
#733 = LINE ( 'NONE', #384, #926 ) ;
#734 = CLOSED_SHELL ( 'NONE', ( #140, #343, #600, #215, #6, #447, #163, #606, #746, #904, #575, #37, #865, #234, #585, #132, #685, #483, #843, #94, #761, #740, #254, #274, #680, #882 ) ) ;
#735 = AXIS2_PLACEMENT_3D ( 'NONE', #379, #16, #875 ) ;
#736 = AXIS2_PLACEMENT_3D ( 'NONE', #283, #334, #190 ) ;
#737 = CARTESIAN_POINT ( 'NONE',  ( 836.8356030506816978, 819.1143000505810505, 8.000000000000000000 ) ) ;
#738 = APPROVAL ( #917, 'UNSPECIFIED' ) ;
#739 = ORIENTED_EDGE ( 'NONE', *, *, #564, .F. ) ;
#740 = ADVANCED_FACE ( 'NONE', ( #228 ), #317, .F. ) ;
#741 = CYLINDRICAL_SURFACE ( 'NONE', #399, 2.199999999999979750 ) ;
#742 = PERSON_AND_ORGANIZATION_ROLE ( 'design_supplier' ) ;
#743 = CYLINDRICAL_SURFACE ( 'NONE', #127, 6.000000000000005329 ) ;
#744 = ORIENTED_EDGE ( 'NONE', *, *, #154, .F. ) ;
#745 = CARTESIAN_POINT ( 'NONE',  ( 608.8356030506816978, 715.1143000505812779, 0.000000000000000000 ) ) ;
#746 = ADVANCED_FACE ( 'NONE', ( #4, #878, #23 ), #800, .F. ) ;
#747 = DIRECTION ( 'NONE',  ( -0.000000000000000000, -0.000000000000000000, -1.000000000000000000 ) ) ;
#748 = EDGE_LOOP ( 'NONE', ( #584, #792, #589, #353 ) ) ;
#749 = CARTESIAN_POINT ( 'NONE',  ( 830.8356030506816978, 819.1143000505810505, 0.000000000000000000 ) ) ;
#750 = VECTOR ( 'NONE', #307, 1000.000000000000000 ) ;
#751 = AXIS2_PLACEMENT_3D ( 'NONE', #441, #868, #719 ) ;
#752 = CALENDAR_DATE ( 2026, 19, 8 ) ;
#753 = CARTESIAN_POINT ( 'NONE',  ( 829.5356030506817433, 744.6143000505812779, 0.000000000000000000 ) ) ;
#754 = CC_DESIGN_APPROVAL ( #791, ( #555 ) ) ;
#755 = ORIENTED_EDGE ( 'NONE', *, *, #545, .T. ) ;
#756 = FACE_BOUND ( 'NONE', #422, .T. ) ;
#757 = DIRECTION ( 'NONE',  ( -0.000000000000000000, -0.000000000000000000, -1.000000000000000000 ) ) ;
#758 = ORIENTED_EDGE ( 'NONE', *, *, #691, .F. ) ;
#759 = CARTESIAN_POINT ( 'NONE',  ( 836.8356030506816978, 819.1143000505810505, 8.000000000000000000 ) ) ;
#760 = DIRECTION ( 'NONE',  ( -1.000000000000000000, 0.000000000000000000, 0.000000000000000000 ) ) ;
#761 = ADVANCED_FACE ( 'NONE', ( #590 ), #889, .F. ) ;
#762 = ORIENTED_EDGE ( 'NONE', *, *, #545, .F. ) ;
#763 = DIRECTION ( 'NONE',  ( -0.000000000000000000, -0.000000000000000000, -1.000000000000000000 ) ) ;
#764 = PRODUCT ( 'BaseAlum_8mm', 'BaseAlum_8mm', '', ( #221 ) ) ;
#765 = AXIS2_PLACEMENT_3D ( 'NONE', #36, #409, #824 ) ;
#766 = CARTESIAN_POINT ( 'NONE',  ( 618.3356030506816978, 787.4143000505813461, 8.000000000000000000 ) ) ;
#767 = VECTOR ( 'NONE', #485, 1000.000000000000000 ) ;
#768 = EDGE_LOOP ( 'NONE', ( #852, #614, #550, #427 ) ) ;
#769 = APPROVAL_PERSON_ORGANIZATION ( #375, #703, #709 ) ;
#770 = DIRECTION ( 'NONE',  ( -1.000000000000000000, 0.000000000000000000, 0.000000000000000000 ) ) ;
#771 = ORIENTED_EDGE ( 'NONE', *, *, #154, .T. ) ;
#772 = ORIENTED_EDGE ( 'NONE', *, *, #793, .F. ) ;
#773 = EDGE_CURVE ( 'NONE', #698, #469, #617, .T. ) ;
#774 = CARTESIAN_POINT ( 'NONE',  ( 618.3356030506816978, 746.8143000505812097, 10.00000000000000000 ) ) ;
#775 = ORIENTED_EDGE ( 'NONE', *, *, #294, .T. ) ;
#776 = ORIENTED_EDGE ( 'NONE', *, *, #402, .T. ) ;
#777 = LINE ( 'NONE', #774, #501 ) ;
#778 = LINE ( 'NONE', #165, #460 ) ;
#779 = ORIENTED_EDGE ( 'NONE', *, *, #712, .F. ) ;
#780 = AXIS2_PLACEMENT_3D ( 'NONE', #397, #893, #902 ) ;
#781 = AXIS2_PLACEMENT_3D ( 'NONE', #373, #593, #881 ) ;
#782 = EDGE_LOOP ( 'NONE', ( #346, #707, #762, #419 ) ) ;
#783 = LOCAL_TIME ( 10, 20, 59.00000000000000000, #80 ) ;
#784 = CARTESIAN_POINT ( 'NONE',  ( 827.3356030506818115, 746.8143000505812097, 0.000000000000000000 ) ) ;
#785 = EDGE_CURVE ( 'NONE', #490, #336, #892, .T. ) ;
#786 = CARTESIAN_POINT ( 'NONE',  ( 614.8356030506816978, 709.1143000505812779, 8.000000000000000000 ) ) ;
#787 = EDGE_LOOP ( 'NONE', ( #359, #577, #531, #825 ) ) ;
#788 = CARTESIAN_POINT ( 'NONE',  ( 614.8356030506816978, 825.1143000505810505, 8.000000000000000000 ) ) ;
#789 = PERSON_AND_ORGANIZATION_ROLE ( 'creator' ) ;
#790 = ORIENTED_EDGE ( 'NONE', *, *, #102, .T. ) ;
#791 = APPROVAL ( #25, 'UNSPECIFIED' ) ;
#792 = ORIENTED_EDGE ( 'NONE', *, *, #579, .T. ) ;
#793 = EDGE_CURVE ( 'NONE', #56, #693, #481, .T. ) ;
#794 = APPLICATION_CONTEXT ( 'configuration controlled 3d designs of mechanical parts and assemblies' ) ;
#795 = PERSON_AND_ORGANIZATION_ROLE ( 'design_owner' ) ;
#796 = DIRECTION ( 'NONE',  ( -0.000000000000000000, -0.000000000000000000, -1.000000000000000000 ) ) ;
#797 = EDGE_LOOP ( 'NONE', ( #82, #705, #309, #106 ) ) ;
#798 = VECTOR ( 'NONE', #605, 1000.000000000000000 ) ;
#799 = AXIS2_PLACEMENT_3D ( 'NONE', #650, #310, #596 ) ;
#800 = PLANE ( 'NONE',  #250 ) ;
#801 = LOCAL_TIME ( 10, 20, 59.00000000000000000, #312 ) ;
#802 = CARTESIAN_POINT ( 'NONE',  ( 830.8356030506816978, 709.1143000505812779, 8.000000000000000000 ) ) ;
#803 = CARTESIAN_POINT ( 'NONE',  ( 614.8356030506816978, 825.1143000505810505, 0.000000000000000000 ) ) ;
#804 = DIRECTION ( 'NONE',  ( -1.000000000000000000, -0.000000000000000000, -0.000000000000000000 ) ) ;
#805 = ORIENTED_EDGE ( 'NONE', *, *, #507, .T. ) ;
#806 = DIRECTION ( 'NONE',  ( -0.000000000000000000, -0.000000000000000000, -1.000000000000000000 ) ) ;
#807 = EDGE_CURVE ( 'NONE', #291, #927, #885, .T. ) ;
#808 = CYLINDRICAL_SURFACE ( 'NONE', #192, 2.199999999999979750 ) ;
#809 = FACE_OUTER_BOUND ( 'NONE', #877, .T. ) ;
#810 = VERTEX_POINT ( 'NONE', #543 ) ;
#811 = CARTESIAN_POINT ( 'NONE',  ( 829.5356030506817433, 789.6143000505812779, 0.000000000000000000 ) ) ;
#812 = DIRECTION ( 'NONE',  ( 1.000000000000000000, 0.000000000000000000, 0.000000000000000000 ) ) ;
#813 = ORIENTED_EDGE ( 'NONE', *, *, #724, .T. ) ;
#814 = DIRECTION ( 'NONE',  ( -0.000000000000000000, -0.000000000000000000, -1.000000000000000000 ) ) ;
#815 = AXIS2_PLACEMENT_3D ( 'NONE', #11, #812, #665 ) ;
#816 = CIRCLE ( 'NONE', #799, 2.199999999999979750 ) ;
#817 = CARTESIAN_POINT ( 'NONE',  ( 608.8356030506816978, 819.1143000505810505, 8.000000000000000000 ) ) ;
#818 = EDGE_CURVE ( 'NONE', #259, #226, #347, .T. ) ;
#819 = VERTEX_POINT ( 'NONE', #831 ) ;
#820 = DIRECTION ( 'NONE',  ( -0.000000000000000000, -0.000000000000000000, -1.000000000000000000 ) ) ;
#821 = DIRECTION ( 'NONE',  ( -0.000000000000000000, -0.000000000000000000, -1.000000000000000000 ) ) ;
#822 = VERTEX_POINT ( 'NONE', #186 ) ;
#823 = CYLINDRICAL_SURFACE ( 'NONE', #160, 2.199999999999979750 ) ;
#824 = DIRECTION ( 'NONE',  ( 0.000000000000000000, 0.000000000000000000, -1.000000000000000000 ) ) ;
#825 = ORIENTED_EDGE ( 'NONE', *, *, #532, .F. ) ;
#826 = CARTESIAN_POINT ( 'NONE',  ( 614.8356030506816978, 709.1143000505812779, 0.000000000000000000 ) ) ;
#827 = VECTOR ( 'NONE', #557, 1000.000000000000000 ) ;
#828 = CARTESIAN_POINT ( 'NONE',  ( 616.1356030506817660, 787.4143000505813461, 8.000000000000000000 ) ) ;
#829 = APPROVAL_PERSON_ORGANIZATION ( #323, #791, #599 ) ;
#830 = ORIENTED_EDGE ( 'NONE', *, *, #478, .F. ) ;
#831 = CARTESIAN_POINT ( 'NONE',  ( 616.1356030506817660, 744.6143000505812779, 0.000000000000000000 ) ) ;
#832 = FACE_OUTER_BOUND ( 'NONE', #524, .T. ) ;
#833 = EDGE_CURVE ( 'NONE', #517, #700, #39, .T. ) ;
#834 = EDGE_LOOP ( 'NONE', ( #607, #153, #194, #348 ) ) ;
#835 = DIRECTION ( 'NONE',  ( -1.110223024625278921E-12, -1.000000000000000000, 0.000000000000000000 ) ) ;
#836 = LINE ( 'NONE', #119, #597 ) ;
#837 = EDGE_CURVE ( 'NONE', #512, #653, #476, .T. ) ;
#838 = VERTEX_POINT ( 'NONE', #686 ) ;
#839 = CIRCLE ( 'NONE', #29, 2.199999999999979750 ) ;
#840 = CARTESIAN_POINT ( 'NONE',  ( 614.8356030506816978, 709.1143000505812779, 8.000000000000000000 ) ) ;
#841 = VECTOR ( 'NONE', #489, 1000.000000000000000 ) ;
#842 = LINE ( 'NONE', #60, #423 ) ;
#843 = ADVANCED_FACE ( 'NONE', ( #536 ), #122, .F. ) ;
#844 = AXIS2_PLACEMENT_3D ( 'NONE', #661, #371, #464 ) ;
#845 = DIRECTION ( 'NONE',  ( 0.000000000000000000, -0.000000000000000000, -1.000000000000000000 ) ) ;
#846 = ORIENTED_EDGE ( 'NONE', *, *, #618, .F. ) ;
#847 = CC_DESIGN_PERSON_AND_ORGANIZATION_ASSIGNMENT ( #426, #789, ( #214 ) ) ;
#848 = ORIENTED_EDGE ( 'NONE', *, *, #285, .F. ) ;
#849 = LINE ( 'NONE', #282, #644 ) ;
#850 = PERSON_AND_ORGANIZATION ( #199, #616 ) ;
#851 = CARTESIAN_POINT ( 'NONE',  ( 827.3356030506818115, 787.4143000505813461, 8.000000000000000000 ) ) ;
#852 = ORIENTED_EDGE ( 'NONE', *, *, #206, .T. ) ;
#853 = EDGE_CURVE ( 'NONE', #148, #662, #195, .T. ) ;
#854 = ORIENTED_EDGE ( 'NONE', *, *, #433, .T. ) ;
#855 = AXIS2_PLACEMENT_3D ( 'NONE', #682, #112, #338 ) ;
#856 = CIRCLE ( 'NONE', #658, 2.199999999999979750 ) ;
#857 = ORIENTED_EDGE ( 'NONE', *, *, #316, .T. ) ;
#858 = EDGE_CURVE ( 'NONE', #454, #499, #341, .T. ) ;
#859 = FACE_OUTER_BOUND ( 'NONE', #134, .T. ) ;
#860 = DIRECTION ( 'NONE',  ( -0.000000000000000000, 0.000000000000000000, -1.000000000000000000 ) ) ;
#861 = ORIENTED_EDGE ( 'NONE', *, *, #646, .F. ) ;
#862 = VERTEX_POINT ( 'NONE', #533 ) ;
#863 = CARTESIAN_POINT ( 'NONE',  ( 613.8356030506816978, 746.8143000505812097, 8.000000000000000000 ) ) ;
#864 = CARTESIAN_POINT ( 'NONE',  ( 616.0356030506817433, 789.6143000505812779, 8.000000000000000000 ) ) ;
#865 = ADVANCED_FACE ( 'NONE', ( #107 ), #823, .F. ) ;
#866 = ORIENTED_EDGE ( 'NONE', *, *, #135, .F. ) ;
#867 = DIRECTION ( 'NONE',  ( -0.000000000000000000, -0.000000000000000000, -1.000000000000000000 ) ) ;
#868 = DIRECTION ( 'NONE',  ( 0.000000000000000000, 0.000000000000000000, 1.000000000000000000 ) ) ;
#869 = DIRECTION ( 'NONE',  ( 1.000000000000000000, 0.000000000000000000, 0.000000000000000000 ) ) ;
#870 = DIRECTION ( 'NONE',  ( 0.000000000000000000, 0.000000000000000000, 1.000000000000000000 ) ) ;
#871 = ORIENTED_EDGE ( 'NONE', *, *, #773, .T. ) ;
#872 = AXIS2_PLACEMENT_3D ( 'NONE', #828, #747, #193 ) ;
#873 = EDGE_CURVE ( 'NONE', #693, #662, #442, .T. ) ;
#874 = DIRECTION ( 'NONE',  ( -1.000000000000000000, 0.000000000000000000, 0.000000000000000000 ) ) ;
#875 = DIRECTION ( 'NONE',  ( -1.000000000000000000, 0.000000000000000000, 0.000000000000000000 ) ) ;
#876 = LINE ( 'NONE', #817, #229 ) ;
#877 = EDGE_LOOP ( 'NONE', ( #910, #272, #727, #319 ) ) ;
#878 = FACE_BOUND ( 'NONE', #484, .T. ) ;
#879 = CARTESIAN_POINT ( 'NONE',  ( 616.0356030506817433, 744.6143000505813916, 10.00000000000000000 ) ) ;
#880 = ORIENTED_EDGE ( 'NONE', *, *, #242, .T. ) ;
#881 = DIRECTION ( 'NONE',  ( 0.000000000000000000, 0.000000000000000000, 1.000000000000000000 ) ) ;
#882 = ADVANCED_FACE ( 'NONE', ( #548 ), #608, .F. ) ;
#883 = PLANE ( 'NONE',  #57 ) ;
#884 = ORIENTED_EDGE ( 'NONE', *, *, #247, .T. ) ;
#885 = CIRCLE ( 'NONE', #202, 2.199999999999979750 ) ;
#886 = PERSON_AND_ORGANIZATION ( #199, #616 ) ;
#887 = FACE_OUTER_BOUND ( 'NONE', #219, .T. ) ;
#888 = ORIENTED_EDGE ( 'NONE', *, *, #663, .T. ) ;
#889 = CYLINDRICAL_SURFACE ( 'NONE', #855, 2.199999999999979750 ) ;
#890 = CARTESIAN_POINT ( 'NONE',  ( 616.1356030506817660, 789.6143000505812779, 0.000000000000000000 ) ) ;
#891 = ORIENTED_EDGE ( 'NONE', *, *, #724, .F. ) ;
#892 = LINE ( 'NONE', #895, #456 ) ;
#893 = DIRECTION ( 'NONE',  ( -1.000000000000000000, 0.000000000000000000, 0.000000000000000000 ) ) ;
#894 = ORIENTED_EDGE ( 'NONE', *, *, #44, .F. ) ;
#895 = CARTESIAN_POINT ( 'NONE',  ( 616.1356030506817660, 789.6143000505812779, 0.000000000000000000 ) ) ;
#896 = EDGE_CURVE ( 'NONE', #377, #474, #50, .T. ) ;
#897 = VECTOR ( 'NONE', #362, 1000.000000000000000 ) ;
#898 = DIRECTION ( 'NONE',  ( 1.000000000000000000, 0.000000000000000000, 0.000000000000000000 ) ) ;
#899 = ORIENTED_EDGE ( 'NONE', *, *, #120, .T. ) ;
#900 = CARTESIAN_POINT ( 'NONE',  ( 829.6356030506817660, 789.6143000505812779, 10.00000000000000000 ) ) ;
#901 = EDGE_CURVE ( 'NONE', #474, #101, #251, .T. ) ;
#902 = DIRECTION ( 'NONE',  ( 0.000000000000000000, 0.000000000000000000, 1.000000000000000000 ) ) ;
#903 = ORIENTED_EDGE ( 'NONE', *, *, #247, .F. ) ;
#904 = ADVANCED_FACE ( 'NONE', ( #477, #756, #405 ), #431, .T. ) ;
#905 = DIRECTION ( 'NONE',  ( 1.000000000000000000, 0.000000000000000000, 0.000000000000000000 ) ) ;
#906 = ORIENTED_EDGE ( 'NONE', *, *, #102, .F. ) ;
#907 = VECTOR ( 'NONE', #804, 1000.000000000000000 ) ;
#908 = DIRECTION ( 'NONE',  ( -0.000000000000000000, -0.000000000000000000, -1.000000000000000000 ) ) ;
#909 = VECTOR ( 'NONE', #89, 1000.000000000000000 ) ;
#910 = ORIENTED_EDGE ( 'NONE', *, *, #413, .T. ) ;
#911 = LOCAL_TIME ( 10, 20, 59.00000000000000000, #704 ) ;
#912 = ORIENTED_EDGE ( 'NONE', *, *, #51, .F. ) ;
#913 = CARTESIAN_POINT ( 'NONE',  ( 616.1356030506817660, 744.6143000505812779, 10.00000000000000000 ) ) ;
#914 = ORIENTED_EDGE ( 'NONE', *, *, #187, .T. ) ;
#915 = ORIENTED_EDGE ( 'NONE', *, *, #182, .F. ) ;
#916 = LINE ( 'NONE', #210, #475 ) ;
#917 = APPROVAL_STATUS ( 'not_yet_approved' ) ;
#918 = VERTEX_POINT ( 'NONE', #363 ) ;
#919 = VERTEX_POINT ( 'NONE', #803 ) ;
#920 = CYLINDRICAL_SURFACE ( 'NONE', #114, 2.199999999999979750 ) ;
#921 = EDGE_CURVE ( 'NONE', #138, #490, #778, .T. ) ;
#922 = EDGE_CURVE ( 'NONE', #209, #454, #1, .T. ) ;
#923 = CARTESIAN_POINT ( 'NONE',  ( 831.8356030506818115, 746.8143000505812097, 10.00000000000000000 ) ) ;
#924 = VECTOR ( 'NONE', #7, 1000.000000000000000 ) ;
#925 = CARTESIAN_POINT ( 'NONE',  ( 836.8356030506816978, 715.1143000505812779, 0.000000000000000000 ) ) ;
#926 = VECTOR ( 'NONE', #806, 1000.000000000000000 ) ;
#927 = VERTEX_POINT ( 'NONE', #784 ) ;
#928 = CARTESIAN_POINT ( 'NONE',  ( 830.8356030506816978, 715.1143000505812779, 8.000000000000000000 ) ) ;
#929 = EDGE_CURVE ( 'NONE', #918, #56, #302, .T. ) ;
ENDSEC;
END-ISO-10303-21;
