ISO-10303-21;
HEADER;
FILE_DESCRIPTION (( 'STEP AP203' ),
    '1' );
FILE_NAME ('Guia6mmBuje.STEP',
    '2026-08-19T13:11:45',
    ( '' ),
    ( '' ),
    'SwSTEP 2.0',
    'SolidWorks 2026',
    '' );
FILE_SCHEMA (( 'CONFIG_CONTROL_DESIGN' ));
ENDSEC;

DATA;
#1 =( GEOMETRIC_REPRESENTATION_CONTEXT ( 3 ) GLOBAL_UNCERTAINTY_ASSIGNED_CONTEXT ( ( #354 ) ) GLOBAL_UNIT_ASSIGNED_CONTEXT ( ( #318, #137, #58 ) ) REPRESENTATION_CONTEXT ( 'NONE', 'WORKASPACE' ) );
#2 = PERSON_AND_ORGANIZATION ( #5, #156 ) ;
#3 = ORIENTED_EDGE ( 'NONE', *, *, #123, .F. ) ;
#4 = CARTESIAN_POINT ( 'NONE',  ( 0.000000000000000000, 15.00000000000000000, -4.799999999999999822 ) ) ;
#5 = PERSON ( 'UNSPECIFIED', 'UNSPECIFIED', 'UNSPECIFIED', ('UNSPECIFIED'), ('UNSPECIFIED'), ('UNSPECIFIED') ) ;
#6 = COORDINATED_UNIVERSAL_TIME_OFFSET ( 3, 0, .BEHIND. ) ;
#7 = EDGE_CURVE ( 'NONE', #85, #228, #111, .T. ) ;
#8 = CARTESIAN_POINT ( 'NONE',  ( 0.000000000000000000, 0.000000000000000000, -4.799999999999999822 ) ) ;
#9 = AXIS2_PLACEMENT_3D ( 'NONE', #146, #200, #80 ) ;
#10 = DATE_TIME_ROLE ( 'creation_date' ) ;
#11 = CARTESIAN_POINT ( 'NONE',  ( 3.980102097228898231E-16, 12.49999999999999822, -3.250000000000000444 ) ) ;
#12 = APPROVAL_DATE_TIME ( #182, #170 ) ;
#13 = CARTESIAN_POINT ( 'NONE',  ( 4.653657836759942730E-16, 0.2999999999999999334, -3.799999999999999822 ) ) ;
#14 = ORIENTED_EDGE ( 'NONE', *, *, #7, .T. ) ;
#15 = CIRCLE ( 'NONE', #226, 3.500000000000000000 ) ;
#16 = LOCAL_TIME ( 10, 11, 45.00000000000000000, #6 ) ;
#17 = FACE_OUTER_BOUND ( 'NONE', #277, .T. ) ;
#18 = DIRECTION ( 'NONE',  ( 0.000000000000000000, 0.000000000000000000, 1.000000000000000000 ) ) ;
#19 = CARTESIAN_POINT ( 'NONE',  ( 0.000000000000000000, 0.2999999999999999334, 0.000000000000000000 ) ) ;
#20 = EDGE_CURVE ( 'NONE', #228, #85, #84, .T. ) ;
#21 = DIRECTION ( 'NONE',  ( -0.000000000000000000, -1.000000000000000000, -0.000000000000000000 ) ) ;
#22 = AXIS2_PLACEMENT_3D ( 'NONE', #102, #187, #131 ) ;
#23 = DIRECTION ( 'NONE',  ( -0.000000000000000000, -1.000000000000000000, -0.000000000000000000 ) ) ;
#24 = EDGE_CURVE ( 'NONE', #32, #167, #45, .T. ) ;
#25 = VERTEX_POINT ( 'NONE', #300 ) ;
#26 = DIRECTION ( 'NONE',  ( 0.000000000000000000, 0.000000000000000000, -1.000000000000000000 ) ) ;
#27 = VERTEX_POINT ( 'NONE', #4 ) ;
#28 = AXIS2_PLACEMENT_3D ( 'NONE', #222, #155, #160 ) ;
#29 = DIRECTION ( 'NONE',  ( -0.000000000000000000, -1.000000000000000000, -0.000000000000000000 ) ) ;
#30 = ORIENTED_EDGE ( 'NONE', *, *, #238, .F. ) ;
#31 = DIRECTION ( 'NONE',  ( 0.000000000000000000, -0.000000000000000000, 1.000000000000000000 ) ) ;
#32 = VERTEX_POINT ( 'NONE', #179 ) ;
#33 = PERSON_AND_ORGANIZATION ( #5, #156 ) ;
#34 = CIRCLE ( 'NONE', #152, 3.250000000000000444 ) ;
#35 = ORIENTED_EDGE ( 'NONE', *, *, #256, .T. ) ;
#36 = ADVANCED_FACE ( 'NONE', ( #116, #275 ), #71, .F. ) ;
#37 = DIRECTION ( 'NONE',  ( 0.000000000000000000, 1.000000000000000000, 0.000000000000000000 ) ) ;
#38 = DIRECTION ( 'NONE',  ( 0.000000000000000000, 1.000000000000000000, 0.000000000000000000 ) ) ;
#39 = PERSON_AND_ORGANIZATION_ROLE ( 'classification_officer' ) ;
#40 = CARTESIAN_POINT ( 'NONE',  ( 0.000000000000000000, 12.49999999999999822, 3.250000000000000444 ) ) ;
#41 = EDGE_CURVE ( 'NONE', #27, #25, #299, .T. ) ;
#42 = COORDINATED_UNIVERSAL_TIME_OFFSET ( 3, 0, .BEHIND. ) ;
#43 = ORIENTED_EDGE ( 'NONE', *, *, #238, .T. ) ;
#44 = CARTESIAN_POINT ( 'NONE',  ( 4.286263797015736595E-16, 0.2999999999999999334, 3.500000000000000000 ) ) ;
#45 = CIRCLE ( 'NONE', #132, 0.3000000000000003775 ) ;
#46 = CYLINDRICAL_SURFACE ( 'NONE', #342, 3.500000000000000000 ) ;
#47 = CARTESIAN_POINT ( 'NONE',  ( 5.878304635907294211E-16, 15.00000000000000000, 4.799999999999999822 ) ) ;
#48 = FACE_OUTER_BOUND ( 'NONE', #59, .T. ) ;
#49 = LINE ( 'NONE', #76, #171 ) ;
#50 = AXIS2_PLACEMENT_3D ( 'NONE', #177, #37, #60 ) ;
#51 = CC_DESIGN_APPROVAL ( #220, ( #280 ) ) ;
#52 = EDGE_CURVE ( 'NONE', #167, #169, #79, .T. ) ;
#53 = FACE_OUTER_BOUND ( 'NONE', #145, .T. ) ;
#54 = ORIENTED_EDGE ( 'NONE', *, *, #135, .F. ) ;
#55 = APPROVAL_STATUS ( 'not_yet_approved' ) ;
#56 = VERTEX_POINT ( 'NONE', #90 ) ;
#57 = APPROVAL ( #55, 'UNSPECIFIED' ) ;
#58 =( NAMED_UNIT ( * ) SI_UNIT ( $, .STERADIAN. ) SOLID_ANGLE_UNIT ( ) );
#59 = EDGE_LOOP ( 'NONE', ( #69, #324, #288, #138 ) ) ;
#60 = DIRECTION ( 'NONE',  ( 0.000000000000000000, 0.000000000000000000, 1.000000000000000000 ) ) ;
#61 = ADVANCED_FACE ( 'NONE', ( #96 ), #205, .F. ) ;
#62 = AXIS2_PLACEMENT_3D ( 'NONE', #282, #130, #159 ) ;
#63 = APPROVAL_PERSON_ORGANIZATION ( #227, #57, #327 ) ;
#64 = DATE_AND_TIME ( #121, #120 ) ;
#65 = DIRECTION ( 'NONE',  ( 0.000000000000000000, 0.000000000000000000, 1.000000000000000000 ) ) ;
#66 = CALENDAR_DATE ( 2026, 19, 8 ) ;
#67 = ORIENTED_EDGE ( 'NONE', *, *, #128, .T. ) ;
#68 = DATE_AND_TIME ( #113, #199 ) ;
#69 = ORIENTED_EDGE ( 'NONE', *, *, #370, .F. ) ;
#70 = AXIS2_PLACEMENT_3D ( 'NONE', #19, #99, #340 ) ;
#71 = PLANE ( 'NONE',  #351 ) ;
#72 = CARTESIAN_POINT ( 'NONE',  ( 0.000000000000000000, -2.710505431213761085E-17, 3.799999999999999822 ) ) ;
#73 = CARTESIAN_POINT ( 'NONE',  ( 3.980102097228898231E-16, 15.00000000000000000, -3.250000000000000444 ) ) ;
#74 = EDGE_CURVE ( 'NONE', #27, #81, #211, .T. ) ;
#75 = CIRCLE ( 'NONE', #28, 0.3000000000000003775 ) ;
#76 = CARTESIAN_POINT ( 'NONE',  ( 4.286263797015736595E-16, 15.00000000000000000, 3.500000000000000000 ) ) ;
#77 = DIRECTION ( 'NONE',  ( 0.000000000000000000, 1.000000000000000000, 0.000000000000000000 ) ) ;
#78 = DIRECTION ( 'NONE',  ( 0.000000000000000000, -0.000000000000000000, 1.000000000000000000 ) ) ;
#79 = CIRCLE ( 'NONE', #104, 3.799999999999999822 ) ;
#80 = DIRECTION ( 'NONE',  ( 0.000000000000000000, 0.000000000000000000, 1.000000000000000000 ) ) ;
#81 = VERTEX_POINT ( 'NONE', #8 ) ;
#82 = CARTESIAN_POINT ( 'NONE',  ( 0.000000000000000000, 15.00000000000000000, 0.000000000000000000 ) ) ;
#83 = CC_DESIGN_PERSON_AND_ORGANIZATION_ASSIGNMENT ( #352, #346, ( #93 ) ) ;
#84 = CIRCLE ( 'NONE', #50, 3.500000000000000000 ) ;
#85 = VERTEX_POINT ( 'NONE', #118 ) ;
#86 = DIRECTION ( 'NONE',  ( -0.000000000000000000, -1.000000000000000000, -0.000000000000000000 ) ) ;
#87 = ORIENTED_EDGE ( 'NONE', *, *, #100, .T. ) ;
#88 = EDGE_CURVE ( 'NONE', #338, #203, #94, .T. ) ;
#89 = ORIENTED_EDGE ( 'NONE', *, *, #150, .T. ) ;
#90 = CARTESIAN_POINT ( 'NONE',  ( 5.878304635907294211E-16, 0.000000000000000000, 4.799999999999999822 ) ) ;
#91 = CIRCLE ( 'NONE', #279, 3.500000000000000000 ) ;
#92 = LINE ( 'NONE', #245, #357 ) ;
#93 = PRODUCT ( 'Guia6mmBuje', 'Guia6mmBuje', '', ( #234 ) ) ;
#94 = LINE ( 'NONE', #11, #147 ) ;
#95 = PERSON_AND_ORGANIZATION ( #5, #156 ) ;
#96 = FACE_OUTER_BOUND ( 'NONE', #201, .T. ) ;
#97 = AXIS2_PLACEMENT_3D ( 'NONE', #361, #305, #336 ) ;
#98 = CARTESIAN_POINT ( 'NONE',  ( 4.653657836759942730E-16, -2.710505431213761085E-17, -3.799999999999999822 ) ) ;
#99 = DIRECTION ( 'NONE',  ( 0.000000000000000000, 1.000000000000000000, 0.000000000000000000 ) ) ;
#100 = EDGE_CURVE ( 'NONE', #112, #380, #122, .T. ) ;
#101 = DIRECTION ( 'NONE',  ( 0.000000000000000000, 0.000000000000000000, 1.000000000000000000 ) ) ;
#102 = CARTESIAN_POINT ( 'NONE',  ( 0.000000000000000000, 0.000000000000000000, 0.000000000000000000 ) ) ;
#103 = FACE_OUTER_BOUND ( 'NONE', #347, .T. ) ;
#104 = AXIS2_PLACEMENT_3D ( 'NONE', #355, #333, #125 ) ;
#105 = ORIENTED_EDGE ( 'NONE', *, *, #281, .T. ) ;
#106 = FACE_OUTER_BOUND ( 'NONE', #263, .T. ) ;
#107 = CARTESIAN_POINT ( 'NONE',  ( 0.000000000000000000, 15.00000000000000000, 0.000000000000000000 ) ) ;
#108 = ORIENTED_EDGE ( 'NONE', *, *, #256, .F. ) ;
#109 = DESIGN_CONTEXT ( 'detailed design', #181, 'design' ) ;
#110 = DIRECTION ( 'NONE',  ( 0.000000000000000000, 1.000000000000000000, 0.000000000000000000 ) ) ;
#111 = CIRCLE ( 'NONE', #204, 3.500000000000000000 ) ;
#112 = VERTEX_POINT ( 'NONE', #40 ) ;
#113 = CALENDAR_DATE ( 2026, 19, 8 ) ;
#114 = ORIENTED_EDGE ( 'NONE', *, *, #370, .T. ) ;
#115 = APPROVAL_ROLE ( '' ) ;
#116 = FACE_BOUND ( 'NONE', #143, .T. ) ;
#117 = CALENDAR_DATE ( 2026, 19, 8 ) ;
#118 = CARTESIAN_POINT ( 'NONE',  ( 0.000000000000000000, 12.49999999999999822, -3.500000000000000000 ) ) ;
#119 = AXIS2_PLACEMENT_3D ( 'NONE', #341, #366, #78 ) ;
#120 = LOCAL_TIME ( 10, 11, 45.00000000000000000, #42 ) ;
#121 = CALENDAR_DATE ( 2026, 19, 8 ) ;
#122 = LINE ( 'NONE', #307, #260 ) ;
#123 = EDGE_CURVE ( 'NONE', #85, #32, #92, .T. ) ;
#124 = PERSON_AND_ORGANIZATION_ROLE ( 'creator' ) ;
#125 = DIRECTION ( 'NONE',  ( 0.000000000000000000, 0.000000000000000000, 1.000000000000000000 ) ) ;
#126 = DIRECTION ( 'NONE',  ( 1.000000000000000000, -0.000000000000000000, 1.224646799147353207E-16 ) ) ;
#127 = AXIS2_PLACEMENT_3D ( 'NONE', #284, #283, #315 ) ;
#128 = EDGE_CURVE ( 'NONE', #380, #203, #190, .T. ) ;
#129 = FACE_BOUND ( 'NONE', #154, .T. ) ;
#130 = DIRECTION ( 'NONE',  ( 0.000000000000000000, 1.000000000000000000, 0.000000000000000000 ) ) ;
#131 = DIRECTION ( 'NONE',  ( 0.000000000000000000, 0.000000000000000000, 1.000000000000000000 ) ) ;
#132 = AXIS2_PLACEMENT_3D ( 'NONE', #13, #126, #172 ) ;
#133 = PRODUCT_DEFINITION_FORMATION_WITH_SPECIFIED_SOURCE ( 'ANY', '', #93, .NOT_KNOWN. ) ;
#134 = DIRECTION ( 'NONE',  ( -0.000000000000000000, -1.000000000000000000, -0.000000000000000000 ) ) ;
#135 = EDGE_CURVE ( 'NONE', #25, #56, #189, .T. ) ;
#136 = CARTESIAN_POINT ( 'NONE',  ( 0.000000000000000000, 15.00000000000000000, 0.000000000000000000 ) ) ;
#137 =( NAMED_UNIT ( * ) PLANE_ANGLE_UNIT ( ) SI_UNIT ( $, .RADIAN. ) );
#138 = ORIENTED_EDGE ( 'NONE', *, *, #223, .F. ) ;
#139 = EDGE_CURVE ( 'NONE', #169, #167, #331, .T. ) ;
#140 = DIRECTION ( 'NONE',  ( 0.000000000000000000, 0.000000000000000000, 1.000000000000000000 ) ) ;
#141 = CIRCLE ( 'NONE', #217, 3.250000000000000444 ) ;
#142 = DIRECTION ( 'NONE',  ( 0.000000000000000000, 0.000000000000000000, -1.000000000000000000 ) ) ;
#143 = EDGE_LOOP ( 'NONE', ( #378, #43 ) ) ;
#144 = CARTESIAN_POINT ( 'NONE',  ( 0.000000000000000000, 0.000000000000000000, 0.000000000000000000 ) ) ;
#145 = EDGE_LOOP ( 'NONE', ( #293, #266 ) ) ;
#146 = CARTESIAN_POINT ( 'NONE',  ( 0.000000000000000000, 12.49999999999999822, 0.000000000000000000 ) ) ;
#147 = VECTOR ( 'NONE', #38, 1000.000000000000000 ) ;
#148 = DIRECTION ( 'NONE',  ( 0.000000000000000000, 1.000000000000000000, 0.000000000000000000 ) ) ;
#149 = DIRECTION ( 'NONE',  ( 0.000000000000000000, -0.000000000000000000, 1.000000000000000000 ) ) ;
#150 = EDGE_CURVE ( 'NONE', #81, #56, #375, .T. ) ;
#151 = ORIENTED_EDGE ( 'NONE', *, *, #135, .T. ) ;
#152 = AXIS2_PLACEMENT_3D ( 'NONE', #251, #371, #308 ) ;
#153 = EDGE_LOOP ( 'NONE', ( #362, #232, #87, #67 ) ) ;
#154 = EDGE_LOOP ( 'NONE', ( #237, #350 ) ) ;
#155 = DIRECTION ( 'NONE',  ( -1.000000000000000000, 0.000000000000000000, 0.000000000000000000 ) ) ;
#156 = ORGANIZATION ( 'UNSPECIFIED', 'UNSPECIFIED', '' ) ;
#157 = CARTESIAN_POINT ( 'NONE',  ( 0.000000000000000000, 15.00000000000000000, 0.000000000000000000 ) ) ;
#158 = CARTESIAN_POINT ( 'NONE',  ( 0.000000000000000000, 12.49999999999999822, 0.000000000000000000 ) ) ;
#159 = DIRECTION ( 'NONE',  ( 0.000000000000000000, 0.000000000000000000, 1.000000000000000000 ) ) ;
#160 = DIRECTION ( 'NONE',  ( 0.000000000000000000, 0.000000000000000000, 1.000000000000000000 ) ) ;
#161 = DIRECTION ( 'NONE',  ( 0.000000000000000000, 1.000000000000000000, 0.000000000000000000 ) ) ;
#162 = ORIENTED_EDGE ( 'NONE', *, *, #139, .T. ) ;
#163 = EDGE_LOOP ( 'NONE', ( #162, #270 ) ) ;
#164 = CARTESIAN_POINT ( 'NONE',  ( 0.000000000000000000, 12.49999999999999822, 0.000000000000000000 ) ) ;
#165 = AXIS2_PLACEMENT_3D ( 'NONE', #158, #278, #18 ) ;
#166 = APPROVAL_PERSON_ORGANIZATION ( #95, #220, #115 ) ;
#167 = VERTEX_POINT ( 'NONE', #98 ) ;
#168 = CALENDAR_DATE ( 2026, 19, 8 ) ;
#169 = VERTEX_POINT ( 'NONE', #72 ) ;
#170 = APPROVAL ( #173, 'UNSPECIFIED' ) ;
#171 = VECTOR ( 'NONE', #23, 1000.000000000000000 ) ;
#172 = DIRECTION ( 'NONE',  ( 1.224646799147351482E-16, 0.000000000000000000, -1.000000000000000000 ) ) ;
#173 = APPROVAL_STATUS ( 'not_yet_approved' ) ;
#174 = ORIENTED_EDGE ( 'NONE', *, *, #100, .F. ) ;
#175 = EDGE_CURVE ( 'NONE', #25, #27, #225, .T. ) ;
#176 = PERSON_AND_ORGANIZATION ( #5, #156 ) ;
#177 = CARTESIAN_POINT ( 'NONE',  ( 0.000000000000000000, 12.49999999999999822, 0.000000000000000000 ) ) ;
#178 = PERSON_AND_ORGANIZATION ( #5, #156 ) ;
#179 = CARTESIAN_POINT ( 'NONE',  ( 0.000000000000000000, 0.2999999999999999334, -3.500000000000000000 ) ) ;
#180 = AXIS2_PLACEMENT_3D ( 'NONE', #255, #310, #101 ) ;
#181 = APPLICATION_CONTEXT ( 'configuration controlled 3d designs of mechanical parts and assemblies' ) ;
#182 = DATE_AND_TIME ( #66, #261 ) ;
#183 = DIRECTION ( 'NONE',  ( -0.000000000000000000, -1.000000000000000000, -0.000000000000000000 ) ) ;
#184 = EDGE_CURVE ( 'NONE', #203, #380, #34, .T. ) ;
#185 = DIRECTION ( 'NONE',  ( 0.000000000000000000, 0.000000000000000000, -1.000000000000000000 ) ) ;
#186 = CARTESIAN_POINT ( 'NONE',  ( 0.000000000000000000, 15.00000000000000000, 0.000000000000000000 ) ) ;
#187 = DIRECTION ( 'NONE',  ( 0.000000000000000000, 1.000000000000000000, 0.000000000000000000 ) ) ;
#188 = EDGE_CURVE ( 'NONE', #56, #81, #233, .T. ) ;
#189 = LINE ( 'NONE', #47, #197 ) ;
#190 = CIRCLE ( 'NONE', #325, 3.250000000000000444 ) ;
#191 = APPLICATION_CONTEXT ( 'configuration controlled 3d designs of mechanical parts and assemblies' ) ;
#192 = CARTESIAN_POINT ( 'NONE',  ( 3.980102097228898231E-16, 12.49999999999999822, -3.250000000000000444 ) ) ;
#193 = APPLICATION_PROTOCOL_DEFINITION ( 'international standard', 'config_control_design', 1994, #181 ) ;
#194 = ORIENTED_EDGE ( 'NONE', *, *, #52, .F. ) ;
#195 = DIRECTION ( 'NONE',  ( -0.000000000000000000, -1.000000000000000000, -0.000000000000000000 ) ) ;
#196 = ORIENTED_EDGE ( 'NONE', *, *, #20, .F. ) ;
#197 = VECTOR ( 'NONE', #134, 1000.000000000000000 ) ;
#198 = DIRECTION ( 'NONE',  ( 0.000000000000000000, 0.000000000000000000, 1.000000000000000000 ) ) ;
#199 = LOCAL_TIME ( 10, 11, 45.00000000000000000, #244 ) ;
#200 = DIRECTION ( 'NONE',  ( 0.000000000000000000, 1.000000000000000000, 0.000000000000000000 ) ) ;
#201 = EDGE_LOOP ( 'NONE', ( #30, #249, #209, #174 ) ) ;
#202 = CC_DESIGN_DATE_AND_TIME_ASSIGNMENT ( #68, #306, ( #280 ) ) ;
#203 = VERTEX_POINT ( 'NONE', #73 ) ;
#204 = AXIS2_PLACEMENT_3D ( 'NONE', #272, #148, #358 ) ;
#205 = CYLINDRICAL_SURFACE ( 'NONE', #274, 3.250000000000000444 ) ;
#206 = ADVANCED_FACE ( 'NONE', ( #103 ), #313, .T. ) ;
#207 = DIRECTION ( 'NONE',  ( 0.000000000000000000, 1.000000000000000000, 0.000000000000000000 ) ) ;
#208 = SHAPE_DEFINITION_REPRESENTATION ( #360, #356 ) ;
#209 = ORIENTED_EDGE ( 'NONE', *, *, #184, .T. ) ;
#210 = DATE_AND_TIME ( #117, #16 ) ;
#211 = LINE ( 'NONE', #273, #317 ) ;
#212 = APPROVAL_PERSON_ORGANIZATION ( #176, #170, #301 ) ;
#213 = CARTESIAN_POINT ( 'NONE',  ( 0.000000000000000000, 15.00000000000000000, 0.000000000000000000 ) ) ;
#214 = FACE_OUTER_BOUND ( 'NONE', #290, .T. ) ;
#215 = VERTEX_POINT ( 'NONE', #44 ) ;
#216 = DIRECTION ( 'NONE',  ( 0.000000000000000000, 0.000000000000000000, 1.000000000000000000 ) ) ;
#217 = AXIS2_PLACEMENT_3D ( 'NONE', #164, #110, #140 ) ;
#218 = CC_DESIGN_APPROVAL ( #57, ( #322 ) ) ;
#219 = DIRECTION ( 'NONE',  ( -0.000000000000000000, -1.000000000000000000, -0.000000000000000000 ) ) ;
#220 = APPROVAL ( #236, 'UNSPECIFIED' ) ;
#221 = MANIFOLD_SOLID_BREP ( 'Redondeo1', #267 ) ;
#222 = CARTESIAN_POINT ( 'NONE',  ( 0.000000000000000000, 0.2999999999999999334, 3.799999999999999822 ) ) ;
#223 = EDGE_CURVE ( 'NONE', #215, #169, #75, .T. ) ;
#224 = PLANE ( 'NONE',  #285 ) ;
#225 = CIRCLE ( 'NONE', #345, 4.799999999999999822 ) ;
#226 = AXIS2_PLACEMENT_3D ( 'NONE', #320, #86, #198 ) ;
#227 = PERSON_AND_ORGANIZATION ( #5, #156 ) ;
#228 = VERTEX_POINT ( 'NONE', #257 ) ;
#229 = FACE_BOUND ( 'NONE', #163, .T. ) ;
#230 = ORIENTED_EDGE ( 'NONE', *, *, #223, .T. ) ;
#231 = CYLINDRICAL_SURFACE ( 'NONE', #254, 4.799999999999999822 ) ;
#232 = ORIENTED_EDGE ( 'NONE', *, *, #359, .F. ) ;
#233 = CIRCLE ( 'NONE', #62, 4.799999999999999822 ) ;
#234 = MECHANICAL_CONTEXT ( 'NONE', #191, 'mechanical' ) ;
#235 = ORIENTED_EDGE ( 'NONE', *, *, #7, .F. ) ;
#236 = APPROVAL_STATUS ( 'not_yet_approved' ) ;
#237 = ORIENTED_EDGE ( 'NONE', *, *, #128, .F. ) ;
#238 = EDGE_CURVE ( 'NONE', #338, #112, #311, .T. ) ;
#239 = CARTESIAN_POINT ( 'NONE',  ( 0.000000000000000000, 12.49999999999999822, 0.000000000000000000 ) ) ;
#240 = TOROIDAL_SURFACE ( 'NONE', #70, 3.799999999999999822, 0.2999999999999999889 ) ;
#241 = DIRECTION ( 'NONE',  ( 0.000000000000000000, 1.000000000000000000, 0.000000000000000000 ) ) ;
#242 = CC_DESIGN_PERSON_AND_ORGANIZATION_ASSIGNMENT ( #2, #39, ( #280 ) ) ;
#243 = AXIS2_PLACEMENT_3D ( 'NONE', #258, #294, #373 ) ;
#244 = COORDINATED_UNIVERSAL_TIME_OFFSET ( 3, 0, .BEHIND. ) ;
#245 = CARTESIAN_POINT ( 'NONE',  ( 0.000000000000000000, 15.00000000000000000, -3.500000000000000000 ) ) ;
#246 = PERSON_AND_ORGANIZATION_ROLE ( 'design_supplier' ) ;
#247 = ORIENTED_EDGE ( 'NONE', *, *, #24, .F. ) ;
#248 = PRODUCT_RELATED_PRODUCT_CATEGORY ( 'detail', '', ( #93 ) ) ;
#249 = ORIENTED_EDGE ( 'NONE', *, *, #88, .T. ) ;
#250 = TOROIDAL_SURFACE ( 'NONE', #127, 3.799999999999999822, 0.2999999999999999889 ) ;
#251 = CARTESIAN_POINT ( 'NONE',  ( 0.000000000000000000, 15.00000000000000000, 0.000000000000000000 ) ) ;
#252 = DIRECTION ( 'NONE',  ( -0.000000000000000000, -1.000000000000000000, -0.000000000000000000 ) ) ;
#253 = CC_DESIGN_PERSON_AND_ORGANIZATION_ASSIGNMENT ( #33, #377, ( #322 ) ) ;
#254 = AXIS2_PLACEMENT_3D ( 'NONE', #107, #195, #142 ) ;
#255 = CARTESIAN_POINT ( 'NONE',  ( 0.000000000000000000, 0.000000000000000000, 0.000000000000000000 ) ) ;
#256 = EDGE_CURVE ( 'NONE', #215, #32, #91, .T. ) ;
#257 = CARTESIAN_POINT ( 'NONE',  ( 4.286263797015736595E-16, 12.49999999999999822, 3.500000000000000000 ) ) ;
#258 = CARTESIAN_POINT ( 'NONE',  ( 0.000000000000000000, 0.000000000000000000, 0.000000000000000000 ) ) ;
#259 = EDGE_LOOP ( 'NONE', ( #326, #151, #330, #298 ) ) ;
#260 = VECTOR ( 'NONE', #241, 1000.000000000000000 ) ;
#261 = LOCAL_TIME ( 10, 11, 45.00000000000000000, #335 ) ;
#262 = DATE_AND_TIME ( #168, #269 ) ;
#263 = EDGE_LOOP ( 'NONE', ( #14, #105, #35, #3 ) ) ;
#264 = EDGE_LOOP ( 'NONE', ( #353, #374, #296, #114 ) ) ;
#265 = ADVANCED_FACE ( 'NONE', ( #17, #129 ), #344, .T. ) ;
#266 = ORIENTED_EDGE ( 'NONE', *, *, #188, .F. ) ;
#267 = CLOSED_SHELL ( 'NONE', ( #291, #61, #363, #316, #309, #265, #348, #206, #36, #334, #271 ) ) ;
#268 = SECURITY_CLASSIFICATION_LEVEL ( 'unclassified' ) ;
#269 = LOCAL_TIME ( 10, 11, 45.00000000000000000, #289 ) ;
#270 = ORIENTED_EDGE ( 'NONE', *, *, #52, .T. ) ;
#271 = ADVANCED_FACE ( 'NONE', ( #214 ), #250, .T. ) ;
#272 = CARTESIAN_POINT ( 'NONE',  ( 0.000000000000000000, 12.49999999999999822, 0.000000000000000000 ) ) ;
#273 = CARTESIAN_POINT ( 'NONE',  ( 0.000000000000000000, 15.00000000000000000, -4.799999999999999822 ) ) ;
#274 = AXIS2_PLACEMENT_3D ( 'NONE', #303, #332, #65 ) ;
#275 = FACE_OUTER_BOUND ( 'NONE', #328, .T. ) ;
#276 = DIRECTION ( 'NONE',  ( -0.000000000000000000, -1.000000000000000000, -0.000000000000000000 ) ) ;
#277 = EDGE_LOOP ( 'NONE', ( #319, #365 ) ) ;
#278 = DIRECTION ( 'NONE',  ( 0.000000000000000000, 1.000000000000000000, 0.000000000000000000 ) ) ;
#279 = AXIS2_PLACEMENT_3D ( 'NONE', #314, #219, #216 ) ;
#280 = SECURITY_CLASSIFICATION ( '', '', #268 ) ;
#281 = EDGE_CURVE ( 'NONE', #228, #215, #49, .T. ) ;
#282 = CARTESIAN_POINT ( 'NONE',  ( 0.000000000000000000, 0.000000000000000000, 0.000000000000000000 ) ) ;
#283 = DIRECTION ( 'NONE',  ( 0.000000000000000000, 1.000000000000000000, 0.000000000000000000 ) ) ;
#284 = CARTESIAN_POINT ( 'NONE',  ( 0.000000000000000000, 0.2999999999999999334, 0.000000000000000000 ) ) ;
#285 = AXIS2_PLACEMENT_3D ( 'NONE', #144, #161, #31 ) ;
#286 = DIRECTION ( 'NONE',  ( 0.000000000000000000, 0.000000000000000000, 1.000000000000000000 ) ) ;
#287 = CC_DESIGN_PERSON_AND_ORGANIZATION_ASSIGNMENT ( #304, #246, ( #133 ) ) ;
#288 = ORIENTED_EDGE ( 'NONE', *, *, #139, .F. ) ;
#289 = COORDINATED_UNIVERSAL_TIME_OFFSET ( 3, 0, .BEHIND. ) ;
#290 = EDGE_LOOP ( 'NONE', ( #247, #108, #230, #194 ) ) ;
#291 = ADVANCED_FACE ( 'NONE', ( #48 ), #240, .T. ) ;
#292 = CARTESIAN_POINT ( 'NONE',  ( 0.000000000000000000, 15.00000000000000000, 3.250000000000000444 ) ) ;
#293 = ORIENTED_EDGE ( 'NONE', *, *, #150, .F. ) ;
#294 = DIRECTION ( 'NONE',  ( 0.000000000000000000, 0.000000000000000000, 1.000000000000000000 ) ) ;
#295 = CC_DESIGN_DATE_AND_TIME_ASSIGNMENT ( #64, #10, ( #322 ) ) ;
#296 = ORIENTED_EDGE ( 'NONE', *, *, #123, .T. ) ;
#297 = APPROVAL_DATE_TIME ( #262, #57 ) ;
#298 = ORIENTED_EDGE ( 'NONE', *, *, #74, .F. ) ;
#299 = CIRCLE ( 'NONE', #97, 4.799999999999999822 ) ;
#300 = CARTESIAN_POINT ( 'NONE',  ( 5.878304635907294211E-16, 15.00000000000000000, 4.799999999999999822 ) ) ;
#301 = APPROVAL_ROLE ( '' ) ;
#302 = ORIENTED_EDGE ( 'NONE', *, *, #74, .T. ) ;
#303 = CARTESIAN_POINT ( 'NONE',  ( 0.000000000000000000, 12.49999999999999822, 0.000000000000000000 ) ) ;
#304 = PERSON_AND_ORGANIZATION ( #5, #156 ) ;
#305 = DIRECTION ( 'NONE',  ( 0.000000000000000000, 1.000000000000000000, 0.000000000000000000 ) ) ;
#306 = DATE_TIME_ROLE ( 'classification_date' ) ;
#307 = CARTESIAN_POINT ( 'NONE',  ( 0.000000000000000000, 12.49999999999999822, 3.250000000000000444 ) ) ;
#308 = DIRECTION ( 'NONE',  ( 0.000000000000000000, 0.000000000000000000, 1.000000000000000000 ) ) ;
#309 = ADVANCED_FACE ( 'NONE', ( #343 ), #46, .F. ) ;
#310 = DIRECTION ( 'NONE',  ( 0.000000000000000000, 1.000000000000000000, 0.000000000000000000 ) ) ;
#311 = CIRCLE ( 'NONE', #165, 3.250000000000000444 ) ;
#312 = CC_DESIGN_PERSON_AND_ORGANIZATION_ASSIGNMENT ( #178, #124, ( #133 ) ) ;
#313 = CYLINDRICAL_SURFACE ( 'NONE', #364, 4.799999999999999822 ) ;
#314 = CARTESIAN_POINT ( 'NONE',  ( 0.000000000000000000, 0.2999999999999999334, 0.000000000000000000 ) ) ;
#315 = DIRECTION ( 'NONE',  ( 0.000000000000000000, 0.000000000000000000, 1.000000000000000000 ) ) ;
#316 = ADVANCED_FACE ( 'NONE', ( #106 ), #379, .F. ) ;
#317 = VECTOR ( 'NONE', #276, 1000.000000000000000 ) ;
#318 =( LENGTH_UNIT ( ) NAMED_UNIT ( * ) SI_UNIT ( .MILLI., .METRE. ) );
#319 = ORIENTED_EDGE ( 'NONE', *, *, #41, .T. ) ;
#320 = CARTESIAN_POINT ( 'NONE',  ( 0.000000000000000000, 0.2999999999999999334, 0.000000000000000000 ) ) ;
#321 = ORIENTED_EDGE ( 'NONE', *, *, #41, .F. ) ;
#322 = PRODUCT_DEFINITION ( 'UNKNOWN', '', #133, #109 ) ;
#323 = CYLINDRICAL_SURFACE ( 'NONE', #9, 3.250000000000000444 ) ;
#324 = ORIENTED_EDGE ( 'NONE', *, *, #24, .T. ) ;
#325 = AXIS2_PLACEMENT_3D ( 'NONE', #136, #77, #339 ) ;
#326 = ORIENTED_EDGE ( 'NONE', *, *, #175, .F. ) ;
#327 = APPROVAL_ROLE ( '' ) ;
#328 = EDGE_LOOP ( 'NONE', ( #235, #196 ) ) ;
#329 = APPROVAL_DATE_TIME ( #210, #220 ) ;
#330 = ORIENTED_EDGE ( 'NONE', *, *, #188, .T. ) ;
#331 = CIRCLE ( 'NONE', #180, 3.799999999999999822 ) ;
#332 = DIRECTION ( 'NONE',  ( 0.000000000000000000, 1.000000000000000000, 0.000000000000000000 ) ) ;
#333 = DIRECTION ( 'NONE',  ( 0.000000000000000000, 1.000000000000000000, 0.000000000000000000 ) ) ;
#334 = ADVANCED_FACE ( 'NONE', ( #372 ), #323, .F. ) ;
#335 = COORDINATED_UNIVERSAL_TIME_OFFSET ( 3, 0, .BEHIND. ) ;
#336 = DIRECTION ( 'NONE',  ( 0.000000000000000000, 0.000000000000000000, 1.000000000000000000 ) ) ;
#337 = AXIS2_PLACEMENT_3D ( 'NONE', #82, #29, #26 ) ;
#338 = VERTEX_POINT ( 'NONE', #192 ) ;
#339 = DIRECTION ( 'NONE',  ( 0.000000000000000000, 0.000000000000000000, 1.000000000000000000 ) ) ;
#340 = DIRECTION ( 'NONE',  ( 0.000000000000000000, 0.000000000000000000, 1.000000000000000000 ) ) ;
#341 = CARTESIAN_POINT ( 'NONE',  ( 0.000000000000000000, 15.00000000000000000, 0.000000000000000000 ) ) ;
#342 = AXIS2_PLACEMENT_3D ( 'NONE', #157, #252, #367 ) ;
#343 = FACE_OUTER_BOUND ( 'NONE', #264, .T. ) ;
#344 = PLANE ( 'NONE',  #119 ) ;
#345 = AXIS2_PLACEMENT_3D ( 'NONE', #213, #368, #286 ) ;
#346 = PERSON_AND_ORGANIZATION_ROLE ( 'design_owner' ) ;
#347 = EDGE_LOOP ( 'NONE', ( #54, #321, #302, #89 ) ) ;
#348 = ADVANCED_FACE ( 'NONE', ( #229, #53 ), #224, .F. ) ;
#349 = FACE_OUTER_BOUND ( 'NONE', #259, .T. ) ;
#350 = ORIENTED_EDGE ( 'NONE', *, *, #184, .F. ) ;
#351 = AXIS2_PLACEMENT_3D ( 'NONE', #239, #207, #149 ) ;
#352 = PERSON_AND_ORGANIZATION ( #5, #156 ) ;
#353 = ORIENTED_EDGE ( 'NONE', *, *, #281, .F. ) ;
#354 = UNCERTAINTY_MEASURE_WITH_UNIT (LENGTH_MEASURE( 1.000000000000000082E-05 ), #318, 'distance_accuracy_value', 'NONE');
#355 = CARTESIAN_POINT ( 'NONE',  ( 0.000000000000000000, 0.000000000000000000, 0.000000000000000000 ) ) ;
#356 = ADVANCED_BREP_SHAPE_REPRESENTATION ( 'Guia6mmBuje', ( #221, #243 ), #1 ) ;
#357 = VECTOR ( 'NONE', #183, 1000.000000000000000 ) ;
#358 = DIRECTION ( 'NONE',  ( 0.000000000000000000, 0.000000000000000000, 1.000000000000000000 ) ) ;
#359 = EDGE_CURVE ( 'NONE', #112, #338, #141, .T. ) ;
#360 = PRODUCT_DEFINITION_SHAPE ( 'NONE', 'NONE',  #322 ) ;
#361 = CARTESIAN_POINT ( 'NONE',  ( 0.000000000000000000, 15.00000000000000000, 0.000000000000000000 ) ) ;
#362 = ORIENTED_EDGE ( 'NONE', *, *, #88, .F. ) ;
#363 = ADVANCED_FACE ( 'NONE', ( #349 ), #231, .T. ) ;
#364 = AXIS2_PLACEMENT_3D ( 'NONE', #186, #21, #185 ) ;
#365 = ORIENTED_EDGE ( 'NONE', *, *, #175, .T. ) ;
#366 = DIRECTION ( 'NONE',  ( 0.000000000000000000, 1.000000000000000000, 0.000000000000000000 ) ) ;
#367 = DIRECTION ( 'NONE',  ( 0.000000000000000000, 0.000000000000000000, -1.000000000000000000 ) ) ;
#368 = DIRECTION ( 'NONE',  ( 0.000000000000000000, 1.000000000000000000, 0.000000000000000000 ) ) ;
#369 = CC_DESIGN_SECURITY_CLASSIFICATION ( #280, ( #133 ) ) ;
#370 = EDGE_CURVE ( 'NONE', #32, #215, #15, .T. ) ;
#371 = DIRECTION ( 'NONE',  ( 0.000000000000000000, 1.000000000000000000, 0.000000000000000000 ) ) ;
#372 = FACE_OUTER_BOUND ( 'NONE', #153, .T. ) ;
#373 = DIRECTION ( 'NONE',  ( 1.000000000000000000, 0.000000000000000000, 0.000000000000000000 ) ) ;
#374 = ORIENTED_EDGE ( 'NONE', *, *, #20, .T. ) ;
#375 = CIRCLE ( 'NONE', #22, 4.799999999999999822 ) ;
#376 = CC_DESIGN_APPROVAL ( #170, ( #133 ) ) ;
#377 = PERSON_AND_ORGANIZATION_ROLE ( 'creator' ) ;
#378 = ORIENTED_EDGE ( 'NONE', *, *, #359, .T. ) ;
#379 = CYLINDRICAL_SURFACE ( 'NONE', #337, 3.500000000000000000 ) ;
#380 = VERTEX_POINT ( 'NONE', #292 ) ;
#381 = APPLICATION_PROTOCOL_DEFINITION ( 'international standard', 'config_control_design', 1994, #191 ) ;
ENDSEC;
END-ISO-10303-21;
