ISO-10303-21;
HEADER;
FILE_DESCRIPTION (( 'STEP AP203' ),
    '1' );
FILE_NAME ('Guia5mmBuje.STEP',
    '2026-08-19T13:11:08',
    ( '' ),
    ( '' ),
    'SwSTEP 2.0',
    'SolidWorks 2026',
    '' );
FILE_SCHEMA (( 'CONFIG_CONTROL_DESIGN' ));
ENDSEC;

DATA;
#1 = CARTESIAN_POINT ( 'NONE',  ( 0.000000000000000000, 12.49999999999999822, 2.649999999999999911 ) ) ;
#2 = APPLICATION_CONTEXT ( 'configuration controlled 3d designs of mechanical parts and assemblies' ) ;
#3 = DIRECTION ( 'NONE',  ( 0.000000000000000000, 1.000000000000000000, 0.000000000000000000 ) ) ;
#4 = FACE_OUTER_BOUND ( 'NONE', #212, .T. ) ;
#5 = ORIENTED_EDGE ( 'NONE', *, *, #58, .F. ) ;
#6 = EDGE_CURVE ( 'NONE', #210, #46, #334, .T. ) ;
#7 = CARTESIAN_POINT ( 'NONE',  ( 0.000000000000000000, 0.000000000000000000, -3.799999999999999822 ) ) ;
#8 = TOROIDAL_SURFACE ( 'NONE', #203, 3.300000000000000266, 0.2999999999999999889 ) ;
#9 = ORIENTED_EDGE ( 'NONE', *, *, #280, .T. ) ;
#10 = DIRECTION ( 'NONE',  ( 0.000000000000000000, 0.000000000000000000, 1.000000000000000000 ) ) ;
#11 = VERTEX_POINT ( 'NONE', #163 ) ;
#12 = DIRECTION ( 'NONE',  ( 0.000000000000000000, 0.000000000000000000, 1.000000000000000000 ) ) ;
#13 = ORIENTED_EDGE ( 'NONE', *, *, #58, .T. ) ;
#14 = APPROVAL ( #205, 'UNSPECIFIED' ) ;
#15 = COORDINATED_UNIVERSAL_TIME_OFFSET ( 3, 0, .BEHIND. ) ;
#16 = VECTOR ( 'NONE', #245, 1000.000000000000000 ) ;
#17 = COORDINATED_UNIVERSAL_TIME_OFFSET ( 3, 0, .BEHIND. ) ;
#18 = FACE_OUTER_BOUND ( 'NONE', #375, .T. ) ;
#19 = PERSON_AND_ORGANIZATION ( #237, #297 ) ;
#20 = DIRECTION ( 'NONE',  ( 0.000000000000000000, 0.000000000000000000, 1.000000000000000000 ) ) ;
#21 = ORIENTED_EDGE ( 'NONE', *, *, #83, .T. ) ;
#22 = AXIS2_PLACEMENT_3D ( 'NONE', #134, #307, #50 ) ;
#23 = APPROVAL_PERSON_ORGANIZATION ( #19, #33, #101 ) ;
#24 = DIRECTION ( 'NONE',  ( -1.000000000000000000, 0.000000000000000000, 0.000000000000000000 ) ) ;
#25 = VERTEX_POINT ( 'NONE', #100 ) ;
#26 = PERSON_AND_ORGANIZATION ( #237, #297 ) ;
#27 = CC_DESIGN_PERSON_AND_ORGANIZATION_ASSIGNMENT ( #369, #314, ( #317 ) ) ;
#28 = DIRECTION ( 'NONE',  ( -0.000000000000000000, -1.000000000000000000, -0.000000000000000000 ) ) ;
#29 = AXIS2_PLACEMENT_3D ( 'NONE', #357, #294, #226 ) ;
#30 = APPROVAL_DATE_TIME ( #356, #14 ) ;
#31 = DIRECTION ( 'NONE',  ( 0.000000000000000000, 0.000000000000000000, 1.000000000000000000 ) ) ;
#32 = PLANE ( 'NONE',  #381 ) ;
#33 = APPROVAL ( #284, 'UNSPECIFIED' ) ;
#34 = FACE_OUTER_BOUND ( 'NONE', #190, .T. ) ;
#35 = CIRCLE ( 'NONE', #195, 3.000000000000000444 ) ;
#36 = LOCAL_TIME ( 10, 11, 8.000000000000000000, #17 ) ;
#37 = CYLINDRICAL_SURFACE ( 'NONE', #65, 3.000000000000000444 ) ;
#38 = CARTESIAN_POINT ( 'NONE',  ( 0.000000000000000000, 12.49999999999999822, 0.000000000000000000 ) ) ;
#39 = DIRECTION ( 'NONE',  ( 0.000000000000000000, 1.000000000000000000, 0.000000000000000000 ) ) ;
#40 = DIRECTION ( 'NONE',  ( 0.000000000000000000, 1.000000000000000000, 0.000000000000000000 ) ) ;
#41 = ORIENTED_EDGE ( 'NONE', *, *, #298, .T. ) ;
#42 = CARTESIAN_POINT ( 'NONE',  ( 0.000000000000000000, 0.000000000000000000, 0.000000000000000000 ) ) ;
#43 = PRODUCT_DEFINITION ( 'UNKNOWN', '', #262, #62 ) ;
#44 = CARTESIAN_POINT ( 'NONE',  ( 0.000000000000000000, 0.000000000000000000, 0.000000000000000000 ) ) ;
#45 = ORIENTED_EDGE ( 'NONE', *, *, #311, .F. ) ;
#46 = VERTEX_POINT ( 'NONE', #285 ) ;
#47 = VECTOR ( 'NONE', #276, 1000.000000000000000 ) ;
#48 = ORIENTED_EDGE ( 'NONE', *, *, #280, .F. ) ;
#49 = DIRECTION ( 'NONE',  ( 1.000000000000000000, 0.000000000000000000, 0.000000000000000000 ) ) ;
#50 = DIRECTION ( 'NONE',  ( 0.000000000000000000, 0.000000000000000000, 1.000000000000000000 ) ) ;
#51 = DIRECTION ( 'NONE',  ( 0.000000000000000000, 0.000000000000000000, 1.000000000000000000 ) ) ;
#52 = ORIENTED_EDGE ( 'NONE', *, *, #269, .F. ) ;
#53 = DIRECTION ( 'NONE',  ( 0.000000000000000000, 0.000000000000000000, 1.000000000000000000 ) ) ;
#54 = FACE_OUTER_BOUND ( 'NONE', #257, .T. ) ;
#55 = CIRCLE ( 'NONE', #341, 3.000000000000000444 ) ;
#56 = PERSON_AND_ORGANIZATION_ROLE ( 'creator' ) ;
#57 = CARTESIAN_POINT ( 'NONE',  ( 0.000000000000000000, 12.49999999999999822, 0.000000000000000000 ) ) ;
#58 = EDGE_CURVE ( 'NONE', #11, #187, #354, .T. ) ;
#59 = DIRECTION ( 'NONE',  ( -0.000000000000000000, -1.000000000000000000, -0.000000000000000000 ) ) ;
#60 = CARTESIAN_POINT ( 'NONE',  ( 4.653657836759942730E-16, 15.00000000000000000, 3.799999999999999822 ) ) ;
#61 = DIRECTION ( 'NONE',  ( 0.000000000000000000, 1.000000000000000000, 0.000000000000000000 ) ) ;
#62 = DESIGN_CONTEXT ( 'detailed design', #366, 'design' ) ;
#63 = VERTEX_POINT ( 'NONE', #345 ) ;
#64 = FACE_BOUND ( 'NONE', #373, .T. ) ;
#65 = AXIS2_PLACEMENT_3D ( 'NONE', #142, #238, #206 ) ;
#66 = ORIENTED_EDGE ( 'NONE', *, *, #191, .T. ) ;
#67 = ORIENTED_EDGE ( 'NONE', *, *, #121, .T. ) ;
#68 = COORDINATED_UNIVERSAL_TIME_OFFSET ( 3, 0, .BEHIND. ) ;
#69 = CARTESIAN_POINT ( 'NONE',  ( 0.000000000000000000, 15.00000000000000000, 0.000000000000000000 ) ) ;
#70 = CC_DESIGN_DATE_AND_TIME_ASSIGNMENT ( #133, #337, ( #43 ) ) ;
#71 = CARTESIAN_POINT ( 'NONE',  ( 0.000000000000000000, 15.00000000000000000, 0.000000000000000000 ) ) ;
#72 = CALENDAR_DATE ( 2026, 19, 8 ) ;
#73 = DIRECTION ( 'NONE',  ( 0.000000000000000000, 0.000000000000000000, 1.000000000000000000 ) ) ;
#74 = DIRECTION ( 'NONE',  ( 0.000000000000000000, 0.000000000000000000, 1.000000000000000000 ) ) ;
#75 = ORIENTED_EDGE ( 'NONE', *, *, #286, .T. ) ;
#76 = MECHANICAL_CONTEXT ( 'NONE', #2, 'mechanical' ) ;
#77 = DIRECTION ( 'NONE',  ( 0.000000000000000000, 1.000000000000000000, 0.000000000000000000 ) ) ;
#78 = CC_DESIGN_PERSON_AND_ORGANIZATION_ASSIGNMENT ( #259, #135, ( #255 ) ) ;
#79 = AXIS2_PLACEMENT_3D ( 'NONE', #335, #92, #359 ) ;
#80 = MANIFOLD_SOLID_BREP ( 'Redondeo1', #301 ) ;
#81 = DIRECTION ( 'NONE',  ( 1.224646799147353207E-16, 0.000000000000000000, -1.000000000000000000 ) ) ;
#82 = CYLINDRICAL_SURFACE ( 'NONE', #260, 2.649999999999999911 ) ;
#83 = EDGE_CURVE ( 'NONE', #127, #282, #55, .T. ) ;
#84 = CARTESIAN_POINT ( 'NONE',  ( 3.245314017740485962E-16, 12.49999999999999822, -2.649999999999999911 ) ) ;
#85 = CC_DESIGN_SECURITY_CLASSIFICATION ( #255, ( #262 ) ) ;
#86 = DIRECTION ( 'NONE',  ( 0.000000000000000000, 0.000000000000000000, 1.000000000000000000 ) ) ;
#87 = FACE_OUTER_BOUND ( 'NONE', #340, .T. ) ;
#88 = CARTESIAN_POINT ( 'NONE',  ( 3.673940397442060361E-16, 12.49999999999999822, 3.000000000000000444 ) ) ;
#89 = EDGE_CURVE ( 'NONE', #46, #210, #132, .T. ) ;
#90 = AXIS2_PLACEMENT_3D ( 'NONE', #71, #376, #20 ) ;
#91 = LINE ( 'NONE', #358, #177 ) ;
#92 = DIRECTION ( 'NONE',  ( -0.000000000000000000, -1.000000000000000000, -0.000000000000000000 ) ) ;
#93 = ORIENTED_EDGE ( 'NONE', *, *, #162, .T. ) ;
#94 = EDGE_CURVE ( 'NONE', #244, #63, #126, .T. ) ;
#95 = AXIS2_PLACEMENT_3D ( 'NONE', #44, #3, #10 ) ;
#96 = CIRCLE ( 'NONE', #371, 0.2999999999999999334 ) ;
#97 = ORIENTED_EDGE ( 'NONE', *, *, #228, .T. ) ;
#98 =( GEOMETRIC_REPRESENTATION_CONTEXT ( 3 ) GLOBAL_UNCERTAINTY_ASSIGNED_CONTEXT ( ( #201 ) ) GLOBAL_UNIT_ASSIGNED_CONTEXT ( ( #329, #209, #182 ) ) REPRESENTATION_CONTEXT ( 'NONE', 'WORKASPACE' ) );
#99 = ORIENTED_EDGE ( 'NONE', *, *, #228, .F. ) ;
#100 = CARTESIAN_POINT ( 'NONE',  ( 0.000000000000000000, 0.2999999999999999334, -3.000000000000000444 ) ) ;
#101 = APPROVAL_ROLE ( '' ) ;
#102 = DIRECTION ( 'NONE',  ( 0.000000000000000000, 1.000000000000000000, 0.000000000000000000 ) ) ;
#103 = EDGE_LOOP ( 'NONE', ( #93, #223 ) ) ;
#104 = ADVANCED_FACE ( 'NONE', ( #219, #224 ), #218, .T. ) ;
#105 = CARTESIAN_POINT ( 'NONE',  ( 0.000000000000000000, 15.00000000000000000, 0.000000000000000000 ) ) ;
#106 = CALENDAR_DATE ( 2026, 19, 8 ) ;
#107 = DIRECTION ( 'NONE',  ( 0.000000000000000000, 0.000000000000000000, 1.000000000000000000 ) ) ;
#108 = VECTOR ( 'NONE', #59, 1000.000000000000000 ) ;
#109 = DATE_TIME_ROLE ( 'classification_date' ) ;
#110 = DIRECTION ( 'NONE',  ( -0.000000000000000000, -1.000000000000000000, -0.000000000000000000 ) ) ;
#111 = APPROVAL_DATE_TIME ( #232, #348 ) ;
#112 = FACE_OUTER_BOUND ( 'NONE', #278, .T. ) ;
#113 = DIRECTION ( 'NONE',  ( 1.000000000000000000, -0.000000000000000000, 1.224646799147353207E-16 ) ) ;
#114 = AXIS2_PLACEMENT_3D ( 'NONE', #326, #379, #175 ) ;
#115 = LINE ( 'NONE', #355, #108 ) ;
#116 = DIRECTION ( 'NONE',  ( 0.000000000000000000, 0.000000000000000000, 1.000000000000000000 ) ) ;
#117 = ADVANCED_FACE ( 'NONE', ( #18 ), #250, .F. ) ;
#118 = DIRECTION ( 'NONE',  ( 0.000000000000000000, 0.000000000000000000, 1.000000000000000000 ) ) ;
#119 = AXIS2_PLACEMENT_3D ( 'NONE', #42, #243, #118 ) ;
#120 = FACE_OUTER_BOUND ( 'NONE', #336, .T. ) ;
#121 = EDGE_CURVE ( 'NONE', #25, #283, #96, .T. ) ;
#122 = DIRECTION ( 'NONE',  ( 0.000000000000000000, 0.000000000000000000, 1.000000000000000000 ) ) ;
#123 = ORIENTED_EDGE ( 'NONE', *, *, #286, .F. ) ;
#124 = LINE ( 'NONE', #215, #313 ) ;
#125 = ORIENTED_EDGE ( 'NONE', *, *, #298, .F. ) ;
#126 = CIRCLE ( 'NONE', #22, 3.799999999999999822 ) ;
#127 = VERTEX_POINT ( 'NONE', #350 ) ;
#128 = CC_DESIGN_PERSON_AND_ORGANIZATION_ASSIGNMENT ( #26, #351, ( #262 ) ) ;
#129 = CARTESIAN_POINT ( 'NONE',  ( 0.000000000000000000, 12.49999999999999822, 0.000000000000000000 ) ) ;
#130 = PERSON_AND_ORGANIZATION ( #237, #297 ) ;
#131 = ORIENTED_EDGE ( 'NONE', *, *, #83, .F. ) ;
#132 = CIRCLE ( 'NONE', #90, 2.649999999999999911 ) ;
#133 = DATE_AND_TIME ( #72, #36 ) ;
#134 = CARTESIAN_POINT ( 'NONE',  ( 0.000000000000000000, 15.00000000000000000, 0.000000000000000000 ) ) ;
#135 = PERSON_AND_ORGANIZATION_ROLE ( 'classification_officer' ) ;
#136 = DIRECTION ( 'NONE',  ( 0.000000000000000000, 0.000000000000000000, 1.000000000000000000 ) ) ;
#137 = DIRECTION ( 'NONE',  ( 0.000000000000000000, 0.000000000000000000, -1.000000000000000000 ) ) ;
#138 = EDGE_CURVE ( 'NONE', #249, #161, #346, .T. ) ;
#139 = CARTESIAN_POINT ( 'NONE',  ( 3.245314017740485962E-16, 12.49999999999999822, -2.649999999999999911 ) ) ;
#140 = CALENDAR_DATE ( 2026, 19, 8 ) ;
#141 = DIRECTION ( 'NONE',  ( 0.000000000000000000, 1.000000000000000000, 0.000000000000000000 ) ) ;
#142 = CARTESIAN_POINT ( 'NONE',  ( 0.000000000000000000, 15.00000000000000000, 0.000000000000000000 ) ) ;
#143 = LOCAL_TIME ( 10, 11, 8.000000000000000000, #68 ) ;
#144 = AXIS2_PLACEMENT_3D ( 'NONE', #252, #74, #49 ) ;
#145 = ADVANCED_FACE ( 'NONE', ( #318 ), #225, .T. ) ;
#146 = CARTESIAN_POINT ( 'NONE',  ( 0.000000000000000000, 15.00000000000000000, 0.000000000000000000 ) ) ;
#147 = CARTESIAN_POINT ( 'NONE',  ( 4.653657836759942730E-16, 15.00000000000000000, 3.799999999999999822 ) ) ;
#148 = ORIENTED_EDGE ( 'NONE', *, *, #361, .F. ) ;
#149 = ORIENTED_EDGE ( 'NONE', *, *, #251, .F. ) ;
#150 = AXIS2_PLACEMENT_3D ( 'NONE', #325, #234, #197 ) ;
#151 = CC_DESIGN_APPROVAL ( #14, ( #255 ) ) ;
#152 = DIRECTION ( 'NONE',  ( -0.000000000000000000, -1.000000000000000000, -0.000000000000000000 ) ) ;
#153 = ORIENTED_EDGE ( 'NONE', *, *, #372, .T. ) ;
#154 = CARTESIAN_POINT ( 'NONE',  ( 0.000000000000000000, 0.2999999999999999334, 0.000000000000000000 ) ) ;
#155 = DIRECTION ( 'NONE',  ( -0.000000000000000000, -1.000000000000000000, -0.000000000000000000 ) ) ;
#156 = EDGE_CURVE ( 'NONE', #222, #330, #176, .T. ) ;
#157 = CIRCLE ( 'NONE', #241, 3.799999999999999822 ) ;
#158 = LOCAL_TIME ( 10, 11, 8.000000000000000000, #378 ) ;
#159 = CARTESIAN_POINT ( 'NONE',  ( 0.000000000000000000, 0.2999999999999999334, 3.300000000000000266 ) ) ;
#160 = ORIENTED_EDGE ( 'NONE', *, *, #311, .T. ) ;
#161 = VERTEX_POINT ( 'NONE', #1 ) ;
#162 = EDGE_CURVE ( 'NONE', #161, #249, #289, .T. ) ;
#163 = CARTESIAN_POINT ( 'NONE',  ( 3.673940397442060361E-16, 0.2999999999999999334, 3.000000000000000444 ) ) ;
#164 = AXIS2_PLACEMENT_3D ( 'NONE', #129, #253, #342 ) ;
#165 = ORIENTED_EDGE ( 'NONE', *, *, #94, .F. ) ;
#166 = DATE_AND_TIME ( #106, #158 ) ;
#167 = ADVANCED_FACE ( 'NONE', ( #112 ), #82, .F. ) ;
#168 = PERSON_AND_ORGANIZATION ( #237, #297 ) ;
#169 = CARTESIAN_POINT ( 'NONE',  ( 4.653657836759942730E-16, 0.000000000000000000, 3.799999999999999822 ) ) ;
#170 = CIRCLE ( 'NONE', #95, 3.799999999999999822 ) ;
#171 = CARTESIAN_POINT ( 'NONE',  ( 0.000000000000000000, 12.49999999999999822, 0.000000000000000000 ) ) ;
#172 = ORIENTED_EDGE ( 'NONE', *, *, #138, .F. ) ;
#173 = CARTESIAN_POINT ( 'NONE',  ( 0.000000000000000000, 0.2999999999999999334, 0.000000000000000000 ) ) ;
#174 = ADVANCED_FACE ( 'NONE', ( #87 ), #267, .T. ) ;
#175 = DIRECTION ( 'NONE',  ( 0.000000000000000000, 0.000000000000000000, -1.000000000000000000 ) ) ;
#176 = CIRCLE ( 'NONE', #150, 3.799999999999999822 ) ;
#177 = VECTOR ( 'NONE', #40, 1000.000000000000000 ) ;
#178 = CARTESIAN_POINT ( 'NONE',  ( 0.000000000000000000, 0.000000000000000000, 0.000000000000000000 ) ) ;
#179 = PRODUCT_RELATED_PRODUCT_CATEGORY ( 'detail', '', ( #317 ) ) ;
#180 = DIRECTION ( 'NONE',  ( 0.000000000000000000, 0.000000000000000000, 1.000000000000000000 ) ) ;
#181 = DIRECTION ( 'NONE',  ( 0.000000000000000000, -0.000000000000000000, 1.000000000000000000 ) ) ;
#182 =( NAMED_UNIT ( * ) SI_UNIT ( $, .STERADIAN. ) SOLID_ANGLE_UNIT ( ) );
#183 = EDGE_LOOP ( 'NONE', ( #52, #67, #364, #5 ) ) ;
#184 = ORIENTED_EDGE ( 'NONE', *, *, #185, .F. ) ;
#185 = EDGE_CURVE ( 'NONE', #127, #25, #115, .T. ) ;
#186 = PERSON_AND_ORGANIZATION_ROLE ( 'creator' ) ;
#187 = VERTEX_POINT ( 'NONE', #261 ) ;
#188 = CIRCLE ( 'NONE', #328, 3.000000000000000444 ) ;
#189 = AXIS2_PLACEMENT_3D ( 'NONE', #207, #363, #12 ) ;
#190 = EDGE_LOOP ( 'NONE', ( #21, #75, #66, #184 ) ) ;
#191 = EDGE_CURVE ( 'NONE', #11, #25, #188, .T. ) ;
#192 = EDGE_LOOP ( 'NONE', ( #344, #194 ) ) ;
#193 = CALENDAR_DATE ( 2026, 19, 8 ) ;
#194 = ORIENTED_EDGE ( 'NONE', *, *, #6, .F. ) ;
#195 = AXIS2_PLACEMENT_3D ( 'NONE', #38, #61, #122 ) ;
#196 = ORIENTED_EDGE ( 'NONE', *, *, #361, .T. ) ;
#197 = DIRECTION ( 'NONE',  ( 0.000000000000000000, 0.000000000000000000, 1.000000000000000000 ) ) ;
#198 = CC_DESIGN_PERSON_AND_ORGANIZATION_ASSIGNMENT ( #353, #56, ( #262 ) ) ;
#199 = COORDINATED_UNIVERSAL_TIME_OFFSET ( 3, 0, .BEHIND. ) ;
#200 = CARTESIAN_POINT ( 'NONE',  ( 0.000000000000000000, 15.00000000000000000, 0.000000000000000000 ) ) ;
#201 = UNCERTAINTY_MEASURE_WITH_UNIT (LENGTH_MEASURE( 1.000000000000000082E-05 ), #329, 'distance_accuracy_value', 'NONE');
#202 = FACE_BOUND ( 'NONE', #103, .T. ) ;
#203 = AXIS2_PLACEMENT_3D ( 'NONE', #154, #39, #180 ) ;
#204 = DIRECTION ( 'NONE',  ( 0.000000000000000000, 1.000000000000000000, 0.000000000000000000 ) ) ;
#205 = APPROVAL_STATUS ( 'not_yet_approved' ) ;
#206 = DIRECTION ( 'NONE',  ( 0.000000000000000000, 0.000000000000000000, -1.000000000000000000 ) ) ;
#207 = CARTESIAN_POINT ( 'NONE',  ( 0.000000000000000000, 0.000000000000000000, 0.000000000000000000 ) ) ;
#208 = CIRCLE ( 'NONE', #235, 3.000000000000000444 ) ;
#209 =( NAMED_UNIT ( * ) PLANE_ANGLE_UNIT ( ) SI_UNIT ( $, .RADIAN. ) );
#210 = VERTEX_POINT ( 'NONE', #230 ) ;
#211 = DIRECTION ( 'NONE',  ( 0.000000000000000000, 1.000000000000000000, 0.000000000000000000 ) ) ;
#212 = EDGE_LOOP ( 'NONE', ( #125, #277 ) ) ;
#213 = EDGE_LOOP ( 'NONE', ( #97, #293 ) ) ;
#214 = CIRCLE ( 'NONE', #119, 3.300000000000000266 ) ;
#215 = CARTESIAN_POINT ( 'NONE',  ( 3.673940397442060361E-16, 15.00000000000000000, 3.000000000000000444 ) ) ;
#216 = ORIENTED_EDGE ( 'NONE', *, *, #300, .F. ) ;
#217 = ADVANCED_FACE ( 'NONE', ( #34 ), #37, .F. ) ;
#218 = PLANE ( 'NONE',  #279 ) ;
#219 = FACE_OUTER_BOUND ( 'NONE', #213, .T. ) ;
#220 = PERSON_AND_ORGANIZATION ( #237, #297 ) ;
#221 = APPROVAL_PERSON_ORGANIZATION ( #130, #348, #374 ) ;
#222 = VERTEX_POINT ( 'NONE', #169 ) ;
#223 = ORIENTED_EDGE ( 'NONE', *, *, #138, .T. ) ;
#224 = FACE_BOUND ( 'NONE', #192, .T. ) ;
#225 = TOROIDAL_SURFACE ( 'NONE', #365, 3.300000000000000266, 0.2999999999999999889 ) ;
#226 = DIRECTION ( 'NONE',  ( 0.000000000000000000, 0.000000000000000000, 1.000000000000000000 ) ) ;
#227 = CIRCLE ( 'NONE', #189, 3.300000000000000266 ) ;
#228 = EDGE_CURVE ( 'NONE', #63, #244, #157, .T. ) ;
#229 = APPROVAL_ROLE ( '' ) ;
#230 = CARTESIAN_POINT ( 'NONE',  ( 3.245314017740485962E-16, 15.00000000000000000, -2.649999999999999911 ) ) ;
#231 = CYLINDRICAL_SURFACE ( 'NONE', #114, 3.799999999999999822 ) ;
#232 = DATE_AND_TIME ( #304, #143 ) ;
#233 = ADVANCED_FACE ( 'NONE', ( #54 ), #231, .T. ) ;
#234 = DIRECTION ( 'NONE',  ( 0.000000000000000000, 1.000000000000000000, 0.000000000000000000 ) ) ;
#235 = AXIS2_PLACEMENT_3D ( 'NONE', #380, #155, #116 ) ;
#236 = LOCAL_TIME ( 10, 11, 8.000000000000000000, #15 ) ;
#237 = PERSON ( 'UNSPECIFIED', 'UNSPECIFIED', 'UNSPECIFIED', ('UNSPECIFIED'), ('UNSPECIFIED'), ('UNSPECIFIED') ) ;
#238 = DIRECTION ( 'NONE',  ( -0.000000000000000000, -1.000000000000000000, -0.000000000000000000 ) ) ;
#239 = LINE ( 'NONE', #273, #16 ) ;
#240 = FACE_OUTER_BOUND ( 'NONE', #370, .T. ) ;
#241 = AXIS2_PLACEMENT_3D ( 'NONE', #146, #268, #107 ) ;
#242 = APPROVAL_PERSON_ORGANIZATION ( #168, #14, #229 ) ;
#243 = DIRECTION ( 'NONE',  ( 0.000000000000000000, 1.000000000000000000, 0.000000000000000000 ) ) ;
#244 = VERTEX_POINT ( 'NONE', #60 ) ;
#245 = DIRECTION ( 'NONE',  ( -0.000000000000000000, -1.000000000000000000, -0.000000000000000000 ) ) ;
#246 = ORIENTED_EDGE ( 'NONE', *, *, #191, .F. ) ;
#247 = AXIS2_PLACEMENT_3D ( 'NONE', #178, #211, #181 ) ;
#248 = DATE_AND_TIME ( #193, #236 ) ;
#249 = VERTEX_POINT ( 'NONE', #139 ) ;
#250 = CYLINDRICAL_SURFACE ( 'NONE', #164, 2.649999999999999911 ) ;
#251 = EDGE_CURVE ( 'NONE', #249, #210, #352, .T. ) ;
#252 = CARTESIAN_POINT ( 'NONE',  ( 0.000000000000000000, 0.000000000000000000, 0.000000000000000000 ) ) ;
#253 = DIRECTION ( 'NONE',  ( 0.000000000000000000, 1.000000000000000000, 0.000000000000000000 ) ) ;
#254 = APPROVAL_STATUS ( 'not_yet_approved' ) ;
#255 = SECURITY_CLASSIFICATION ( '', '', #319 ) ;
#256 = ORIENTED_EDGE ( 'NONE', *, *, #269, .T. ) ;
#257 = EDGE_LOOP ( 'NONE', ( #216, #99, #368, #41 ) ) ;
#258 = CARTESIAN_POINT ( 'NONE',  ( 0.000000000000000000, 12.49999999999999822, 0.000000000000000000 ) ) ;
#259 = PERSON_AND_ORGANIZATION ( #237, #297 ) ;
#260 = AXIS2_PLACEMENT_3D ( 'NONE', #263, #320, #288 ) ;
#261 = CARTESIAN_POINT ( 'NONE',  ( 0.000000000000000000, -2.710505431213761085E-17, 3.300000000000000266 ) ) ;
#262 = PRODUCT_DEFINITION_FORMATION_WITH_SPECIFIED_SOURCE ( 'ANY', '', #317, .NOT_KNOWN. ) ;
#263 = CARTESIAN_POINT ( 'NONE',  ( 0.000000000000000000, 12.49999999999999822, 0.000000000000000000 ) ) ;
#264 = ADVANCED_FACE ( 'NONE', ( #202, #322 ), #32, .F. ) ;
#265 = ADVANCED_BREP_SHAPE_REPRESENTATION ( 'Guia5mmBuje', ( #80, #144 ), #98 ) ;
#266 = DIRECTION ( 'NONE',  ( 0.000000000000000000, -0.000000000000000000, 1.000000000000000000 ) ) ;
#267 = CYLINDRICAL_SURFACE ( 'NONE', #360, 3.799999999999999822 ) ;
#268 = DIRECTION ( 'NONE',  ( 0.000000000000000000, 1.000000000000000000, 0.000000000000000000 ) ) ;
#269 = EDGE_CURVE ( 'NONE', #25, #11, #208, .T. ) ;
#270 = CARTESIAN_POINT ( 'NONE',  ( 4.041334437186266003E-16, -2.710505431213761085E-17, -3.300000000000000266 ) ) ;
#271 = ORIENTED_EDGE ( 'NONE', *, *, #121, .F. ) ;
#272 = CC_DESIGN_APPROVAL ( #33, ( #43 ) ) ;
#273 = CARTESIAN_POINT ( 'NONE',  ( 0.000000000000000000, 15.00000000000000000, -3.799999999999999822 ) ) ;
#274 = ORIENTED_EDGE ( 'NONE', *, *, #162, .F. ) ;
#275 = CC_DESIGN_DATE_AND_TIME_ASSIGNMENT ( #166, #109, ( #255 ) ) ;
#276 = DIRECTION ( 'NONE',  ( -0.000000000000000000, -1.000000000000000000, -0.000000000000000000 ) ) ;
#277 = ORIENTED_EDGE ( 'NONE', *, *, #156, .F. ) ;
#278 = EDGE_LOOP ( 'NONE', ( #149, #274, #196, #303 ) ) ;
#279 = AXIS2_PLACEMENT_3D ( 'NONE', #69, #77, #281 ) ;
#280 = EDGE_CURVE ( 'NONE', #283, #187, #214, .T. ) ;
#281 = DIRECTION ( 'NONE',  ( 0.000000000000000000, -0.000000000000000000, 1.000000000000000000 ) ) ;
#282 = VERTEX_POINT ( 'NONE', #88 ) ;
#283 = VERTEX_POINT ( 'NONE', #270 ) ;
#284 = APPROVAL_STATUS ( 'not_yet_approved' ) ;
#285 = CARTESIAN_POINT ( 'NONE',  ( 0.000000000000000000, 15.00000000000000000, 2.649999999999999911 ) ) ;
#286 = EDGE_CURVE ( 'NONE', #282, #11, #124, .T. ) ;
#287 = EDGE_LOOP ( 'NONE', ( #131, #45 ) ) ;
#288 = DIRECTION ( 'NONE',  ( 0.000000000000000000, 0.000000000000000000, 1.000000000000000000 ) ) ;
#289 = CIRCLE ( 'NONE', #377, 2.649999999999999911 ) ;
#290 = CARTESIAN_POINT ( 'NONE',  ( 0.000000000000000000, 0.2999999999999999334, 0.000000000000000000 ) ) ;
#291 = EDGE_CURVE ( 'NONE', #63, #330, #239, .T. ) ;
#292 = DIRECTION ( 'NONE',  ( 0.000000000000000000, 1.000000000000000000, 0.000000000000000000 ) ) ;
#293 = ORIENTED_EDGE ( 'NONE', *, *, #94, .T. ) ;
#294 = DIRECTION ( 'NONE',  ( 0.000000000000000000, 1.000000000000000000, 0.000000000000000000 ) ) ;
#295 = CARTESIAN_POINT ( 'NONE',  ( 4.041334437186266003E-16, 0.2999999999999999334, -3.300000000000000266 ) ) ;
#296 = AXIS2_PLACEMENT_3D ( 'NONE', #105, #310, #51 ) ;
#297 = ORGANIZATION ( 'UNSPECIFIED', 'UNSPECIFIED', '' ) ;
#298 = EDGE_CURVE ( 'NONE', #330, #222, #170, .T. ) ;
#299 = PLANE ( 'NONE',  #247 ) ;
#300 = EDGE_CURVE ( 'NONE', #244, #222, #332, .T. ) ;
#301 = CLOSED_SHELL ( 'NONE', ( #145, #117, #174, #217, #331, #104, #339, #233, #264, #167, #327 ) ) ;
#302 = APPLICATION_PROTOCOL_DEFINITION ( 'international standard', 'config_control_design', 1994, #2 ) ;
#303 = ORIENTED_EDGE ( 'NONE', *, *, #89, .T. ) ;
#304 = CALENDAR_DATE ( 2026, 19, 8 ) ;
#305 = ORIENTED_EDGE ( 'NONE', *, *, #6, .T. ) ;
#306 = APPLICATION_PROTOCOL_DEFINITION ( 'international standard', 'config_control_design', 1994, #366 ) ;
#307 = DIRECTION ( 'NONE',  ( 0.000000000000000000, 1.000000000000000000, 0.000000000000000000 ) ) ;
#308 = ORIENTED_EDGE ( 'NONE', *, *, #300, .T. ) ;
#309 = APPROVAL_DATE_TIME ( #248, #33 ) ;
#310 = DIRECTION ( 'NONE',  ( 0.000000000000000000, 1.000000000000000000, 0.000000000000000000 ) ) ;
#311 = EDGE_CURVE ( 'NONE', #282, #127, #35, .T. ) ;
#312 = AXIS2_PLACEMENT_3D ( 'NONE', #159, #24, #136 ) ;
#313 = VECTOR ( 'NONE', #152, 1000.000000000000000 ) ;
#314 = PERSON_AND_ORGANIZATION_ROLE ( 'design_owner' ) ;
#315 = CC_DESIGN_APPROVAL ( #348, ( #262 ) ) ;
#316 = ORIENTED_EDGE ( 'NONE', *, *, #156, .T. ) ;
#317 = PRODUCT ( 'Guia5mmBuje', 'Guia5mmBuje', '', ( #76 ) ) ;
#318 = FACE_OUTER_BOUND ( 'NONE', #183, .T. ) ;
#319 = SECURITY_CLASSIFICATION_LEVEL ( 'unclassified' ) ;
#320 = DIRECTION ( 'NONE',  ( 0.000000000000000000, 1.000000000000000000, 0.000000000000000000 ) ) ;
#321 = VECTOR ( 'NONE', #292, 1000.000000000000000 ) ;
#322 = FACE_OUTER_BOUND ( 'NONE', #287, .T. ) ;
#323 = ORIENTED_EDGE ( 'NONE', *, *, #291, .F. ) ;
#324 = PRODUCT_DEFINITION_SHAPE ( 'NONE', 'NONE',  #43 ) ;
#325 = CARTESIAN_POINT ( 'NONE',  ( 0.000000000000000000, 0.000000000000000000, 0.000000000000000000 ) ) ;
#326 = CARTESIAN_POINT ( 'NONE',  ( 0.000000000000000000, 15.00000000000000000, 0.000000000000000000 ) ) ;
#327 = ADVANCED_FACE ( 'NONE', ( #240 ), #8, .T. ) ;
#328 = AXIS2_PLACEMENT_3D ( 'NONE', #173, #110, #31 ) ;
#329 =( LENGTH_UNIT ( ) NAMED_UNIT ( * ) SI_UNIT ( .MILLI., .METRE. ) );
#330 = VERTEX_POINT ( 'NONE', #7 ) ;
#331 = ADVANCED_FACE ( 'NONE', ( #120 ), #362, .F. ) ;
#332 = LINE ( 'NONE', #147, #47 ) ;
#333 = ORIENTED_EDGE ( 'NONE', *, *, #251, .T. ) ;
#334 = CIRCLE ( 'NONE', #296, 2.649999999999999911 ) ;
#335 = CARTESIAN_POINT ( 'NONE',  ( 0.000000000000000000, 15.00000000000000000, 0.000000000000000000 ) ) ;
#336 = EDGE_LOOP ( 'NONE', ( #123, #160, #338, #256 ) ) ;
#337 = DATE_TIME_ROLE ( 'creation_date' ) ;
#338 = ORIENTED_EDGE ( 'NONE', *, *, #185, .T. ) ;
#339 = ADVANCED_FACE ( 'NONE', ( #64, #4 ), #299, .F. ) ;
#340 = EDGE_LOOP ( 'NONE', ( #165, #308, #316, #323 ) ) ;
#341 = AXIS2_PLACEMENT_3D ( 'NONE', #258, #102, #73 ) ;
#342 = DIRECTION ( 'NONE',  ( 0.000000000000000000, 0.000000000000000000, 1.000000000000000000 ) ) ;
#343 = CC_DESIGN_PERSON_AND_ORGANIZATION_ASSIGNMENT ( #220, #186, ( #43 ) ) ;
#344 = ORIENTED_EDGE ( 'NONE', *, *, #89, .F. ) ;
#345 = CARTESIAN_POINT ( 'NONE',  ( 0.000000000000000000, 15.00000000000000000, -3.799999999999999822 ) ) ;
#346 = CIRCLE ( 'NONE', #29, 2.649999999999999911 ) ;
#347 = DIRECTION ( 'NONE',  ( 0.000000000000000000, 1.000000000000000000, 0.000000000000000000 ) ) ;
#348 = APPROVAL ( #254, 'UNSPECIFIED' ) ;
#349 = SHAPE_DEFINITION_REPRESENTATION ( #324, #265 ) ;
#350 = CARTESIAN_POINT ( 'NONE',  ( 0.000000000000000000, 12.49999999999999822, -3.000000000000000444 ) ) ;
#351 = PERSON_AND_ORGANIZATION_ROLE ( 'design_supplier' ) ;
#352 = LINE ( 'NONE', #84, #321 ) ;
#353 = PERSON_AND_ORGANIZATION ( #237, #297 ) ;
#354 = CIRCLE ( 'NONE', #312, 0.2999999999999999334 ) ;
#355 = CARTESIAN_POINT ( 'NONE',  ( 0.000000000000000000, 15.00000000000000000, -3.000000000000000444 ) ) ;
#356 = DATE_AND_TIME ( #140, #367 ) ;
#357 = CARTESIAN_POINT ( 'NONE',  ( 0.000000000000000000, 12.49999999999999822, 0.000000000000000000 ) ) ;
#358 = CARTESIAN_POINT ( 'NONE',  ( 0.000000000000000000, 12.49999999999999822, 2.649999999999999911 ) ) ;
#359 = DIRECTION ( 'NONE',  ( 0.000000000000000000, 0.000000000000000000, -1.000000000000000000 ) ) ;
#360 = AXIS2_PLACEMENT_3D ( 'NONE', #200, #28, #137 ) ;
#361 = EDGE_CURVE ( 'NONE', #161, #46, #91, .T. ) ;
#362 = CYLINDRICAL_SURFACE ( 'NONE', #79, 3.000000000000000444 ) ;
#363 = DIRECTION ( 'NONE',  ( 0.000000000000000000, 1.000000000000000000, 0.000000000000000000 ) ) ;
#364 = ORIENTED_EDGE ( 'NONE', *, *, #372, .F. ) ;
#365 = AXIS2_PLACEMENT_3D ( 'NONE', #290, #347, #86 ) ;
#366 = APPLICATION_CONTEXT ( 'configuration controlled 3d designs of mechanical parts and assemblies' ) ;
#367 = LOCAL_TIME ( 10, 11, 8.000000000000000000, #199 ) ;
#368 = ORIENTED_EDGE ( 'NONE', *, *, #291, .T. ) ;
#369 = PERSON_AND_ORGANIZATION ( #237, #297 ) ;
#370 = EDGE_LOOP ( 'NONE', ( #271, #246, #13, #48 ) ) ;
#371 = AXIS2_PLACEMENT_3D ( 'NONE', #295, #113, #81 ) ;
#372 = EDGE_CURVE ( 'NONE', #187, #283, #227, .T. ) ;
#373 = EDGE_LOOP ( 'NONE', ( #153, #9 ) ) ;
#374 = APPROVAL_ROLE ( '' ) ;
#375 = EDGE_LOOP ( 'NONE', ( #172, #333, #305, #148 ) ) ;
#376 = DIRECTION ( 'NONE',  ( 0.000000000000000000, 1.000000000000000000, 0.000000000000000000 ) ) ;
#377 = AXIS2_PLACEMENT_3D ( 'NONE', #171, #204, #53 ) ;
#378 = COORDINATED_UNIVERSAL_TIME_OFFSET ( 3, 0, .BEHIND. ) ;
#379 = DIRECTION ( 'NONE',  ( -0.000000000000000000, -1.000000000000000000, -0.000000000000000000 ) ) ;
#380 = CARTESIAN_POINT ( 'NONE',  ( 0.000000000000000000, 0.2999999999999999334, 0.000000000000000000 ) ) ;
#381 = AXIS2_PLACEMENT_3D ( 'NONE', #57, #141, #266 ) ;
ENDSEC;
END-ISO-10303-21;
