ISO-10303-21;
HEADER;
FILE_DESCRIPTION (( 'STEP AP203' ),
    '1' );
FILE_NAME ('part jig 03.STEP',
    '2026-08-19T13:13:56',
    ( '' ),
    ( '' ),
    'SwSTEP 2.0',
    'SolidWorks 2026',
    '' );
FILE_SCHEMA (( 'CONFIG_CONTROL_DESIGN' ));
ENDSEC;

DATA;
#1 = DIRECTION ( 'NONE',  ( -0.000000000000000000, -1.000000000000000000, -0.000000000000000000 ) ) ;
#2 = FACE_BOUND ( 'NONE', #476, .T. ) ;
#3 = ORIENTED_EDGE ( 'NONE', *, *, #211, .T. ) ;
#4 = FACE_BOUND ( 'NONE', #52, .T. ) ;
#5 = VERTEX_POINT ( 'NONE', #30 ) ;
#6 = CYLINDRICAL_SURFACE ( 'NONE', #448, 2.750000000000030198 ) ;
#7 = ORIENTED_EDGE ( 'NONE', *, *, #189, .F. ) ;
#8 = LOCAL_TIME ( 10, 13, 56.00000000000000000, #184 ) ;
#9 = CYLINDRICAL_SURFACE ( 'NONE', #125, 2.750000000000030198 ) ;
#10 = VERTEX_POINT ( 'NONE', #221 ) ;
#11 = CARTESIAN_POINT ( 'NONE',  ( -580.2827169726658667, 835.4189444065103771, 41.00000000000000000 ) ) ;
#12 = ORIENTED_EDGE ( 'NONE', *, *, #211, .F. ) ;
#13 = LINE ( 'NONE', #338, #45 ) ;
#14 = ORIENTED_EDGE ( 'NONE', *, *, #454, .F. ) ;
#15 = VECTOR ( 'NONE', #430, 1000.000000000000000 ) ;
#16 = CARTESIAN_POINT ( 'NONE',  ( -592.2827169726657530, 986.4189444065101497, 0.000000000000000000 ) ) ;
#17 = APPROVAL ( #193, 'UNSPECIFIED' ) ;
#18 = DIRECTION ( 'NONE',  ( 0.7071067811865474617, 0.7071067811865474617, 0.000000000000000000 ) ) ;
#19 = MECHANICAL_CONTEXT ( 'NONE', #39, 'mechanical' ) ;
#20 = DIRECTION ( 'NONE',  ( 0.7071067811865474617, 0.7071067811865474617, 0.000000000000000000 ) ) ;
#21 = PERSON_AND_ORGANIZATION_ROLE ( 'design_owner' ) ;
#22 = VERTEX_POINT ( 'NONE', #185 ) ;
#23 = PERSON ( 'UNSPECIFIED', 'UNSPECIFIED', 'UNSPECIFIED', ('UNSPECIFIED'), ('UNSPECIFIED'), ('UNSPECIFIED') ) ;
#24 = EDGE_CURVE ( 'NONE', #138, #486, #424, .T. ) ;
#25 = CIRCLE ( 'NONE', #225, 2.750000000000030198 ) ;
#26 = DIRECTION ( 'NONE',  ( 0.000000000000000000, 1.000000000000000000, 0.000000000000000000 ) ) ;
#27 = ORIENTED_EDGE ( 'NONE', *, *, #484, .F. ) ;
#28 = CC_DESIGN_PERSON_AND_ORGANIZATION_ASSIGNMENT ( #274, #33, ( #347 ) ) ;
#29 = PERSON_AND_ORGANIZATION ( #23, #220 ) ;
#30 = CARTESIAN_POINT ( 'NONE',  ( -577.5327169726657530, 975.4189444065103771, 41.00000000000000000 ) ) ;
#31 = COORDINATED_UNIVERSAL_TIME_OFFSET ( 3, 0, .BEHIND. ) ;
#32 = DIRECTION ( 'NONE',  ( -0.7071067811865475727, 0.7071067811865475727, 0.000000000000000000 ) ) ;
#33 = PERSON_AND_ORGANIZATION_ROLE ( 'creator' ) ;
#34 = AXIS2_PLACEMENT_3D ( 'NONE', #248, #133, #89 ) ;
#35 = CARTESIAN_POINT ( 'NONE',  ( -592.2827169726657530, 986.4189444065101497, 41.00000000000000000 ) ) ;
#36 = CC_DESIGN_PERSON_AND_ORGANIZATION_ASSIGNMENT ( #303, #21, ( #334 ) ) ;
#37 = AXIS2_PLACEMENT_3D ( 'NONE', #265, #498, #458 ) ;
#38 = ORIENTED_EDGE ( 'NONE', *, *, #176, .F. ) ;
#39 = APPLICATION_CONTEXT ( 'configuration controlled 3d designs of mechanical parts and assemblies' ) ;
#40 = DIRECTION ( 'NONE',  ( 0.000000000000000000, 0.000000000000000000, 1.000000000000000000 ) ) ;
#41 = ORIENTED_EDGE ( 'NONE', *, *, #108, .F. ) ;
#42 = DIRECTION ( 'NONE',  ( 0.000000000000000000, 0.000000000000000000, 1.000000000000000000 ) ) ;
#43 = EDGE_CURVE ( 'NONE', #22, #289, #459, .T. ) ;
#44 = LINE ( 'NONE', #199, #315 ) ;
#45 = VECTOR ( 'NONE', #182, 1000.000000000000000 ) ;
#46 = ORIENTED_EDGE ( 'NONE', *, *, #473, .F. ) ;
#47 = EDGE_CURVE ( 'NONE', #486, #289, #385, .T. ) ;
#48 = CARTESIAN_POINT ( 'NONE',  ( 0.000000000000000000, 0.000000000000000000, 0.000000000000000000 ) ) ;
#49 = ORIENTED_EDGE ( 'NONE', *, *, #47, .T. ) ;
#50 = DIRECTION ( 'NONE',  ( -1.000000000000000000, -0.000000000000000000, -0.000000000000000000 ) ) ;
#51 = ADVANCED_FACE ( 'NONE', ( #191 ), #349, .F. ) ;
#52 = EDGE_LOOP ( 'NONE', ( #27, #213 ) ) ;
#53 = LINE ( 'NONE', #296, #370 ) ;
#54 = EDGE_CURVE ( 'NONE', #294, #372, #65, .T. ) ;
#55 = VERTEX_POINT ( 'NONE', #342 ) ;
#56 = AXIS2_PLACEMENT_3D ( 'NONE', #100, #453, #246 ) ;
#57 = VECTOR ( 'NONE', #517, 1000.000000000000000 ) ;
#58 = LOCAL_TIME ( 10, 13, 56.00000000000000000, #31 ) ;
#59 = DIRECTION ( 'NONE',  ( -1.000000000000000000, 0.000000000000000000, 0.000000000000000000 ) ) ;
#60 = VERTEX_POINT ( 'NONE', #506 ) ;
#61 = LINE ( 'NONE', #288, #83 ) ;
#62 = EDGE_LOOP ( 'NONE', ( #278, #394, #210, #377 ) ) ;
#63 = EDGE_CURVE ( 'NONE', #408, #361, #311, .T. ) ;
#64 = CARTESIAN_POINT ( 'NONE',  ( -577.5327169726658667, 835.4189444065103771, 41.00000000000000000 ) ) ;
#65 = LINE ( 'NONE', #462, #186 ) ;
#66 = AXIS2_PLACEMENT_3D ( 'NONE', #437, #129, #235 ) ;
#67 = SHAPE_DEFINITION_REPRESENTATION ( #175, #309 ) ;
#68 = APPROVAL_PERSON_ORGANIZATION ( #399, #17, #157 ) ;
#69 = FACE_OUTER_BOUND ( 'NONE', #232, .T. ) ;
#70 = EDGE_LOOP ( 'NONE', ( #250, #242, #455, #41, #445, #207, #466, #258 ) ) ;
#71 = LINE ( 'NONE', #64, #512 ) ;
#72 = DIRECTION ( 'NONE',  ( -0.000000000000000000, -0.000000000000000000, -1.000000000000000000 ) ) ;
#73 = EDGE_CURVE ( 'NONE', #302, #96, #308, .T. ) ;
#74 = DIRECTION ( 'NONE',  ( 0.7071067811865474617, 0.7071067811865474617, 0.000000000000000000 ) ) ;
#75 =( GEOMETRIC_REPRESENTATION_CONTEXT ( 3 ) GLOBAL_UNCERTAINTY_ASSIGNED_CONTEXT ( ( #256 ) ) GLOBAL_UNIT_ASSIGNED_CONTEXT ( ( #387, #103, #267 ) ) REPRESENTATION_CONTEXT ( 'NONE', 'WORKASPACE' ) );
#76 = DATE_TIME_ROLE ( 'classification_date' ) ;
#77 = CARTESIAN_POINT ( 'NONE',  ( -583.0327169726657530, 975.4189444065103771, 41.00000000000000000 ) ) ;
#78 = CALENDAR_DATE ( 2026, 19, 8 ) ;
#79 = FACE_OUTER_BOUND ( 'NONE', #236, .T. ) ;
#80 = CALENDAR_DATE ( 2026, 19, 8 ) ;
#81 = DIRECTION ( 'NONE',  ( -0.7071067811865474617, -0.7071067811865474617, -0.000000000000000000 ) ) ;
#82 = VERTEX_POINT ( 'NONE', #468 ) ;
#83 = VECTOR ( 'NONE', #415, 1000.000000000000000 ) ;
#84 = CARTESIAN_POINT ( 'NONE',  ( -580.2827169726658667, 835.4189444065103771, 0.000000000000000000 ) ) ;
#85 = CIRCLE ( 'NONE', #494, 2.750000000000030198 ) ;
#86 = DIRECTION ( 'NONE',  ( -0.000000000000000000, -0.000000000000000000, -1.000000000000000000 ) ) ;
#87 = EDGE_CURVE ( 'NONE', #22, #294, #429, .T. ) ;
#88 = CARTESIAN_POINT ( 'NONE',  ( -569.2827169726657530, 987.4189444065101497, 41.00000000000000000 ) ) ;
#89 = DIRECTION ( 'NONE',  ( 1.000000000000000000, 0.000000000000000000, 0.000000000000000000 ) ) ;
#90 = AXIS2_PLACEMENT_3D ( 'NONE', #11, #329, #335 ) ;
#91 = APPROVAL_PERSON_ORGANIZATION ( #190, #285, #396 ) ;
#92 = ORIENTED_EDGE ( 'NONE', *, *, #176, .T. ) ;
#93 = DIRECTION ( 'NONE',  ( -1.000000000000000000, 0.000000000000000000, 0.000000000000000000 ) ) ;
#94 = ORIENTED_EDGE ( 'NONE', *, *, #395, .T. ) ;
#95 = LINE ( 'NONE', #410, #171 ) ;
#96 = VERTEX_POINT ( 'NONE', #218 ) ;
#97 = CARTESIAN_POINT ( 'NONE',  ( -568.2827169726657530, 824.4189444065100361, 41.00000000000000000 ) ) ;
#98 = ORIENTED_EDGE ( 'NONE', *, *, #189, .T. ) ;
#99 = VECTOR ( 'NONE', #74, 1000.000000000000114 ) ;
#100 = CARTESIAN_POINT ( 'NONE',  ( 0.000000000000000000, 0.000000000000000000, 41.00000000000000000 ) ) ;
#101 = ORIENTED_EDGE ( 'NONE', *, *, #43, .F. ) ;
#102 = EDGE_CURVE ( 'NONE', #5, #104, #25, .T. ) ;
#103 =( NAMED_UNIT ( * ) PLANE_ANGLE_UNIT ( ) SI_UNIT ( $, .RADIAN. ) );
#104 = VERTEX_POINT ( 'NONE', #77 ) ;
#105 = CARTESIAN_POINT ( 'NONE',  ( -577.5327169726658667, 835.4189444065103771, 41.00000000000000000 ) ) ;
#106 = DIRECTION ( 'NONE',  ( -0.000000000000000000, -0.000000000000000000, -1.000000000000000000 ) ) ;
#107 = CIRCLE ( 'NONE', #401, 2.750000000000030198 ) ;
#108 = EDGE_CURVE ( 'NONE', #289, #372, #351, .T. ) ;
#109 = CARTESIAN_POINT ( 'NONE',  ( -577.5327169726657530, 975.4189444065103771, 41.00000000000000000 ) ) ;
#110 = ORIENTED_EDGE ( 'NONE', *, *, #269, .T. ) ;
#111 = FACE_OUTER_BOUND ( 'NONE', #165, .T. ) ;
#112 = ORIENTED_EDGE ( 'NONE', *, *, #24, .T. ) ;
#113 = CARTESIAN_POINT ( 'NONE',  ( -580.2827169726657530, 975.4189444065103771, 0.000000000000000000 ) ) ;
#114 = CARTESIAN_POINT ( 'NONE',  ( -591.2827169726657530, 823.4189444065100361, 41.00000000000000000 ) ) ;
#115 = AXIS2_PLACEMENT_3D ( 'NONE', #164, #127, #322 ) ;
#116 = LOCAL_TIME ( 10, 13, 56.00000000000000000, #474 ) ;
#117 = SECURITY_CLASSIFICATION_LEVEL ( 'unclassified' ) ;
#118 = LINE ( 'NONE', #35, #305 ) ;
#119 = EDGE_CURVE ( 'NONE', #183, #302, #44, .T. ) ;
#120 = PERSON_AND_ORGANIZATION_ROLE ( 'creator' ) ;
#121 = DIRECTION ( 'NONE',  ( 1.000000000000000000, 0.000000000000000000, 0.000000000000000000 ) ) ;
#122 = ORIENTED_EDGE ( 'NONE', *, *, #161, .T. ) ;
#123 = CARTESIAN_POINT ( 'NONE',  ( -583.0327169726658667, 835.4189444065103771, 0.000000000000000000 ) ) ;
#124 = ORIENTED_EDGE ( 'NONE', *, *, #300, .T. ) ;
#125 = AXIS2_PLACEMENT_3D ( 'NONE', #208, #332, #59 ) ;
#126 = ADVANCED_FACE ( 'NONE', ( #240 ), #195, .F. ) ;
#127 = DIRECTION ( 'NONE',  ( 0.7071067811865475727, 0.7071067811865475727, -0.000000000000000000 ) ) ;
#128 = AXIS2_PLACEMENT_3D ( 'NONE', #501, #26, #381 ) ;
#129 = DIRECTION ( 'NONE',  ( 0.000000000000000000, -1.000000000000000000, 0.000000000000000000 ) ) ;
#130 = ORIENTED_EDGE ( 'NONE', *, *, #375, .T. ) ;
#131 = DIRECTION ( 'NONE',  ( 0.000000000000000000, 1.000000000000000000, 0.000000000000000000 ) ) ;
#132 = ADVANCED_FACE ( 'NONE', ( #277 ), #435, .F. ) ;
#133 = DIRECTION ( 'NONE',  ( 0.000000000000000000, 0.000000000000000000, 1.000000000000000000 ) ) ;
#134 = CIRCLE ( 'NONE', #180, 2.750000000000030198 ) ;
#135 = CC_DESIGN_APPROVAL ( #389, ( #287 ) ) ;
#136 = ORIENTED_EDGE ( 'NONE', *, *, #513, .T. ) ;
#137 = CARTESIAN_POINT ( 'NONE',  ( -591.2827169726657530, 987.4189444065101497, 41.00000000000000000 ) ) ;
#138 = VERTEX_POINT ( 'NONE', #241 ) ;
#139 = DIRECTION ( 'NONE',  ( -0.000000000000000000, -0.000000000000000000, -1.000000000000000000 ) ) ;
#140 = ORIENTED_EDGE ( 'NONE', *, *, #226, .F. ) ;
#141 = DIRECTION ( 'NONE',  ( 0.000000000000000000, 0.000000000000000000, 1.000000000000000000 ) ) ;
#142 = ORIENTED_EDGE ( 'NONE', *, *, #314, .F. ) ;
#143 = VECTOR ( 'NONE', #18, 1000.000000000000114 ) ;
#144 = DIRECTION ( 'NONE',  ( -1.000000000000000000, 0.000000000000000000, 0.000000000000000000 ) ) ;
#145 = EDGE_CURVE ( 'NONE', #96, #486, #275, .T. ) ;
#146 = ORIENTED_EDGE ( 'NONE', *, *, #314, .T. ) ;
#147 = CARTESIAN_POINT ( 'NONE',  ( -591.2827169726657530, 823.4189444065100361, 0.000000000000000000 ) ) ;
#148 = CARTESIAN_POINT ( 'NONE',  ( -591.2827169726657530, 823.4189444065100361, 0.000000000000000000 ) ) ;
#149 = ORIENTED_EDGE ( 'NONE', *, *, #63, .F. ) ;
#150 = VECTOR ( 'NONE', #50, 1000.000000000000000 ) ;
#151 = LINE ( 'NONE', #109, #202 ) ;
#152 = DIRECTION ( 'NONE',  ( 0.7071067811865475727, -0.7071067811865475727, 0.000000000000000000 ) ) ;
#153 = ORIENTED_EDGE ( 'NONE', *, *, #375, .F. ) ;
#154 = PERSON_AND_ORGANIZATION ( #23, #220 ) ;
#155 = CARTESIAN_POINT ( 'NONE',  ( -568.2827169726657530, 824.4189444065100361, 41.00000000000000000 ) ) ;
#156 = VECTOR ( 'NONE', #281, 1000.000000000000114 ) ;
#157 = APPROVAL_ROLE ( '' ) ;
#158 = CARTESIAN_POINT ( 'NONE',  ( -569.2827169726657530, 823.4189444065100361, 41.00000000000000000 ) ) ;
#159 = DATE_AND_TIME ( #233, #472 ) ;
#160 = LINE ( 'NONE', #481, #286 ) ;
#161 = EDGE_CURVE ( 'NONE', #302, #138, #160, .T. ) ;
#162 = DIRECTION ( 'NONE',  ( -0.7071067811865474617, 0.7071067811865474617, -0.000000000000000000 ) ) ;
#163 = CIRCLE ( 'NONE', #34, 2.750000000000030198 ) ;
#164 = CARTESIAN_POINT ( 'NONE',  ( -591.2827169726657530, 823.4189444065100361, 41.00000000000000000 ) ) ;
#165 = EDGE_LOOP ( 'NONE', ( #304, #284, #38, #336 ) ) ;
#166 = FACE_OUTER_BOUND ( 'NONE', #292, .T. ) ;
#167 = EDGE_CURVE ( 'NONE', #179, #60, #282, .T. ) ;
#168 = FACE_OUTER_BOUND ( 'NONE', #450, .T. ) ;
#169 = ORIENTED_EDGE ( 'NONE', *, *, #249, .F. ) ;
#170 = CARTESIAN_POINT ( 'NONE',  ( -580.2827169726658667, 835.4189444065103771, 41.00000000000000000 ) ) ;
#171 = VECTOR ( 'NONE', #371, 1000.000000000000000 ) ;
#172 = ORIENTED_EDGE ( 'NONE', *, *, #119, .F. ) ;
#173 = CARTESIAN_POINT ( 'NONE',  ( -591.2827169726657530, 987.4189444065101497, 41.00000000000000000 ) ) ;
#174 = ORIENTED_EDGE ( 'NONE', *, *, #226, .T. ) ;
#175 = PRODUCT_DEFINITION_SHAPE ( 'NONE', 'NONE',  #347 ) ;
#176 = EDGE_CURVE ( 'NONE', #408, #179, #238, .T. ) ;
#177 = CARTESIAN_POINT ( 'NONE',  ( -592.2827169726657530, 824.4189444065100361, 41.00000000000000000 ) ) ;
#178 = ORIENTED_EDGE ( 'NONE', *, *, #261, .T. ) ;
#179 = VERTEX_POINT ( 'NONE', #88 ) ;
#180 = AXIS2_PLACEMENT_3D ( 'NONE', #406, #42, #252 ) ;
#181 = ORIENTED_EDGE ( 'NONE', *, *, #102, .T. ) ;
#182 = DIRECTION ( 'NONE',  ( -0.000000000000000000, -0.000000000000000000, -1.000000000000000000 ) ) ;
#183 = VERTEX_POINT ( 'NONE', #511 ) ;
#184 = COORDINATED_UNIVERSAL_TIME_OFFSET ( 3, 0, .BEHIND. ) ;
#185 = CARTESIAN_POINT ( 'NONE',  ( -569.2827169726657530, 823.4189444065100361, 41.00000000000000000 ) ) ;
#186 = VECTOR ( 'NONE', #263, 1000.000000000000000 ) ;
#187 = DIRECTION ( 'NONE',  ( -0.000000000000000000, -0.000000000000000000, -1.000000000000000000 ) ) ;
#188 = CARTESIAN_POINT ( 'NONE',  ( -569.2827169726657530, 823.4189444065100361, 41.00000000000000000 ) ) ;
#189 = EDGE_CURVE ( 'NONE', #10, #183, #118, .T. ) ;
#190 = PERSON_AND_ORGANIZATION ( #23, #220 ) ;
#191 = FACE_OUTER_BOUND ( 'NONE', #318, .T. ) ;
#192 = APPLICATION_CONTEXT ( 'configuration controlled 3d designs of mechanical parts and assemblies' ) ;
#193 = APPROVAL_STATUS ( 'not_yet_approved' ) ;
#194 = ADVANCED_FACE ( 'NONE', ( #203 ), #508, .F. ) ;
#195 = PLANE ( 'NONE',  #446 ) ;
#196 = SECURITY_CLASSIFICATION ( '', '', #117 ) ;
#197 = COORDINATED_UNIVERSAL_TIME_OFFSET ( 3, 0, .BEHIND. ) ;
#198 = DIRECTION ( 'NONE',  ( 0.000000000000000000, 0.000000000000000000, -1.000000000000000000 ) ) ;
#199 = CARTESIAN_POINT ( 'NONE',  ( -592.2827169726657530, 824.4189444065100361, 41.00000000000000000 ) ) ;
#200 = LINE ( 'NONE', #317, #487 ) ;
#201 = VECTOR ( 'NONE', #212, 1000.000000000000000 ) ;
#202 = VECTOR ( 'NONE', #348, 1000.000000000000000 ) ;
#203 = FACE_OUTER_BOUND ( 'NONE', #457, .T. ) ;
#204 = LINE ( 'NONE', #173, #150 ) ;
#205 = ORIENTED_EDGE ( 'NONE', *, *, #290, .T. ) ;
#206 = CARTESIAN_POINT ( 'NONE',  ( -568.2827169726657530, 986.4189444065101497, 41.00000000000000000 ) ) ;
#207 = ORIENTED_EDGE ( 'NONE', *, *, #145, .F. ) ;
#208 = CARTESIAN_POINT ( 'NONE',  ( -580.2827169726657530, 975.4189444065103771, 41.00000000000000000 ) ) ;
#209 = VECTOR ( 'NONE', #260, 1000.000000000000000 ) ;
#210 = ORIENTED_EDGE ( 'NONE', *, *, #161, .F. ) ;
#211 = EDGE_CURVE ( 'NONE', #138, #22, #443, .T. ) ;
#212 = DIRECTION ( 'NONE',  ( 0.000000000000000000, 1.000000000000000000, 0.000000000000000000 ) ) ;
#213 = ORIENTED_EDGE ( 'NONE', *, *, #102, .F. ) ;
#214 = DIRECTION ( 'NONE',  ( 0.000000000000000000, 0.000000000000000000, 1.000000000000000000 ) ) ;
#215 = ORIENTED_EDGE ( 'NONE', *, *, #386, .T. ) ;
#216 = EDGE_CURVE ( 'NONE', #361, #60, #200, .T. ) ;
#217 = LINE ( 'NONE', #301, #433 ) ;
#218 = CARTESIAN_POINT ( 'NONE',  ( -592.2827169726657530, 824.4189444065100361, 0.000000000000000000 ) ) ;
#219 = CIRCLE ( 'NONE', #328, 2.750000000000030198 ) ;
#220 = ORGANIZATION ( 'UNSPECIFIED', 'UNSPECIFIED', '' ) ;
#221 = CARTESIAN_POINT ( 'NONE',  ( -591.2827169726657530, 987.4189444065101497, 41.00000000000000000 ) ) ;
#222 = CARTESIAN_POINT ( 'NONE',  ( -592.2827169726657530, 986.4189444065101497, 41.00000000000000000 ) ) ;
#223 = CARTESIAN_POINT ( 'NONE',  ( -592.2827169726657530, 824.4189444065100361, 41.00000000000000000 ) ) ;
#224 = DIRECTION ( 'NONE',  ( 0.000000000000000000, 0.000000000000000000, 1.000000000000000000 ) ) ;
#225 = AXIS2_PLACEMENT_3D ( 'NONE', #271, #224, #432 ) ;
#226 = EDGE_CURVE ( 'NONE', #482, #245, #219, .T. ) ;
#227 = CALENDAR_DATE ( 2026, 19, 8 ) ;
#228 = DATE_TIME_ROLE ( 'creation_date' ) ;
#229 = EDGE_LOOP ( 'NONE', ( #452, #149, #369, #416 ) ) ;
#230 = DATE_AND_TIME ( #78, #58 ) ;
#231 = PLANE ( 'NONE',  #264 ) ;
#232 = EDGE_LOOP ( 'NONE', ( #49, #101, #12, #112 ) ) ;
#233 = CALENDAR_DATE ( 2026, 19, 8 ) ;
#234 = ADVANCED_FACE ( 'NONE', ( #360 ), #407, .F. ) ;
#235 = DIRECTION ( 'NONE',  ( 0.000000000000000000, -0.000000000000000000, -1.000000000000000000 ) ) ;
#236 = EDGE_LOOP ( 'NONE', ( #215, #491, #172, #268 ) ) ;
#237 = VECTOR ( 'NONE', #438, 1000.000000000000000 ) ;
#238 = LINE ( 'NONE', #319, #295 ) ;
#239 = ORIENTED_EDGE ( 'NONE', *, *, #167, .T. ) ;
#240 = FACE_OUTER_BOUND ( 'NONE', #255, .T. ) ;
#241 = CARTESIAN_POINT ( 'NONE',  ( -591.2827169726657530, 823.4189444065100361, 41.00000000000000000 ) ) ;
#242 = ORIENTED_EDGE ( 'NONE', *, *, #216, .F. ) ;
#243 = VECTOR ( 'NONE', #449, 1000.000000000000000 ) ;
#244 = CARTESIAN_POINT ( 'NONE',  ( -580.2827169726657530, 975.4189444065103771, 41.00000000000000000 ) ) ;
#245 = VERTEX_POINT ( 'NONE', #123 ) ;
#246 = DIRECTION ( 'NONE',  ( 1.000000000000000000, 0.000000000000000000, -0.000000000000000000 ) ) ;
#247 = ORIENTED_EDGE ( 'NONE', *, *, #306, .T. ) ;
#248 = CARTESIAN_POINT ( 'NONE',  ( -580.2827169726658667, 835.4189444065103771, 41.00000000000000000 ) ) ;
#249 = EDGE_CURVE ( 'NONE', #419, #330, #391, .T. ) ;
#250 = ORIENTED_EDGE ( 'NONE', *, *, #306, .F. ) ;
#251 = VECTOR ( 'NONE', #106, 1000.000000000000000 ) ;
#252 = DIRECTION ( 'NONE',  ( 1.000000000000000000, 0.000000000000000000, 0.000000000000000000 ) ) ;
#253 = CC_DESIGN_APPROVAL ( #17, ( #347 ) ) ;
#254 = CC_DESIGN_PERSON_AND_ORGANIZATION_ASSIGNMENT ( #154, #120, ( #287 ) ) ;
#255 = EDGE_LOOP ( 'NONE', ( #411, #514, #402, #392 ) ) ;
#256 = UNCERTAINTY_MEASURE_WITH_UNIT (LENGTH_MEASURE( 1.000000000000000082E-05 ), #387, 'distance_accuracy_value', 'NONE');
#257 = LINE ( 'NONE', #97, #201 ) ;
#258 = ORIENTED_EDGE ( 'NONE', *, *, #423, .F. ) ;
#259 = ADVANCED_FACE ( 'NONE', ( #79 ), #231, .F. ) ;
#260 = DIRECTION ( 'NONE',  ( -0.000000000000000000, -0.000000000000000000, -1.000000000000000000 ) ) ;
#261 = EDGE_CURVE ( 'NONE', #55, #245, #357, .T. ) ;
#262 = APPLICATION_PROTOCOL_DEFINITION ( 'international standard', 'config_control_design', 1994, #39 ) ;
#263 = DIRECTION ( 'NONE',  ( -0.000000000000000000, -0.000000000000000000, -1.000000000000000000 ) ) ;
#264 = AXIS2_PLACEMENT_3D ( 'NONE', #400, #320, #198 ) ;
#265 = CARTESIAN_POINT ( 'NONE',  ( -569.2827169726657530, 987.4189444065101497, 41.00000000000000000 ) ) ;
#266 = CARTESIAN_POINT ( 'NONE',  ( -568.2827169726657530, 986.4189444065101497, 41.00000000000000000 ) ) ;
#267 =( NAMED_UNIT ( * ) SI_UNIT ( $, .STERADIAN. ) SOLID_ANGLE_UNIT ( ) );
#268 = ORIENTED_EDGE ( 'NONE', *, *, #454, .T. ) ;
#269 = EDGE_CURVE ( 'NONE', #500, #55, #134, .T. ) ;
#270 = LINE ( 'NONE', #222, #15 ) ;
#271 = CARTESIAN_POINT ( 'NONE',  ( -580.2827169726657530, 975.4189444065103771, 41.00000000000000000 ) ) ;
#272 = COORDINATED_UNIVERSAL_TIME_OFFSET ( 3, 0, .BEHIND. ) ;
#273 = CARTESIAN_POINT ( 'NONE',  ( -591.2827169726657530, 823.4189444065100361, 0.000000000000000000 ) ) ;
#274 = PERSON_AND_ORGANIZATION ( #23, #220 ) ;
#275 = LINE ( 'NONE', #273, #156 ) ;
#276 = CC_DESIGN_DATE_AND_TIME_ASSIGNMENT ( #230, #76, ( #196 ) ) ;
#277 = FACE_OUTER_BOUND ( 'NONE', #62, .T. ) ;
#278 = ORIENTED_EDGE ( 'NONE', *, *, #145, .T. ) ;
#279 = VECTOR ( 'NONE', #345, 1000.000000000000000 ) ;
#280 = VECTOR ( 'NONE', #72, 1000.000000000000000 ) ;
#281 = DIRECTION ( 'NONE',  ( 0.7071067811865474617, -0.7071067811865474617, -0.000000000000000000 ) ) ;
#282 = LINE ( 'NONE', #353, #237 ) ;
#283 = CARTESIAN_POINT ( 'NONE',  ( -568.2827169726657530, 824.4189444065100361, 0.000000000000000000 ) ) ;
#284 = ORIENTED_EDGE ( 'NONE', *, *, #167, .F. ) ;
#285 = APPROVAL ( #436, 'UNSPECIFIED' ) ;
#286 = VECTOR ( 'NONE', #358, 1000.000000000000114 ) ;
#287 = PRODUCT_DEFINITION_FORMATION_WITH_SPECIFIED_SOURCE ( 'ANY', '', #334, .NOT_KNOWN. ) ;
#288 = CARTESIAN_POINT ( 'NONE',  ( -591.2827169726657530, 987.4189444065101497, 0.000000000000000000 ) ) ;
#289 = VERTEX_POINT ( 'NONE', #490 ) ;
#290 = EDGE_CURVE ( 'NONE', #294, #408, #257, .T. ) ;
#291 = CYLINDRICAL_SURFACE ( 'NONE', #463, 2.750000000000030198 ) ;
#292 = EDGE_LOOP ( 'NONE', ( #124, #439, #153, #398 ) ) ;
#293 = DIRECTION ( 'NONE',  ( 0.000000000000000000, 0.000000000000000000, 1.000000000000000000 ) ) ;
#294 = VERTEX_POINT ( 'NONE', #488 ) ;
#295 = VECTOR ( 'NONE', #403, 1000.000000000000114 ) ;
#296 = CARTESIAN_POINT ( 'NONE',  ( -568.2827169726657530, 824.4189444065100361, 0.000000000000000000 ) ) ;
#297 = CIRCLE ( 'NONE', #382, 2.750000000000030198 ) ;
#298 = ORIENTED_EDGE ( 'NONE', *, *, #497, .F. ) ;
#299 = ORIENTED_EDGE ( 'NONE', *, *, #269, .F. ) ;
#300 = EDGE_CURVE ( 'NONE', #55, #500, #163, .T. ) ;
#301 = CARTESIAN_POINT ( 'NONE',  ( -592.2827169726657530, 986.4189444065101497, 0.000000000000000000 ) ) ;
#302 = VERTEX_POINT ( 'NONE', #177 ) ;
#303 = PERSON_AND_ORGANIZATION ( #23, #220 ) ;
#304 = ORIENTED_EDGE ( 'NONE', *, *, #216, .T. ) ;
#305 = VECTOR ( 'NONE', #81, 1000.000000000000114 ) ;
#306 = EDGE_CURVE ( 'NONE', #60, #82, #61, .T. ) ;
#307 = DIRECTION ( 'NONE',  ( 0.000000000000000000, 0.000000000000000000, 1.000000000000000000 ) ) ;
#308 = LINE ( 'NONE', #223, #251 ) ;
#309 = ADVANCED_BREP_SHAPE_REPRESENTATION ( 'part jig 03', ( #379, #440 ), #75 ) ;
#310 = DIRECTION ( 'NONE',  ( 0.000000000000000000, 0.000000000000000000, 1.000000000000000000 ) ) ;
#311 = LINE ( 'NONE', #266, #280 ) ;
#312 = APPROVAL_STATUS ( 'not_yet_approved' ) ;
#313 = DIRECTION ( 'NONE',  ( -1.000000000000000000, 0.000000000000000000, 0.000000000000000000 ) ) ;
#314 = EDGE_CURVE ( 'NONE', #10, #82, #373, .T. ) ;
#315 = VECTOR ( 'NONE', #1, 1000.000000000000000 ) ;
#316 = APPROVAL_DATE_TIME ( #159, #389 ) ;
#317 = CARTESIAN_POINT ( 'NONE',  ( -569.2827169726657530, 987.4189444065101497, 0.000000000000000000 ) ) ;
#318 = EDGE_LOOP ( 'NONE', ( #364, #14, #7, #146 ) ) ;
#319 = CARTESIAN_POINT ( 'NONE',  ( -569.2827169726657530, 987.4189444065101497, 41.00000000000000000 ) ) ;
#320 = DIRECTION ( 'NONE',  ( 1.000000000000000000, 0.000000000000000000, 0.000000000000000000 ) ) ;
#321 = ADVANCED_FACE ( 'NONE', ( #483 ), #291, .F. ) ;
#322 = DIRECTION ( 'NONE',  ( -0.7071067811865474617, 0.7071067811865474617, 0.000000000000000000 ) ) ;
#323 = ORIENTED_EDGE ( 'NONE', *, *, #442, .F. ) ;
#324 = DIRECTION ( 'NONE',  ( 1.000000000000000000, 0.000000000000000000, -0.000000000000000000 ) ) ;
#325 = CC_DESIGN_PERSON_AND_ORGANIZATION_ASSIGNMENT ( #356, #515, ( #196 ) ) ;
#326 = FACE_BOUND ( 'NONE', #366, .T. ) ;
#327 = ORIENTED_EDGE ( 'NONE', *, *, #484, .T. ) ;
#328 = AXIS2_PLACEMENT_3D ( 'NONE', #84, #397, #441 ) ;
#329 = DIRECTION ( 'NONE',  ( -0.000000000000000000, -0.000000000000000000, -1.000000000000000000 ) ) ;
#330 = VERTEX_POINT ( 'NONE', #365 ) ;
#331 = ADVANCED_FACE ( 'NONE', ( #451 ), #9, .F. ) ;
#332 = DIRECTION ( 'NONE',  ( -0.000000000000000000, -0.000000000000000000, -1.000000000000000000 ) ) ;
#333 = ORIENTED_EDGE ( 'NONE', *, *, #119, .T. ) ;
#334 = PRODUCT ( 'part jig 03', 'part jig 03', '', ( #19 ) ) ;
#335 = DIRECTION ( 'NONE',  ( -1.000000000000000000, 0.000000000000000000, 0.000000000000000000 ) ) ;
#336 = ORIENTED_EDGE ( 'NONE', *, *, #63, .T. ) ;
#337 = CLOSED_SHELL ( 'NONE', ( #343, #321, #404, #359, #194, #51, #259, #132, #477, #126, #234, #479, #331, #409 ) ) ;
#338 = CARTESIAN_POINT ( 'NONE',  ( -583.0327169726657530, 975.4189444065103771, 41.00000000000000000 ) ) ;
#339 = EDGE_LOOP ( 'NONE', ( #323, #181, #136, #46 ) ) ;
#340 = DIRECTION ( 'NONE',  ( -0.7071067811865474617, -0.7071067811865474617, -0.000000000000000000 ) ) ;
#341 = ORIENTED_EDGE ( 'NONE', *, *, #395, .F. ) ;
#342 = CARTESIAN_POINT ( 'NONE',  ( -583.0327169726658667, 835.4189444065103771, 41.00000000000000000 ) ) ;
#343 = ADVANCED_FACE ( 'NONE', ( #166 ), #420, .F. ) ;
#344 = DIRECTION ( 'NONE',  ( 1.000000000000000000, 0.000000000000000000, 0.000000000000000000 ) ) ;
#345 = DIRECTION ( 'NONE',  ( 1.000000000000000000, 0.000000000000000000, 0.000000000000000000 ) ) ;
#346 = CC_DESIGN_APPROVAL ( #285, ( #196 ) ) ;
#347 = PRODUCT_DEFINITION ( 'UNKNOWN', '', #287, #412 ) ;
#348 = DIRECTION ( 'NONE',  ( -0.000000000000000000, -0.000000000000000000, -1.000000000000000000 ) ) ;
#349 = PLANE ( 'NONE',  #362 ) ;
#350 = DATE_AND_TIME ( #393, #417 ) ;
#351 = LINE ( 'NONE', #383, #143 ) ;
#352 = APPROVAL_DATE_TIME ( #350, #17 ) ;
#353 = CARTESIAN_POINT ( 'NONE',  ( -569.2827169726657530, 987.4189444065101497, 41.00000000000000000 ) ) ;
#354 = VECTOR ( 'NONE', #86, 1000.000000000000000 ) ;
#355 = APPROVAL_PERSON_ORGANIZATION ( #434, #389, #507 ) ;
#356 = PERSON_AND_ORGANIZATION ( #23, #220 ) ;
#357 = LINE ( 'NONE', #480, #354 ) ;
#358 = DIRECTION ( 'NONE',  ( 0.7071067811865474617, -0.7071067811865474617, -0.000000000000000000 ) ) ;
#359 = ADVANCED_FACE ( 'NONE', ( #363, #418, #2 ), #492, .F. ) ;
#360 = FACE_OUTER_BOUND ( 'NONE', #229, .T. ) ;
#361 = VERTEX_POINT ( 'NONE', #413 ) ;
#362 = AXIS2_PLACEMENT_3D ( 'NONE', #422, #152, #20 ) ;
#363 = FACE_OUTER_BOUND ( 'NONE', #70, .T. ) ;
#364 = ORIENTED_EDGE ( 'NONE', *, *, #423, .T. ) ;
#365 = CARTESIAN_POINT ( 'NONE',  ( -577.5327169726657530, 975.4189444065103771, 0.000000000000000000 ) ) ;
#366 = EDGE_LOOP ( 'NONE', ( #464, #299 ) ) ;
#367 = FACE_OUTER_BOUND ( 'NONE', #496, .T. ) ;
#368 = EDGE_CURVE ( 'NONE', #372, #361, #53, .T. ) ;
#369 = ORIENTED_EDGE ( 'NONE', *, *, #290, .F. ) ;
#370 = VECTOR ( 'NONE', #131, 1000.000000000000000 ) ;
#371 = DIRECTION ( 'NONE',  ( -0.000000000000000000, -1.000000000000000000, -0.000000000000000000 ) ) ;
#372 = VERTEX_POINT ( 'NONE', #283 ) ;
#373 = LINE ( 'NONE', #137, #243 ) ;
#374 = ORIENTED_EDGE ( 'NONE', *, *, #87, .T. ) ;
#375 = EDGE_CURVE ( 'NONE', #245, #482, #107, .T. ) ;
#376 = DIRECTION ( 'NONE',  ( 1.000000000000000000, 0.000000000000000000, 0.000000000000000000 ) ) ;
#377 = ORIENTED_EDGE ( 'NONE', *, *, #73, .T. ) ;
#378 = CC_DESIGN_DATE_AND_TIME_ASSIGNMENT ( #509, #228, ( #347 ) ) ;
#379 = MANIFOLD_SOLID_BREP ( 'Saliente-Extruir1', #337 ) ;
#380 = AXIS2_PLACEMENT_3D ( 'NONE', #48, #141, #324 ) ;
#381 = DIRECTION ( 'NONE',  ( 0.000000000000000000, -0.000000000000000000, 1.000000000000000000 ) ) ;
#382 = AXIS2_PLACEMENT_3D ( 'NONE', #113, #310, #344 ) ;
#383 = CARTESIAN_POINT ( 'NONE',  ( -569.2827169726657530, 823.4189444065100361, 0.000000000000000000 ) ) ;
#384 = CARTESIAN_POINT ( 'NONE',  ( 0.000000000000000000, 0.000000000000000000, 0.000000000000000000 ) ) ;
#385 = LINE ( 'NONE', #148, #279 ) ;
#386 = EDGE_CURVE ( 'NONE', #489, #96, #95, .T. ) ;
#387 =( LENGTH_UNIT ( ) NAMED_UNIT ( * ) SI_UNIT ( .MILLI., .METRE. ) );
#388 = CARTESIAN_POINT ( 'NONE',  ( -569.2827169726657530, 823.4189444065100361, 41.00000000000000000 ) ) ;
#389 = APPROVAL ( #312, 'UNSPECIFIED' ) ;
#390 = PLANE ( 'NONE',  #128 ) ;
#391 = CIRCLE ( 'NONE', #510, 2.750000000000030198 ) ;
#392 = ORIENTED_EDGE ( 'NONE', *, *, #43, .T. ) ;
#393 = CALENDAR_DATE ( 2026, 19, 8 ) ;
#394 = ORIENTED_EDGE ( 'NONE', *, *, #24, .F. ) ;
#395 = EDGE_CURVE ( 'NONE', #179, #10, #204, .T. ) ;
#396 = APPROVAL_ROLE ( '' ) ;
#397 = DIRECTION ( 'NONE',  ( 0.000000000000000000, 0.000000000000000000, 1.000000000000000000 ) ) ;
#398 = ORIENTED_EDGE ( 'NONE', *, *, #261, .F. ) ;
#399 = PERSON_AND_ORGANIZATION ( #23, #220 ) ;
#400 = CARTESIAN_POINT ( 'NONE',  ( -592.2827169726657530, 824.4189444065100361, 41.00000000000000000 ) ) ;
#401 = AXIS2_PLACEMENT_3D ( 'NONE', #456, #293, #444 ) ;
#402 = ORIENTED_EDGE ( 'NONE', *, *, #87, .F. ) ;
#403 = DIRECTION ( 'NONE',  ( -0.7071067811865474617, 0.7071067811865474617, -0.000000000000000000 ) ) ;
#404 = ADVANCED_FACE ( 'NONE', ( #4, #168, #326 ), #485, .T. ) ;
#405 = EDGE_LOOP ( 'NONE', ( #327, #503, #169, #421 ) ) ;
#406 = CARTESIAN_POINT ( 'NONE',  ( -580.2827169726658667, 835.4189444065103771, 41.00000000000000000 ) ) ;
#407 = PLANE ( 'NONE',  #431 ) ;
#408 = VERTEX_POINT ( 'NONE', #206 ) ;
#409 = ADVANCED_FACE ( 'NONE', ( #367 ), #6, .F. ) ;
#410 = CARTESIAN_POINT ( 'NONE',  ( -592.2827169726657530, 824.4189444065100361, 0.000000000000000000 ) ) ;
#411 = ORIENTED_EDGE ( 'NONE', *, *, #108, .T. ) ;
#412 = DESIGN_CONTEXT ( 'detailed design', #192, 'design' ) ;
#413 = CARTESIAN_POINT ( 'NONE',  ( -568.2827169726657530, 986.4189444065101497, 0.000000000000000000 ) ) ;
#414 = ORIENTED_EDGE ( 'NONE', *, *, #249, .T. ) ;
#415 = DIRECTION ( 'NONE',  ( -1.000000000000000000, -0.000000000000000000, -0.000000000000000000 ) ) ;
#416 = ORIENTED_EDGE ( 'NONE', *, *, #54, .T. ) ;
#417 = LOCAL_TIME ( 10, 13, 56.00000000000000000, #272 ) ;
#418 = FACE_BOUND ( 'NONE', #493, .T. ) ;
#419 = VERTEX_POINT ( 'NONE', #461 ) ;
#420 = CYLINDRICAL_SURFACE ( 'NONE', #90, 2.750000000000030198 ) ;
#421 = ORIENTED_EDGE ( 'NONE', *, *, #513, .F. ) ;
#422 = CARTESIAN_POINT ( 'NONE',  ( -592.2827169726657530, 986.4189444065101497, 41.00000000000000000 ) ) ;
#423 = EDGE_CURVE ( 'NONE', #82, #489, #217, .T. ) ;
#424 = LINE ( 'NONE', #114, #470 ) ;
#425 = CARTESIAN_POINT ( 'NONE',  ( -577.5327169726658667, 835.4189444065103771, 0.000000000000000000 ) ) ;
#426 = PRODUCT_RELATED_PRODUCT_CATEGORY ( 'detail', '', ( #334 ) ) ;
#427 = DIRECTION ( 'NONE',  ( -0.000000000000000000, -0.000000000000000000, -1.000000000000000000 ) ) ;
#428 = APPLICATION_PROTOCOL_DEFINITION ( 'international standard', 'config_control_design', 1994, #192 ) ;
#429 = LINE ( 'NONE', #388, #99 ) ;
#430 = DIRECTION ( 'NONE',  ( -0.000000000000000000, -0.000000000000000000, -1.000000000000000000 ) ) ;
#431 = AXIS2_PLACEMENT_3D ( 'NONE', #155, #313, #471 ) ;
#432 = DIRECTION ( 'NONE',  ( 1.000000000000000000, 0.000000000000000000, 0.000000000000000000 ) ) ;
#433 = VECTOR ( 'NONE', #340, 1000.000000000000114 ) ;
#434 = PERSON_AND_ORGANIZATION ( #23, #220 ) ;
#435 = PLANE ( 'NONE',  #115 ) ;
#436 = APPROVAL_STATUS ( 'not_yet_approved' ) ;
#437 = CARTESIAN_POINT ( 'NONE',  ( -591.2827169726657530, 987.4189444065101497, 41.00000000000000000 ) ) ;
#438 = DIRECTION ( 'NONE',  ( -0.000000000000000000, -0.000000000000000000, -1.000000000000000000 ) ) ;
#439 = ORIENTED_EDGE ( 'NONE', *, *, #497, .T. ) ;
#440 = AXIS2_PLACEMENT_3D ( 'NONE', #384, #307, #465 ) ;
#441 = DIRECTION ( 'NONE',  ( 1.000000000000000000, 0.000000000000000000, 0.000000000000000000 ) ) ;
#442 = EDGE_CURVE ( 'NONE', #5, #330, #151, .T. ) ;
#443 = LINE ( 'NONE', #478, #57 ) ;
#444 = DIRECTION ( 'NONE',  ( 1.000000000000000000, 0.000000000000000000, 0.000000000000000000 ) ) ;
#445 = ORIENTED_EDGE ( 'NONE', *, *, #47, .F. ) ;
#446 = AXIS2_PLACEMENT_3D ( 'NONE', #158, #32, #516 ) ;
#447 = CC_DESIGN_PERSON_AND_ORGANIZATION_ASSIGNMENT ( #29, #469, ( #287 ) ) ;
#448 = AXIS2_PLACEMENT_3D ( 'NONE', #170, #187, #144 ) ;
#449 = DIRECTION ( 'NONE',  ( -0.000000000000000000, -0.000000000000000000, -1.000000000000000000 ) ) ;
#450 = EDGE_LOOP ( 'NONE', ( #94, #98, #333, #122, #3, #374, #205, #92 ) ) ;
#451 = FACE_OUTER_BOUND ( 'NONE', #339, .T. ) ;
#452 = ORIENTED_EDGE ( 'NONE', *, *, #368, .T. ) ;
#453 = DIRECTION ( 'NONE',  ( 0.000000000000000000, 0.000000000000000000, 1.000000000000000000 ) ) ;
#454 = EDGE_CURVE ( 'NONE', #183, #489, #270, .T. ) ;
#455 = ORIENTED_EDGE ( 'NONE', *, *, #368, .F. ) ;
#456 = CARTESIAN_POINT ( 'NONE',  ( -580.2827169726658667, 835.4189444065103771, 0.000000000000000000 ) ) ;
#457 = EDGE_LOOP ( 'NONE', ( #247, #142, #341, #239 ) ) ;
#458 = DIRECTION ( 'NONE',  ( 0.7071067811865474617, -0.7071067811865474617, 0.000000000000000000 ) ) ;
#459 = LINE ( 'NONE', #188, #209 ) ;
#460 = DATE_AND_TIME ( #227, #8 ) ;
#461 = CARTESIAN_POINT ( 'NONE',  ( -583.0327169726657530, 975.4189444065103771, 0.000000000000000000 ) ) ;
#462 = CARTESIAN_POINT ( 'NONE',  ( -568.2827169726657530, 824.4189444065100361, 41.00000000000000000 ) ) ;
#463 = AXIS2_PLACEMENT_3D ( 'NONE', #244, #139, #93 ) ;
#464 = ORIENTED_EDGE ( 'NONE', *, *, #300, .F. ) ;
#465 = DIRECTION ( 'NONE',  ( 1.000000000000000000, 0.000000000000000000, 0.000000000000000000 ) ) ;
#466 = ORIENTED_EDGE ( 'NONE', *, *, #386, .F. ) ;
#467 = CARTESIAN_POINT ( 'NONE',  ( -580.2827169726657530, 975.4189444065103771, 41.00000000000000000 ) ) ;
#468 = CARTESIAN_POINT ( 'NONE',  ( -591.2827169726657530, 987.4189444065101497, 0.000000000000000000 ) ) ;
#469 = PERSON_AND_ORGANIZATION_ROLE ( 'design_supplier' ) ;
#470 = VECTOR ( 'NONE', #427, 1000.000000000000000 ) ;
#471 = DIRECTION ( 'NONE',  ( 0.000000000000000000, 0.000000000000000000, 1.000000000000000000 ) ) ;
#472 = LOCAL_TIME ( 10, 13, 56.00000000000000000, #197 ) ;
#473 = EDGE_CURVE ( 'NONE', #330, #419, #297, .T. ) ;
#474 = COORDINATED_UNIVERSAL_TIME_OFFSET ( 3, 0, .BEHIND. ) ;
#475 = CARTESIAN_POINT ( 'NONE',  ( -580.2827169726657530, 975.4189444065103771, 0.000000000000000000 ) ) ;
#476 = EDGE_LOOP ( 'NONE', ( #130, #174 ) ) ;
#477 = ADVANCED_FACE ( 'NONE', ( #69 ), #390, .F. ) ;
#478 = CARTESIAN_POINT ( 'NONE',  ( -591.2827169726657530, 823.4189444065100361, 41.00000000000000000 ) ) ;
#479 = ADVANCED_FACE ( 'NONE', ( #111 ), #495, .F. ) ;
#480 = CARTESIAN_POINT ( 'NONE',  ( -583.0327169726658667, 835.4189444065103771, 41.00000000000000000 ) ) ;
#481 = CARTESIAN_POINT ( 'NONE',  ( -591.2827169726657530, 823.4189444065100361, 41.00000000000000000 ) ) ;
#482 = VERTEX_POINT ( 'NONE', #425 ) ;
#483 = FACE_OUTER_BOUND ( 'NONE', #405, .T. ) ;
#484 = EDGE_CURVE ( 'NONE', #104, #5, #85, .T. ) ;
#485 = PLANE ( 'NONE',  #56 ) ;
#486 = VERTEX_POINT ( 'NONE', #147 ) ;
#487 = VECTOR ( 'NONE', #162, 1000.000000000000114 ) ;
#488 = CARTESIAN_POINT ( 'NONE',  ( -568.2827169726657530, 824.4189444065100361, 41.00000000000000000 ) ) ;
#489 = VERTEX_POINT ( 'NONE', #16 ) ;
#490 = CARTESIAN_POINT ( 'NONE',  ( -569.2827169726657530, 823.4189444065100361, 0.000000000000000000 ) ) ;
#491 = ORIENTED_EDGE ( 'NONE', *, *, #73, .F. ) ;
#492 = PLANE ( 'NONE',  #380 ) ;
#493 = EDGE_LOOP ( 'NONE', ( #414, #499 ) ) ;
#494 = AXIS2_PLACEMENT_3D ( 'NONE', #467, #214, #376 ) ;
#495 = PLANE ( 'NONE',  #37 ) ;
#496 = EDGE_LOOP ( 'NONE', ( #298, #110, #178, #140 ) ) ;
#497 = EDGE_CURVE ( 'NONE', #500, #482, #71, .T. ) ;
#498 = DIRECTION ( 'NONE',  ( -0.7071067811865475727, -0.7071067811865475727, 0.000000000000000000 ) ) ;
#499 = ORIENTED_EDGE ( 'NONE', *, *, #473, .T. ) ;
#500 = VERTEX_POINT ( 'NONE', #105 ) ;
#501 = CARTESIAN_POINT ( 'NONE',  ( -591.2827169726657530, 823.4189444065100361, 41.00000000000000000 ) ) ;
#502 = CC_DESIGN_SECURITY_CLASSIFICATION ( #196, ( #287 ) ) ;
#503 = ORIENTED_EDGE ( 'NONE', *, *, #442, .T. ) ;
#504 = APPROVAL_DATE_TIME ( #460, #285 ) ;
#505 = DIRECTION ( 'NONE',  ( -0.000000000000000000, -0.000000000000000000, -1.000000000000000000 ) ) ;
#506 = CARTESIAN_POINT ( 'NONE',  ( -569.2827169726657530, 987.4189444065101497, 0.000000000000000000 ) ) ;
#507 = APPROVAL_ROLE ( '' ) ;
#508 = PLANE ( 'NONE',  #66 ) ;
#509 = DATE_AND_TIME ( #80, #116 ) ;
#510 = AXIS2_PLACEMENT_3D ( 'NONE', #475, #40, #121 ) ;
#511 = CARTESIAN_POINT ( 'NONE',  ( -592.2827169726657530, 986.4189444065101497, 41.00000000000000000 ) ) ;
#512 = VECTOR ( 'NONE', #505, 1000.000000000000000 ) ;
#513 = EDGE_CURVE ( 'NONE', #104, #419, #13, .T. ) ;
#514 = ORIENTED_EDGE ( 'NONE', *, *, #54, .F. ) ;
#515 = PERSON_AND_ORGANIZATION_ROLE ( 'classification_officer' ) ;
#516 = DIRECTION ( 'NONE',  ( -0.7071067811865474617, -0.7071067811865474617, 0.000000000000000000 ) ) ;
#517 = DIRECTION ( 'NONE',  ( 1.000000000000000000, 0.000000000000000000, 0.000000000000000000 ) ) ;
ENDSEC;
END-ISO-10303-21;
