ISO-10303-21;
HEADER;
FILE_DESCRIPTION (( 'STEP AP203' ),
    '1' );
FILE_NAME ('Pieza3^Felko.STEP',
    '2026-08-19T13:15:14',
    ( '' ),
    ( '' ),
    'SwSTEP 2.0',
    'SolidWorks 2026',
    '' );
FILE_SCHEMA (( 'CONFIG_CONTROL_DESIGN' ));
ENDSEC;

DATA;
#1 = ORIENTED_EDGE ( 'NONE', *, *, #203, .F. ) ;
#2 = VECTOR ( 'NONE', #437, 1000.000000000000000 ) ;
#3 = CIRCLE ( 'NONE', #969, 1.997516106995056440 ) ;
#4 = ORIENTED_EDGE ( 'NONE', *, *, #102, .F. ) ;
#5 = CIRCLE ( 'NONE', #883, 5.000000000000004441 ) ;
#6 =( GEOMETRIC_REPRESENTATION_CONTEXT ( 3 ) GLOBAL_UNCERTAINTY_ASSIGNED_CONTEXT ( ( #391 ) ) GLOBAL_UNIT_ASSIGNED_CONTEXT ( ( #923, #87, #715 ) ) REPRESENTATION_CONTEXT ( 'NONE', 'WORKASPACE' ) );
#7 = DIRECTION ( 'NONE',  ( -0.000000000000000000, 0.000000000000000000, 1.000000000000000000 ) ) ;
#8 = EDGE_CURVE ( 'NONE', #42, #938, #490, .T. ) ;
#9 = CARTESIAN_POINT ( 'NONE',  ( -645.8622725493455619, 927.0573669561657653, 15.00000000000000000 ) ) ;
#10 = EDGE_CURVE ( 'NONE', #784, #1086, #553, .T. ) ;
#11 = ORIENTED_EDGE ( 'NONE', *, *, #785, .T. ) ;
#12 = CARTESIAN_POINT ( 'NONE',  ( -645.8622725493455619, 927.0573669561657653, 9.000000000000000000 ) ) ;
#13 = ORIENTED_EDGE ( 'NONE', *, *, #441, .T. ) ;
#14 = DIRECTION ( 'NONE',  ( -0.000000000000000000, -0.000000000000000000, -1.000000000000000000 ) ) ;
#15 = LINE ( 'NONE', #106, #2 ) ;
#16 = ORIENTED_EDGE ( 'NONE', *, *, #300, .F. ) ;
#17 = CYLINDRICAL_SURFACE ( 'NONE', #270, 2.000000000000001776 ) ;
#18 = VERTEX_POINT ( 'NONE', #243 ) ;
#19 = DIRECTION ( 'NONE',  ( 1.000000000000000000, 0.000000000000000000, 0.000000000000000000 ) ) ;
#20 = ORIENTED_EDGE ( 'NONE', *, *, #1022, .T. ) ;
#21 = CARTESIAN_POINT ( 'NONE',  ( -745.8622725493455619, 927.0573669561657653, 9.000000000000000000 ) ) ;
#22 = EDGE_CURVE ( 'NONE', #151, #784, #289, .T. ) ;
#23 = CIRCLE ( 'NONE', #359, 4.000000000000003553 ) ;
#24 = ORIENTED_EDGE ( 'NONE', *, *, #85, .T. ) ;
#25 = VECTOR ( 'NONE', #824, 1000.000000000000000 ) ;
#26 = CIRCLE ( 'NONE', #514, 2.000000000000001776 ) ;
#27 = CARTESIAN_POINT ( 'NONE',  ( -748.8622725493455619, 0.000000000000000000, 15.00000000000000000 ) ) ;
#28 = APPROVAL_PERSON_ORGANIZATION ( #1065, #707, #847 ) ;
#29 = CARTESIAN_POINT ( 'NONE',  ( -658.8622725493454482, 868.0573669561657653, 15.00000000000000000 ) ) ;
#30 = ORIENTED_EDGE ( 'NONE', *, *, #424, .F. ) ;
#31 = DIRECTION ( 'NONE',  ( 4.934324553889592337E-15, -1.000000000000000000, 0.000000000000000000 ) ) ;
#32 = EDGE_LOOP ( 'NONE', ( #136, #1, #446, #213 ) ) ;
#33 = CC_DESIGN_PERSON_AND_ORGANIZATION_ASSIGNMENT ( #1108, #699, ( #591 ) ) ;
#34 = LINE ( 'NONE', #1164, #929 ) ;
#35 = PLANE ( 'NONE',  #205 ) ;
#36 = DIRECTION ( 'NONE',  ( 1.000000000000000000, 0.000000000000000000, 0.000000000000000000 ) ) ;
#37 = CARTESIAN_POINT ( 'NONE',  ( -4.564533279528280318E-12, 925.0573669561692896, 15.00000000000000000 ) ) ;
#38 = ORIENTED_EDGE ( 'NONE', *, *, #842, .T. ) ;
#39 = CARTESIAN_POINT ( 'NONE',  ( -741.8622725493455619, 927.0573669561657653, 0.000000000000000000 ) ) ;
#40 = EDGE_CURVE ( 'NONE', #76, #1197, #23, .T. ) ;
#41 = DIRECTION ( 'NONE',  ( 0.000000000000000000, 0.000000000000000000, 1.000000000000000000 ) ) ;
#42 = VERTEX_POINT ( 'NONE', #873 ) ;
#43 = PLANE ( 'NONE',  #1165 ) ;
#44 = EDGE_LOOP ( 'NONE', ( #199, #1115 ) ) ;
#45 = VECTOR ( 'NONE', #278, 1000.000000000000000 ) ;
#46 = PLANE ( 'NONE',  #225 ) ;
#47 = CIRCLE ( 'NONE', #795, 4.000000000000003553 ) ;
#48 = CIRCLE ( 'NONE', #1079, 2.000000000000001776 ) ;
#49 = CARTESIAN_POINT ( 'NONE',  ( -739.8622725493455619, 927.0573669561657653, 15.00000000000000000 ) ) ;
#50 = EDGE_CURVE ( 'NONE', #1092, #1245, #408, .T. ) ;
#51 = AXIS2_PLACEMENT_3D ( 'NONE', #399, #607, #285 ) ;
#52 = ORIENTED_EDGE ( 'NONE', *, *, #441, .F. ) ;
#53 = ADVANCED_FACE ( 'NONE', ( #1025, #819 ), #1226, .T. ) ;
#54 = DIRECTION ( 'NONE',  ( 1.000000000000000000, 4.934324553889592337E-15, 0.000000000000000000 ) ) ;
#55 = ORIENTED_EDGE ( 'NONE', *, *, #1220, .T. ) ;
#56 = CARTESIAN_POINT ( 'NONE',  ( -643.8647564423505401, 927.0573669561657653, 0.000000000000000000 ) ) ;
#57 = DIRECTION ( 'NONE',  ( -1.000000000000000000, 0.000000000000000000, 0.000000000000000000 ) ) ;
#58 = DIRECTION ( 'NONE',  ( -0.000000000000000000, 0.000000000000000000, 1.000000000000000000 ) ) ;
#59 = CARTESIAN_POINT ( 'NONE',  ( -643.8622725493455619, 866.0573669561658789, 9.000000000000000000 ) ) ;
#60 = EDGE_CURVE ( 'NONE', #615, #726, #583, .T. ) ;
#61 = VERTEX_POINT ( 'NONE', #1218 ) ;
#62 = FACE_BOUND ( 'NONE', #489, .T. ) ;
#63 = FACE_OUTER_BOUND ( 'NONE', #171, .T. ) ;
#64 = CARTESIAN_POINT ( 'NONE',  ( -643.8647564423505401, 927.0573669561657653, 9.000000000000000000 ) ) ;
#65 = DATE_AND_TIME ( #590, #713 ) ;
#66 = ORIENTED_EDGE ( 'NONE', *, *, #1015, .T. ) ;
#67 = ADVANCED_FACE ( 'NONE', ( #805 ), #1018, .F. ) ;
#68 = DIRECTION ( 'NONE',  ( 1.000000000000000000, 0.000000000000000000, 0.000000000000000000 ) ) ;
#69 = AXIS2_PLACEMENT_3D ( 'NONE', #898, #80, #800 ) ;
#70 = DIRECTION ( 'NONE',  ( 1.000000000000000000, 0.000000000000000000, -0.000000000000000000 ) ) ;
#71 = AXIS2_PLACEMENT_3D ( 'NONE', #729, #830, #1029 ) ;
#72 = LINE ( 'NONE', #1308, #469 ) ;
#73 = CIRCLE ( 'NONE', #1309, 4.000000000000003553 ) ;
#74 = DATE_TIME_ROLE ( 'creation_date' ) ;
#75 = VECTOR ( 'NONE', #1158, 1000.000000000000000 ) ;
#76 = VERTEX_POINT ( 'NONE', #681 ) ;
#77 = DIRECTION ( 'NONE',  ( 0.000000000000000000, 1.000000000000000000, -0.000000000000000000 ) ) ;
#78 = PRODUCT_RELATED_PRODUCT_CATEGORY ( 'detail', '', ( #131 ) ) ;
#79 = DIRECTION ( 'NONE',  ( -1.000000000000000000, 0.000000000000000000, 0.000000000000000000 ) ) ;
#80 = DIRECTION ( 'NONE',  ( 0.000000000000000000, -0.000000000000000000, -1.000000000000000000 ) ) ;
#81 = ORIENTED_EDGE ( 'NONE', *, *, #1048, .F. ) ;
#82 = ORIENTED_EDGE ( 'NONE', *, *, #1123, .T. ) ;
#83 = LINE ( 'NONE', #21, #363 ) ;
#84 = FACE_OUTER_BOUND ( 'NONE', #117, .T. ) ;
#85 = EDGE_CURVE ( 'NONE', #457, #352, #606, .T. ) ;
#86 = DIRECTION ( 'NONE',  ( 1.000000000000000000, 0.000000000000000000, 0.000000000000000000 ) ) ;
#87 =( NAMED_UNIT ( * ) PLANE_ANGLE_UNIT ( ) SI_UNIT ( $, .RADIAN. ) );
#88 = EDGE_LOOP ( 'NONE', ( #586, #1180 ) ) ;
#89 = CARTESIAN_POINT ( 'NONE',  ( -748.8622725493455619, 0.000000000000000000, 0.000000000000000000 ) ) ;
#90 = DIRECTION ( 'NONE',  ( 0.000000000000000000, 1.000000000000000000, 0.000000000000000000 ) ) ;
#91 = DIRECTION ( 'NONE',  ( 1.000000000000000000, 0.000000000000000000, 0.000000000000000000 ) ) ;
#92 = CYLINDRICAL_SURFACE ( 'NONE', #605, 1.997516106995056440 ) ;
#93 = VECTOR ( 'NONE', #990, 1000.000000000000000 ) ;
#94 = CIRCLE ( 'NONE', #382, 4.000000000000003553 ) ;
#95 = EDGE_CURVE ( 'NONE', #981, #1153, #72, .T. ) ;
#96 = ORIENTED_EDGE ( 'NONE', *, *, #312, .F. ) ;
#97 = AXIS2_PLACEMENT_3D ( 'NONE', #37, #31, #54 ) ;
#98 = ORIENTED_EDGE ( 'NONE', *, *, #690, .T. ) ;
#99 = DIRECTION ( 'NONE',  ( 1.000000000000000000, 0.000000000000000000, 0.000000000000000000 ) ) ;
#100 = CARTESIAN_POINT ( 'NONE',  ( -743.8622725493455619, 927.0573669561657653, 0.000000000000000000 ) ) ;
#101 = ORIENTED_EDGE ( 'NONE', *, *, #194, .T. ) ;
#102 = EDGE_CURVE ( 'NONE', #879, #76, #503, .T. ) ;
#103 = EDGE_CURVE ( 'NONE', #467, #42, #1099, .T. ) ;
#104 = ORIENTED_EDGE ( 'NONE', *, *, #109, .T. ) ;
#105 = CARTESIAN_POINT ( 'NONE',  ( -745.8622725493455619, 866.0573669561658789, 15.00000000000000000 ) ) ;
#106 = CARTESIAN_POINT ( 'NONE',  ( -641.8622725493455619, 866.0573669561658789, 9.000000000000000000 ) ) ;
#107 = ORIENTED_EDGE ( 'NONE', *, *, #915, .T. ) ;
#108 = EDGE_LOOP ( 'NONE', ( #634, #411, #388, #944 ) ) ;
#109 = EDGE_CURVE ( 'NONE', #578, #1245, #900, .T. ) ;
#110 = EDGE_CURVE ( 'NONE', #1060, #352, #714, .T. ) ;
#111 = CARTESIAN_POINT ( 'NONE',  ( -649.8622725493455619, 927.0573669561657653, 15.00000000000000000 ) ) ;
#112 = DIRECTION ( 'NONE',  ( 0.000000000000000000, 0.000000000000000000, 1.000000000000000000 ) ) ;
#113 = CLOSED_SHELL ( 'NONE', ( #597, #540, #340, #188, #1107, #500, #679, #255, #999, #572, #1316, #806, #548, #1161, #738, #602, #67, #877, #1260, #508, #1163, #502, #1340, #584, #1126, #355, #982, #392, #991, #53, #664, #542, #528, #452, #823, #640, #773, #297, #491, #196 ) ) ;
#114 = EDGE_LOOP ( 'NONE', ( #656, #260 ) ) ;
#115 = CARTESIAN_POINT ( 'NONE',  ( -638.8622725493455619, 934.0573669561657653, 13.00000000000000000 ) ) ;
#116 = CIRCLE ( 'NONE', #1246, 5.000000000000004441 ) ;
#117 = EDGE_LOOP ( 'NONE', ( #327, #654, #1265, #30 ) ) ;
#118 = AXIS2_PLACEMENT_3D ( 'NONE', #375, #671, #791 ) ;
#119 = AXIS2_PLACEMENT_3D ( 'NONE', #462, #143, #575 ) ;
#120 = FACE_OUTER_BOUND ( 'NONE', #281, .T. ) ;
#121 = EDGE_CURVE ( 'NONE', #902, #477, #398, .T. ) ;
#122 = DIRECTION ( 'NONE',  ( 1.000000000000000000, -0.000000000000000000, 0.000000000000000000 ) ) ;
#123 = ORIENTED_EDGE ( 'NONE', *, *, #60, .T. ) ;
#124 = DIRECTION ( 'NONE',  ( -0.000000000000000000, -0.000000000000000000, 1.000000000000000000 ) ) ;
#125 = ORIENTED_EDGE ( 'NONE', *, *, #1230, .F. ) ;
#126 = CARTESIAN_POINT ( 'NONE',  ( 0.000000000000000000, 932.0573669561657653, 13.00000000000000000 ) ) ;
#127 = FACE_BOUND ( 'NONE', #484, .T. ) ;
#128 = ORIENTED_EDGE ( 'NONE', *, *, #1083, .F. ) ;
#129 = DIRECTION ( 'NONE',  ( 1.000000000000000000, 0.000000000000000000, 0.000000000000000000 ) ) ;
#130 = ORIENTED_EDGE ( 'NONE', *, *, #458, .F. ) ;
#131 = PRODUCT ( 'Pieza3^Felko', 'Pieza3^Felko', '', ( #191 ) ) ;
#132 = CARTESIAN_POINT ( 'NONE',  ( -728.8622725493455619, 925.0573669561656516, 15.00000000000000000 ) ) ;
#133 = DIRECTION ( 'NONE',  ( -0.000000000000000000, 0.000000000000000000, 1.000000000000000000 ) ) ;
#134 = CARTESIAN_POINT ( 'NONE',  ( -645.8622725493455619, 866.0573669561658789, 15.00000000000000000 ) ) ;
#135 = VECTOR ( 'NONE', #169, 1000.000000000000000 ) ;
#136 = ORIENTED_EDGE ( 'NONE', *, *, #924, .F. ) ;
#137 = AXIS2_PLACEMENT_3D ( 'NONE', #561, #876, #364 ) ;
#138 = AXIS2_PLACEMENT_3D ( 'NONE', #506, #936, #818 ) ;
#139 = CYLINDRICAL_SURFACE ( 'NONE', #557, 4.000000000000003553 ) ;
#140 = AXIS2_PLACEMENT_3D ( 'NONE', #1275, #1113, #1303 ) ;
#141 = FACE_BOUND ( 'NONE', #888, .T. ) ;
#142 = CARTESIAN_POINT ( 'NONE',  ( -740.7664392878880335, 896.0846652709840328, 15.00000000000000000 ) ) ;
#143 = DIRECTION ( 'NONE',  ( 0.000000000000000000, -0.000000000000000000, -1.000000000000000000 ) ) ;
#144 = ADVANCED_BREP_SHAPE_REPRESENTATION ( 'Pieza3^Felko', ( #420, #51 ), #6 ) ;
#145 = ORIENTED_EDGE ( 'NONE', *, *, #837, .T. ) ;
#146 = EDGE_CURVE ( 'NONE', #1007, #258, #661, .T. ) ;
#147 = DIRECTION ( 'NONE',  ( 1.000000000000000000, 0.000000000000000000, 0.000000000000000000 ) ) ;
#148 = DIRECTION ( 'NONE',  ( 1.000000000000000000, 0.000000000000000000, 0.000000000000000000 ) ) ;
#149 = ORIENTED_EDGE ( 'NONE', *, *, #22, .T. ) ;
#150 = CARTESIAN_POINT ( 'NONE',  ( -653.8622725493434018, -1.544538191314918175E-12, 15.00000000000000000 ) ) ;
#151 = VERTEX_POINT ( 'NONE', #64 ) ;
#152 = EDGE_CURVE ( 'NONE', #350, #879, #1202, .T. ) ;
#153 = DIRECTION ( 'NONE',  ( -0.000000000000000000, -0.000000000000000000, 1.000000000000000000 ) ) ;
#154 = EDGE_CURVE ( 'NONE', #875, #1086, #814, .T. ) ;
#155 = LINE ( 'NONE', #241, #775 ) ;
#156 = ORIENTED_EDGE ( 'NONE', *, *, #748, .T. ) ;
#157 = DIRECTION ( 'NONE',  ( 1.000000000000000000, 0.000000000000000000, 0.000000000000000000 ) ) ;
#158 = APPLICATION_CONTEXT ( 'configuration controlled 3d designs of mechanical parts and assemblies' ) ;
#159 = ORIENTED_EDGE ( 'NONE', *, *, #1024, .T. ) ;
#160 = CYLINDRICAL_SURFACE ( 'NONE', #1162, 5.000000000000004441 ) ;
#161 = VECTOR ( 'NONE', #14, 1000.000000000000000 ) ;
#162 = CYLINDRICAL_SURFACE ( 'NONE', #601, 2.000000000000001776 ) ;
#163 = AXIS2_PLACEMENT_3D ( 'NONE', #822, #1232, #1136 ) ;
#164 = CARTESIAN_POINT ( 'NONE',  ( -739.8622725493455619, 866.0573669561658789, 15.00000000000000000 ) ) ;
#165 = CARTESIAN_POINT ( 'NONE',  ( -736.7664392878880335, 896.0846652709840328, 15.00000000000000000 ) ) ;
#166 = ORIENTED_EDGE ( 'NONE', *, *, #367, .T. ) ;
#167 = DIRECTION ( 'NONE',  ( 1.000000000000000000, 0.000000000000000000, 0.000000000000000000 ) ) ;
#168 = FACE_OUTER_BOUND ( 'NONE', #802, .T. ) ;
#169 = DIRECTION ( 'NONE',  ( -0.000000000000000000, -0.000000000000000000, 1.000000000000000000 ) ) ;
#170 = COORDINATED_UNIVERSAL_TIME_OFFSET ( 3, 0, .BEHIND. ) ;
#171 = EDGE_LOOP ( 'NONE', ( #125, #894, #996, #123 ) ) ;
#172 = LINE ( 'NONE', #474, #949 ) ;
#173 = PERSON ( 'UNSPECIFIED', 'UNSPECIFIED', 'UNSPECIFIED', ('UNSPECIFIED'), ('UNSPECIFIED'), ('UNSPECIFIED') ) ;
#174 = CYLINDRICAL_SURFACE ( 'NONE', #427, 4.000000000000003553 ) ;
#175 = DIRECTION ( 'NONE',  ( -0.000000000000000000, -0.000000000000000000, -1.000000000000000000 ) ) ;
#176 = DIRECTION ( 'NONE',  ( 0.000000000000000000, -0.000000000000000000, 1.000000000000000000 ) ) ;
#177 = ORIENTED_EDGE ( 'NONE', *, *, #1123, .F. ) ;
#178 = APPROVAL ( #497, 'UNSPECIFIED' ) ;
#179 = ORIENTED_EDGE ( 'NONE', *, *, #934, .F. ) ;
#180 = CARTESIAN_POINT ( 'NONE',  ( -737.8622725493455619, 927.0573669561657653, 9.000000000000000000 ) ) ;
#181 = CIRCLE ( 'NONE', #530, 4.000000000000003553 ) ;
#182 = DIRECTION ( 'NONE',  ( -0.000000000000000000, -0.000000000000000000, 1.000000000000000000 ) ) ;
#183 = AXIS2_PLACEMENT_3D ( 'NONE', #722, #90, #524 ) ;
#184 = CYLINDRICAL_SURFACE ( 'NONE', #222, 4.000000000000003553 ) ;
#185 = CIRCLE ( 'NONE', #1124, 5.000000000000004441 ) ;
#186 = CIRCLE ( 'NONE', #580, 4.000000000000003553 ) ;
#187 = ORIENTED_EDGE ( 'NONE', *, *, #1024, .F. ) ;
#188 = ADVANCED_FACE ( 'NONE', ( #916 ), #482, .F. ) ;
#189 = CARTESIAN_POINT ( 'NONE',  ( -647.8597886563406973, 927.0573669561657653, 0.000000000000000000 ) ) ;
#190 = DIRECTION ( 'NONE',  ( 1.000000000000000000, 0.000000000000000000, 0.000000000000000000 ) ) ;
#191 = MECHANICAL_CONTEXT ( 'NONE', #1156, 'mechanical' ) ;
#192 = ORIENTED_EDGE ( 'NONE', *, *, #966, .T. ) ;
#193 = FACE_OUTER_BOUND ( 'NONE', #298, .T. ) ;
#194 = EDGE_CURVE ( 'NONE', #1261, #986, #1302, .T. ) ;
#195 = DIRECTION ( 'NONE',  ( 0.000000000000000000, 0.000000000000000000, 1.000000000000000000 ) ) ;
#196 = ADVANCED_FACE ( 'NONE', ( #393 ), #184, .F. ) ;
#197 = CYLINDRICAL_SURFACE ( 'NONE', #577, 4.000000000000003553 ) ;
#198 = COORDINATED_UNIVERSAL_TIME_OFFSET ( 3, 0, .BEHIND. ) ;
#199 = ORIENTED_EDGE ( 'NONE', *, *, #907, .F. ) ;
#200 = CARTESIAN_POINT ( 'NONE',  ( -733.8622725493432881, -1.733512323166008791E-12, 15.00000000000000000 ) ) ;
#201 = CARTESIAN_POINT ( 'NONE',  ( -651.7664392878880335, 896.0846652709840328, 0.000000000000000000 ) ) ;
#202 = DIRECTION ( 'NONE',  ( 1.000000000000000000, 0.000000000000000000, 0.000000000000000000 ) ) ;
#203 = EDGE_CURVE ( 'NONE', #457, #933, #613, .T. ) ;
#204 = SECURITY_CLASSIFICATION_LEVEL ( 'unclassified' ) ;
#205 = AXIS2_PLACEMENT_3D ( 'NONE', #1191, #1071, #148 ) ;
#206 = AXIS2_PLACEMENT_3D ( 'NONE', #1175, #1190, #962 ) ;
#207 = VERTEX_POINT ( 'NONE', #743 ) ;
#208 = CC_DESIGN_APPROVAL ( #707, ( #272 ) ) ;
#209 = ORIENTED_EDGE ( 'NONE', *, *, #907, .T. ) ;
#210 = CARTESIAN_POINT ( 'NONE',  ( -728.8622725493454482, 873.0573669561657653, 15.00000000000000000 ) ) ;
#211 = CARTESIAN_POINT ( 'NONE',  ( -641.8622725493455619, 866.0573669561658789, 9.000000000000000000 ) ) ;
#212 = EDGE_CURVE ( 'NONE', #61, #543, #834, .T. ) ;
#213 = ORIENTED_EDGE ( 'NONE', *, *, #286, .F. ) ;
#214 = VERTEX_POINT ( 'NONE', #216 ) ;
#215 = DIRECTION ( 'NONE',  ( 1.000000000000000000, 0.000000000000000000, 0.000000000000000000 ) ) ;
#216 = CARTESIAN_POINT ( 'NONE',  ( -733.8622725493454482, 873.0573669561657653, 0.000000000000000000 ) ) ;
#217 = DATE_AND_TIME ( #533, #626 ) ;
#218 = ORIENTED_EDGE ( 'NONE', *, *, #783, .F. ) ;
#219 = ORIENTED_EDGE ( 'NONE', *, *, #1217, .T. ) ;
#220 = FACE_OUTER_BOUND ( 'NONE', #1241, .T. ) ;
#221 = DIRECTION ( 'NONE',  ( -0.000000000000000000, -0.000000000000000000, -1.000000000000000000 ) ) ;
#222 = AXIS2_PLACEMENT_3D ( 'NONE', #293, #1129, #190 ) ;
#223 = ORIENTED_EDGE ( 'NONE', *, *, #895, .F. ) ;
#224 = LINE ( 'NONE', #648, #339 ) ;
#225 = AXIS2_PLACEMENT_3D ( 'NONE', #886, #1295, #369 ) ;
#226 = ORIENTED_EDGE ( 'NONE', *, *, #8, .F. ) ;
#227 = CC_DESIGN_APPROVAL ( #178, ( #885 ) ) ;
#228 = EDGE_CURVE ( 'NONE', #925, #338, #598, .T. ) ;
#229 = DIRECTION ( 'NONE',  ( -0.000000000000000000, -0.000000000000000000, -1.000000000000000000 ) ) ;
#230 = CARTESIAN_POINT ( 'NONE',  ( -645.8622725493455619, 866.0573669561658789, 9.000000000000000000 ) ) ;
#231 = EDGE_LOOP ( 'NONE', ( #1135, #130, #1047, #98 ) ) ;
#232 = CARTESIAN_POINT ( 'NONE',  ( -748.8622725493455619, 932.0573669561657653, 13.00000000000000000 ) ) ;
#233 = ORIENTED_EDGE ( 'NONE', *, *, #1211, .T. ) ;
#234 = CARTESIAN_POINT ( 'NONE',  ( -647.8622725493455619, 866.0573669561658789, 0.000000000000000000 ) ) ;
#235 = DIRECTION ( 'NONE',  ( 0.000000000000000000, 0.000000000000000000, 1.000000000000000000 ) ) ;
#236 = EDGE_CURVE ( 'NONE', #275, #1020, #15, .T. ) ;
#237 = CARTESIAN_POINT ( 'NONE',  ( -728.8622725493455619, 920.0573669561656516, 0.000000000000000000 ) ) ;
#238 = LINE ( 'NONE', #869, #778 ) ;
#239 = ORIENTED_EDGE ( 'NONE', *, *, #1291, .T. ) ;
#240 = DIRECTION ( 'NONE',  ( 1.000000000000000000, 0.000000000000000000, 0.000000000000000000 ) ) ;
#241 = CARTESIAN_POINT ( 'NONE',  ( -653.8622725493434018, -1.544538191314918175E-12, 0.000000000000000000 ) ) ;
#242 = EDGE_CURVE ( 'NONE', #628, #1046, #181, .T. ) ;
#243 = CARTESIAN_POINT ( 'NONE',  ( -653.8622725493455619, 920.0573669561657653, 15.00000000000000000 ) ) ;
#244 = DIRECTION ( 'NONE',  ( 1.000000000000000000, 0.000000000000000000, 0.000000000000000000 ) ) ;
#245 = VECTOR ( 'NONE', #691, 1000.000000000000000 ) ;
#246 = ORIENTED_EDGE ( 'NONE', *, *, #306, .T. ) ;
#247 = AXIS2_PLACEMENT_3D ( 'NONE', #529, #736, #99 ) ;
#248 = DIRECTION ( 'NONE',  ( -1.000000000000000000, -4.934324553889592337E-15, 0.000000000000000000 ) ) ;
#249 = VECTOR ( 'NONE', #124, 1000.000000000000000 ) ;
#250 = FACE_BOUND ( 'NONE', #395, .T. ) ;
#251 = ORIENTED_EDGE ( 'NONE', *, *, #103, .T. ) ;
#252 = DIRECTION ( 'NONE',  ( 1.000000000000000000, 0.000000000000000000, 0.000000000000000000 ) ) ;
#253 = EDGE_CURVE ( 'NONE', #350, #1197, #515, .T. ) ;
#254 = ORIENTED_EDGE ( 'NONE', *, *, #723, .F. ) ;
#255 = ADVANCED_FACE ( 'NONE', ( #631 ), #1256, .F. ) ;
#256 = FACE_OUTER_BOUND ( 'NONE', #373, .T. ) ;
#257 = CARTESIAN_POINT ( 'NONE',  ( -638.8622725493455619, 859.0573669561658789, 0.000000000000000000 ) ) ;
#258 = VERTEX_POINT ( 'NONE', #100 ) ;
#259 = DIRECTION ( 'NONE',  ( 0.000000000000000000, 0.000000000000000000, 1.000000000000000000 ) ) ;
#260 = ORIENTED_EDGE ( 'NONE', *, *, #1201, .T. ) ;
#261 = CC_DESIGN_PERSON_AND_ORGANIZATION_ASSIGNMENT ( #841, #744, ( #272 ) ) ;
#262 = DIRECTION ( 'NONE',  ( 1.000000000000000000, 0.000000000000000000, 0.000000000000000000 ) ) ;
#263 = FACE_OUTER_BOUND ( 'NONE', #1254, .T. ) ;
#264 = DIRECTION ( 'NONE',  ( -1.000000000000000000, 0.000000000000000000, 0.000000000000000000 ) ) ;
#265 = DIRECTION ( 'NONE',  ( 1.000000000000000000, 0.000000000000000000, 0.000000000000000000 ) ) ;
#266 = ORIENTED_EDGE ( 'NONE', *, *, #976, .T. ) ;
#267 = AXIS2_PLACEMENT_3D ( 'NONE', #532, #1150, #325 ) ;
#268 = DIRECTION ( 'NONE',  ( -1.000000000000000000, -4.934324553889592337E-15, 0.000000000000000000 ) ) ;
#269 = AXIS2_PLACEMENT_3D ( 'NONE', #897, #1307, #384 ) ;
#270 = AXIS2_PLACEMENT_3D ( 'NONE', #1035, #1266, #336 ) ;
#271 = CARTESIAN_POINT ( 'NONE',  ( -733.8622725493454482, 873.0573669561657653, 15.00000000000000000 ) ) ;
#272 = SECURITY_CLASSIFICATION ( '', '', #204 ) ;
#273 = DIRECTION ( 'NONE',  ( 1.000000000000000000, 0.000000000000000000, -0.000000000000000000 ) ) ;
#274 = APPROVAL_ROLE ( '' ) ;
#275 = VERTEX_POINT ( 'NONE', #211 ) ;
#276 = FACE_BOUND ( 'NONE', #44, .T. ) ;
#277 = PLANE ( 'NONE',  #878 ) ;
#278 = DIRECTION ( 'NONE',  ( 1.000000000000000000, -0.000000000000000000, -0.000000000000000000 ) ) ;
#279 = EDGE_CURVE ( 'NONE', #620, #578, #831, .T. ) ;
#280 = APPLICATION_PROTOCOL_DEFINITION ( 'international standard', 'config_control_design', 1994, #1156 ) ;
#281 = EDGE_LOOP ( 'NONE', ( #708, #801, #219, #304 ) ) ;
#282 = LINE ( 'NONE', #480, #1290 ) ;
#283 = DIRECTION ( 'NONE',  ( 1.000000000000000000, 0.000000000000000000, 0.000000000000000000 ) ) ;
#284 = CARTESIAN_POINT ( 'NONE',  ( -0.000000000000000000, 859.0573669561658789, 0.000000000000000000 ) ) ;
#285 = DIRECTION ( 'NONE',  ( 1.000000000000000000, 0.000000000000000000, 0.000000000000000000 ) ) ;
#286 = EDGE_CURVE ( 'NONE', #1281, #1343, #643, .T. ) ;
#287 = EDGE_LOOP ( 'NONE', ( #4, #526, #1094, #66 ) ) ;
#288 = CARTESIAN_POINT ( 'NONE',  ( -645.8622725493455619, 927.0573669561657653, 0.000000000000000000 ) ) ;
#289 = CIRCLE ( 'NONE', #1052, 1.997516106995056440 ) ;
#290 = AXIS2_PLACEMENT_3D ( 'NONE', #752, #766, #19 ) ;
#291 = DIRECTION ( 'NONE',  ( -0.000000000000000000, -0.000000000000000000, -1.000000000000000000 ) ) ;
#292 = CIRCLE ( 'NONE', #206, 4.000000000000003553 ) ;
#293 = CARTESIAN_POINT ( 'NONE',  ( -740.7664392878880335, 896.0846652709840328, -14.14213562373096345 ) ) ;
#294 = PERSON_AND_ORGANIZATION ( #173, #755 ) ;
#295 = AXIS2_PLACEMENT_3D ( 'NONE', #1310, #1206, #176 ) ;
#296 = ORIENTED_EDGE ( 'NONE', *, *, #242, .F. ) ;
#297 = ADVANCED_FACE ( 'NONE', ( #541 ), #737, .T. ) ;
#298 = EDGE_LOOP ( 'NONE', ( #844, #413, #918, #781 ) ) ;
#299 = DIRECTION ( 'NONE',  ( -0.000000000000000000, -0.000000000000000000, -1.000000000000000000 ) ) ;
#300 = EDGE_CURVE ( 'NONE', #1109, #1281, #951, .T. ) ;
#301 = CARTESIAN_POINT ( 'NONE',  ( -653.8622725493454482, 873.0573669561658789, 0.000000000000000000 ) ) ;
#302 = CARTESIAN_POINT ( 'NONE',  ( -736.7664392878880335, 896.0846652709840328, -14.14213562373096345 ) ) ;
#303 = DIRECTION ( 'NONE',  ( -0.000000000000000000, -0.000000000000000000, -1.000000000000000000 ) ) ;
#304 = ORIENTED_EDGE ( 'NONE', *, *, #146, .F. ) ;
#305 = PLANE ( 'NONE',  #952 ) ;
#306 = EDGE_CURVE ( 'NONE', #1343, #457, #683, .T. ) ;
#307 = CARTESIAN_POINT ( 'NONE',  ( -741.8622725493455619, 866.0573669561658789, 15.00000000000000000 ) ) ;
#308 = CARTESIAN_POINT ( 'NONE',  ( -748.8622725493455619, 0.000000000000000000, 15.00000000000000000 ) ) ;
#309 = ORIENTED_EDGE ( 'NONE', *, *, #812, .F. ) ;
#310 = EDGE_LOOP ( 'NONE', ( #975, #101, #807, #13 ) ) ;
#311 = CYLINDRICAL_SURFACE ( 'NONE', #247, 4.000000000000003553 ) ;
#312 = EDGE_CURVE ( 'NONE', #527, #1292, #728, .T. ) ;
#313 = AXIS2_PLACEMENT_3D ( 'NONE', #909, #496, #589 ) ;
#314 = CARTESIAN_POINT ( 'NONE',  ( -638.8622725493455619, 932.0573669561657653, 15.00000000000000000 ) ) ;
#315 = AXIS2_PLACEMENT_3D ( 'NONE', #1149, #717, #215 ) ;
#316 = ORIENTED_EDGE ( 'NONE', *, *, #1114, .F. ) ;
#317 = VERTEX_POINT ( 'NONE', #825 ) ;
#318 = FACE_OUTER_BOUND ( 'NONE', #851, .T. ) ;
#319 = CARTESIAN_POINT ( 'NONE',  ( -645.8622725493455619, 866.0573669561658789, 9.000000000000000000 ) ) ;
#320 = COORDINATED_UNIVERSAL_TIME_OFFSET ( 3, 0, .BEHIND. ) ;
#321 = CC_DESIGN_PERSON_AND_ORGANIZATION_ASSIGNMENT ( #294, #719, ( #131 ) ) ;
#322 = VERTEX_POINT ( 'NONE', #314 ) ;
#323 = ORIENTED_EDGE ( 'NONE', *, *, #110, .T. ) ;
#324 = DIRECTION ( 'NONE',  ( -0.000000000000000000, -0.000000000000000000, -1.000000000000000000 ) ) ;
#325 = DIRECTION ( 'NONE',  ( -1.000000000000000000, 0.000000000000000000, 0.000000000000000000 ) ) ;
#326 = CALENDAR_DATE ( 2026, 19, 8 ) ;
#327 = ORIENTED_EDGE ( 'NONE', *, *, #312, .T. ) ;
#328 = CARTESIAN_POINT ( 'NONE',  ( -728.8622725493455619, 920.0573669561656516, 15.00000000000000000 ) ) ;
#329 = EDGE_CURVE ( 'NONE', #1292, #527, #901, .T. ) ;
#330 = ORIENTED_EDGE ( 'NONE', *, *, #1230, .T. ) ;
#331 = CARTESIAN_POINT ( 'NONE',  ( -638.8622725493455619, 0.000000000000000000, 0.000000000000000000 ) ) ;
#332 = DIRECTION ( 'NONE',  ( -0.000000000000000000, -0.000000000000000000, -1.000000000000000000 ) ) ;
#333 = VECTOR ( 'NONE', #86, 1000.000000000000000 ) ;
#334 = EDGE_LOOP ( 'NONE', ( #226, #988, #741, #379 ) ) ;
#335 = CIRCLE ( 'NONE', #1098, 4.000000000000003553 ) ;
#336 = DIRECTION ( 'NONE',  ( -1.000000000000000000, 0.000000000000000000, 0.000000000000000000 ) ) ;
#337 = AXIS2_PLACEMENT_3D ( 'NONE', #891, #1300, #1223 ) ;
#338 = VERTEX_POINT ( 'NONE', #1347 ) ;
#339 = VECTOR ( 'NONE', #299, 1000.000000000000000 ) ;
#340 = ADVANCED_FACE ( 'NONE', ( #846 ), #197, .F. ) ;
#341 = LINE ( 'NONE', #760, #645 ) ;
#342 = DIRECTION ( 'NONE',  ( 1.000000000000000000, 0.000000000000000000, -0.000000000000000000 ) ) ;
#343 = EDGE_LOOP ( 'NONE', ( #104, #1019 ) ) ;
#344 = DIRECTION ( 'NONE',  ( -0.000000000000000000, -0.000000000000000000, 1.000000000000000000 ) ) ;
#345 = ORIENTED_EDGE ( 'NONE', *, *, #212, .F. ) ;
#346 = DIRECTION ( 'NONE',  ( 0.000000000000000000, 0.000000000000000000, 1.000000000000000000 ) ) ;
#347 = EDGE_CURVE ( 'NONE', #784, #151, #3, .T. ) ;
#348 = EDGE_CURVE ( 'NONE', #543, #61, #47, .T. ) ;
#349 = DIRECTION ( 'NONE',  ( -0.000000000000000000, -0.000000000000000000, -1.000000000000000000 ) ) ;
#350 = VERTEX_POINT ( 'NONE', #1146 ) ;
#351 = DIRECTION ( 'NONE',  ( -0.000000000000000000, -0.000000000000000000, -1.000000000000000000 ) ) ;
#352 = VERTEX_POINT ( 'NONE', #257 ) ;
#353 = DIRECTION ( 'NONE',  ( -0.000000000000000000, -0.000000000000000000, -1.000000000000000000 ) ) ;
#354 = CARTESIAN_POINT ( 'NONE',  ( -641.8622725493455619, 927.0573669561657653, 9.000000000000000000 ) ) ;
#355 = ADVANCED_FACE ( 'NONE', ( #1176 ), #672, .F. ) ;
#356 = ORIENTED_EDGE ( 'NONE', *, *, #357, .T. ) ;
#357 = EDGE_CURVE ( 'NONE', #726, #927, #155, .T. ) ;
#358 = FACE_OUTER_BOUND ( 'NONE', #685, .T. ) ;
#359 = AXIS2_PLACEMENT_3D ( 'NONE', #142, #979, #461 ) ;
#360 = ORIENTED_EDGE ( 'NONE', *, *, #1041, .F. ) ;
#361 = AXIS2_PLACEMENT_3D ( 'NONE', #230, #651, #1183 ) ;
#362 = CIRCLE ( 'NONE', #797, 5.000000000000004441 ) ;
#363 = VECTOR ( 'NONE', #403, 1000.000000000000000 ) ;
#364 = DIRECTION ( 'NONE',  ( 0.000000000000000000, -0.000000000000000000, -1.000000000000000000 ) ) ;
#365 = ORIENTED_EDGE ( 'NONE', *, *, #154, .T. ) ;
#366 = DIRECTION ( 'NONE',  ( -0.000000000000000000, -0.000000000000000000, -1.000000000000000000 ) ) ;
#367 = EDGE_CURVE ( 'NONE', #902, #1075, #660, .T. ) ;
#368 = ORIENTED_EDGE ( 'NONE', *, *, #60, .F. ) ;
#369 = DIRECTION ( 'NONE',  ( 1.000000000000000000, 0.000000000000000000, 0.000000000000000000 ) ) ;
#370 = CYLINDRICAL_SURFACE ( 'NONE', #381, 4.000000000000003553 ) ;
#371 = EDGE_LOOP ( 'NONE', ( #764, #756, #790, #1338 ) ) ;
#372 = CARTESIAN_POINT ( 'NONE',  ( -743.8622725493455619, 927.0573669561657653, 15.00000000000000000 ) ) ;
#373 = EDGE_LOOP ( 'NONE', ( #856, #1174, #1344, #1194 ) ) ;
#374 = EDGE_CURVE ( 'NONE', #1092, #620, #710, .T. ) ;
#375 = CARTESIAN_POINT ( 'NONE',  ( -741.8622725493455619, 927.0573669561657653, 9.000000000000000000 ) ) ;
#376 = CARTESIAN_POINT ( 'NONE',  ( -748.8622725493455619, 934.0573669561657653, 0.000000000000000000 ) ) ;
#377 = CARTESIAN_POINT ( 'NONE',  ( -638.8622725493455619, 0.000000000000000000, 15.00000000000000000 ) ) ;
#378 = CARTESIAN_POINT ( 'NONE',  ( -737.8622725493455619, 927.0573669561657653, 15.00000000000000000 ) ) ;
#379 = ORIENTED_EDGE ( 'NONE', *, *, #848, .T. ) ;
#380 = FACE_OUTER_BOUND ( 'NONE', #334, .T. ) ;
#381 = AXIS2_PLACEMENT_3D ( 'NONE', #1097, #787, #1315 ) ;
#382 = AXIS2_PLACEMENT_3D ( 'NONE', #1200, #688, #167 ) ;
#383 = CC_DESIGN_DATE_AND_TIME_ASSIGNMENT ( #217, #1040, ( #272 ) ) ;
#384 = DIRECTION ( 'NONE',  ( -1.000000000000000000, 0.000000000000000000, 0.000000000000000000 ) ) ;
#385 = VECTOR ( 'NONE', #1237, 1000.000000000000000 ) ;
#386 = CARTESIAN_POINT ( 'NONE',  ( -744.7664392878880335, 896.0846652709840328, -14.14213562373096345 ) ) ;
#387 = ORIENTED_EDGE ( 'NONE', *, *, #924, .T. ) ;
#388 = ORIENTED_EDGE ( 'NONE', *, *, #242, .T. ) ;
#389 = CARTESIAN_POINT ( 'NONE',  ( -653.8622725493455619, 920.0573669561657653, 0.000000000000000000 ) ) ;
#390 = DIRECTION ( 'NONE',  ( -0.000000000000000000, -0.000000000000000000, 1.000000000000000000 ) ) ;
#391 = UNCERTAINTY_MEASURE_WITH_UNIT (LENGTH_MEASURE( 1.000000000000000082E-05 ), #923, 'distance_accuracy_value', 'NONE');
#392 = ADVANCED_FACE ( 'NONE', ( #1283, #1078, #141, #1091, #1273, #978, #250, #667 ), #35, .F. ) ;
#393 = FACE_OUTER_BOUND ( 'NONE', #287, .T. ) ;
#394 = EDGE_LOOP ( 'NONE', ( #1178, #368, #429, #1192 ) ) ;
#395 = EDGE_LOOP ( 'NONE', ( #1013, #365 ) ) ;
#396 = CARTESIAN_POINT ( 'NONE',  ( -645.8622725493455619, 866.0573669561658789, 0.000000000000000000 ) ) ;
#397 = EDGE_CURVE ( 'NONE', #450, #904, #963, .T. ) ;
#398 = LINE ( 'NONE', #698, #1288 ) ;
#399 = CARTESIAN_POINT ( 'NONE',  ( 0.000000000000000000, 0.000000000000000000, 0.000000000000000000 ) ) ;
#400 = EDGE_CURVE ( 'NONE', #608, #1046, #1166, .T. ) ;
#401 = ORIENTED_EDGE ( 'NONE', *, *, #374, .T. ) ;
#402 = ORIENTED_EDGE ( 'NONE', *, *, #1252, .F. ) ;
#403 = DIRECTION ( 'NONE',  ( -0.000000000000000000, -0.000000000000000000, 1.000000000000000000 ) ) ;
#404 = VECTOR ( 'NONE', #175, 1000.000000000000000 ) ;
#405 = AXIS2_PLACEMENT_3D ( 'NONE', #1234, #525, #1251 ) ;
#406 = CARTESIAN_POINT ( 'NONE',  ( -658.8622725493454482, 868.0573669561657653, 15.00000000000000000 ) ) ;
#407 = AXIS2_PLACEMENT_3D ( 'NONE', #1070, #346, #459 ) ;
#408 = LINE ( 'NONE', #164, #404 ) ;
#409 = VECTOR ( 'NONE', #344, 1000.000000000000000 ) ;
#410 = CARTESIAN_POINT ( 'NONE',  ( -658.8622725493455619, 925.0573669561657653, 15.00000000000000000 ) ) ;
#411 = ORIENTED_EDGE ( 'NONE', *, *, #950, .T. ) ;
#412 = EDGE_CURVE ( 'NONE', #632, #1007, #460, .T. ) ;
#413 = ORIENTED_EDGE ( 'NONE', *, *, #397, .T. ) ;
#414 = DIRECTION ( 'NONE',  ( 1.000000000000000000, 0.000000000000000000, 0.000000000000000000 ) ) ;
#415 = CARTESIAN_POINT ( 'NONE',  ( -743.8622725493455619, 866.0573669561658789, 9.000000000000000000 ) ) ;
#416 = DIRECTION ( 'NONE',  ( 0.000000000000000000, 0.000000000000000000, 1.000000000000000000 ) ) ;
#417 = EDGE_LOOP ( 'NONE', ( #716, #296 ) ) ;
#418 = PLANE ( 'NONE',  #1036 ) ;
#419 = DIRECTION ( 'NONE',  ( 0.000000000000000000, 0.000000000000000000, 1.000000000000000000 ) ) ;
#420 = MANIFOLD_SOLID_BREP ( 'Cortar-Extruir9', #113 ) ;
#421 = ORIENTED_EDGE ( 'NONE', *, *, #958, .T. ) ;
#422 = EDGE_LOOP ( 'NONE', ( #107, #1253, #479, #777 ) ) ;
#423 = CARTESIAN_POINT ( 'NONE',  ( -743.8622725493455619, 866.0573669561658789, 0.000000000000000000 ) ) ;
#424 = EDGE_CURVE ( 'NONE', #527, #739, #1263, .T. ) ;
#425 = AXIS2_PLACEMENT_3D ( 'NONE', #1118, #892, #1212 ) ;
#426 = DIRECTION ( 'NONE',  ( -0.000000000000000000, -0.000000000000000000, 1.000000000000000000 ) ) ;
#427 = AXIS2_PLACEMENT_3D ( 'NONE', #712, #182, #1196 ) ;
#428 = AXIS2_PLACEMENT_3D ( 'NONE', #850, #1068, #757 ) ;
#429 = ORIENTED_EDGE ( 'NONE', *, *, #1089, .T. ) ;
#430 = AXIS2_PLACEMENT_3D ( 'NONE', #1286, #483, #776 ) ;
#431 = VERTEX_POINT ( 'NONE', #872 ) ;
#432 = CARTESIAN_POINT ( 'NONE',  ( -651.7664392878880335, 896.0846652709840328, -14.14213562373096345 ) ) ;
#433 = DIRECTION ( 'NONE',  ( 1.000000000000000000, 0.000000000000000000, 0.000000000000000000 ) ) ;
#434 = VERTEX_POINT ( 'NONE', #771 ) ;
#435 = FACE_OUTER_BOUND ( 'NONE', #231, .T. ) ;
#436 = ORIENTED_EDGE ( 'NONE', *, *, #1188, .T. ) ;
#437 = DIRECTION ( 'NONE',  ( -0.000000000000000000, -0.000000000000000000, 1.000000000000000000 ) ) ;
#438 = EDGE_CURVE ( 'NONE', #450, #275, #534, .T. ) ;
#439 = ORIENTED_EDGE ( 'NONE', *, *, #1089, .F. ) ;
#440 = FACE_OUTER_BOUND ( 'NONE', #592, .T. ) ;
#441 = EDGE_CURVE ( 'NONE', #317, #545, #970, .T. ) ;
#442 = EDGE_LOOP ( 'NONE', ( #266, #854 ) ) ;
#443 = CARTESIAN_POINT ( 'NONE',  ( -658.8622725493454482, 873.0573669561658789, 15.00000000000000000 ) ) ;
#444 = DIRECTION ( 'NONE',  ( -0.000000000000000000, -0.000000000000000000, 1.000000000000000000 ) ) ;
#445 = AXIS2_PLACEMENT_3D ( 'NONE', #1155, #636, #1133 ) ;
#446 = ORIENTED_EDGE ( 'NONE', *, *, #306, .F. ) ;
#447 = AXIS2_PLACEMENT_3D ( 'NONE', #1278, #390, #501 ) ;
#448 = DIRECTION ( 'NONE',  ( 1.000000000000000000, 0.000000000000000000, 0.000000000000000000 ) ) ;
#449 = CIRCLE ( 'NONE', #428, 4.000000000000003553 ) ;
#450 = VERTEX_POINT ( 'NONE', #1085 ) ;
#451 = VECTOR ( 'NONE', #1297, 1000.000000000000000 ) ;
#452 = ADVANCED_FACE ( 'NONE', ( #127, #547 ), #985, .T. ) ;
#453 = CYLINDRICAL_SURFACE ( 'NONE', #838, 2.000000000000001776 ) ;
#454 = FACE_OUTER_BOUND ( 'NONE', #762, .T. ) ;
#455 = ORIENTED_EDGE ( 'NONE', *, *, #374, .F. ) ;
#456 = DIRECTION ( 'NONE',  ( -2.362176648138634445E-15, 1.000000000000000000, 0.000000000000000000 ) ) ;
#457 = VERTEX_POINT ( 'NONE', #761 ) ;
#458 = EDGE_CURVE ( 'NONE', #608, #1331, #1034, .T. ) ;
#459 = DIRECTION ( 'NONE',  ( 1.000000000000000000, 0.000000000000000000, 0.000000000000000000 ) ) ;
#460 = LINE ( 'NONE', #49, #93 ) ;
#461 = DIRECTION ( 'NONE',  ( 1.000000000000000000, 0.000000000000000000, 0.000000000000000000 ) ) ;
#462 = CARTESIAN_POINT ( 'NONE',  ( -646.7664392878880335, 896.0846652709840328, 0.000000000000000000 ) ) ;
#463 = ORIENTED_EDGE ( 'NONE', *, *, #523, .F. ) ;
#464 = DIRECTION ( 'NONE',  ( -0.000000000000000000, 0.000000000000000000, 1.000000000000000000 ) ) ;
#465 = CARTESIAN_POINT ( 'NONE',  ( -649.8622725493455619, 866.0573669561658789, 9.000000000000000000 ) ) ;
#466 = APPROVAL ( #614, 'UNSPECIFIED' ) ;
#467 = VERTEX_POINT ( 'NONE', #132 ) ;
#468 = CARTESIAN_POINT ( 'NONE',  ( -643.8622725493455619, 866.0573669561658789, 15.00000000000000000 ) ) ;
#469 = VECTOR ( 'NONE', #1010, 1000.000000000000000 ) ;
#470 = AXIS2_PLACEMENT_3D ( 'NONE', #1038, #641, #1044 ) ;
#471 = VERTEX_POINT ( 'NONE', #552 ) ;
#472 = VECTOR ( 'NONE', #650, 1000.000000000000000 ) ;
#473 = CIRCLE ( 'NONE', #666, 2.000000000000001776 ) ;
#474 = CARTESIAN_POINT ( 'NONE',  ( -638.8622725493455619, 0.000000000000000000, 15.00000000000000000 ) ) ;
#475 = AXIS2_PLACEMENT_3D ( 'NONE', #328, #505, #448 ) ;
#476 = CARTESIAN_POINT ( 'NONE',  ( -737.8622725493455619, 866.0573669561658789, 9.000000000000000000 ) ) ;
#477 = VERTEX_POINT ( 'NONE', #29 ) ;
#478 = CARTESIAN_POINT ( 'NONE',  ( -748.8622725493455619, 934.0573669561657653, 13.00000000000000000 ) ) ;
#479 = ORIENTED_EDGE ( 'NONE', *, *, #300, .T. ) ;
#480 = CARTESIAN_POINT ( 'NONE',  ( -4.564533279528280318E-12, 925.0573669561692896, 0.000000000000000000 ) ) ;
#481 = CARTESIAN_POINT ( 'NONE',  ( -748.8622725493455619, 932.0573669561657653, 15.00000000000000000 ) ) ;
#482 = CYLINDRICAL_SURFACE ( 'NONE', #425, 4.000000000000003553 ) ;
#483 = DIRECTION ( 'NONE',  ( 0.000000000000000000, 0.000000000000000000, 1.000000000000000000 ) ) ;
#484 = EDGE_LOOP ( 'NONE', ( #912, #455 ) ) ;
#485 = CC_DESIGN_DATE_AND_TIME_ASSIGNMENT ( #65, #74, ( #591 ) ) ;
#486 = FACE_BOUND ( 'NONE', #417, .T. ) ;
#487 = CYLINDRICAL_SURFACE ( 'NONE', #269, 1.997516106995056440 ) ;
#488 = CARTESIAN_POINT ( 'NONE',  ( -645.8622725493455619, 927.0573669561657653, 9.000000000000000000 ) ) ;
#489 = EDGE_LOOP ( 'NONE', ( #538, #1339, #1088, #1208, #864, #439, #218, #564 ) ) ;
#490 = CIRCLE ( 'NONE', #1306, 5.000000000000004441 ) ;
#491 = ADVANCED_FACE ( 'NONE', ( #454 ), #867, .F. ) ;
#492 = CARTESIAN_POINT ( 'NONE',  ( -733.8622725493432881, -1.733512323166008791E-12, 0.000000000000000000 ) ) ;
#493 = AXIS2_PLACEMENT_3D ( 'NONE', #1171, #235, #655 ) ;
#494 = CIRCLE ( 'NONE', #1270, 2.000000000000001776 ) ;
#495 = CARTESIAN_POINT ( 'NONE',  ( -647.8622725493455619, 866.0573669561658789, 9.000000000000000000 ) ) ;
#496 = DIRECTION ( 'NONE',  ( -0.000000000000000000, 0.000000000000000000, 1.000000000000000000 ) ) ;
#497 = APPROVAL_STATUS ( 'not_yet_approved' ) ;
#498 = ORIENTED_EDGE ( 'NONE', *, *, #697, .F. ) ;
#499 = DIRECTION ( 'NONE',  ( 1.000000000000000000, 0.000000000000000000, 0.000000000000000000 ) ) ;
#500 = ADVANCED_FACE ( 'NONE', ( #792 ), #370, .F. ) ;
#501 = DIRECTION ( 'NONE',  ( 1.000000000000000000, 0.000000000000000000, 0.000000000000000000 ) ) ;
#502 = ADVANCED_FACE ( 'NONE', ( #63 ), #809, .F. ) ;
#503 = LINE ( 'NONE', #386, #135 ) ;
#504 = EDGE_LOOP ( 'NONE', ( #177, #52, #574, #1323 ) ) ;
#505 = DIRECTION ( 'NONE',  ( -0.000000000000000000, 0.000000000000000000, 1.000000000000000000 ) ) ;
#506 = CARTESIAN_POINT ( 'NONE',  ( -645.8622725493455619, 866.0573669561658789, 15.00000000000000000 ) ) ;
#507 = DIRECTION ( 'NONE',  ( -0.000000000000000000, -0.000000000000000000, -1.000000000000000000 ) ) ;
#508 = ADVANCED_FACE ( 'NONE', ( #1224 ), #1216, .F. ) ;
#509 = CARTESIAN_POINT ( 'NONE',  ( -653.8622725493455619, 920.0573669561657653, 15.00000000000000000 ) ) ;
#510 = ORIENTED_EDGE ( 'NONE', *, *, #517, .T. ) ;
#511 = DIRECTION ( 'NONE',  ( 1.000000000000000000, 0.000000000000000000, 0.000000000000000000 ) ) ;
#512 = AXIS2_PLACEMENT_3D ( 'NONE', #210, #931, #742 ) ;
#513 = CARTESIAN_POINT ( 'NONE',  ( -641.8622725493455619, 927.0573669561657653, 9.000000000000000000 ) ) ;
#514 = AXIS2_PLACEMENT_3D ( 'NONE', #786, #1195, #511 ) ;
#515 = LINE ( 'NONE', #302, #1326 ) ;
#516 = CIRCLE ( 'NONE', #430, 4.000000000000003553 ) ;
#517 = EDGE_CURVE ( 'NONE', #981, #735, #116, .T. ) ;
#518 = EDGE_LOOP ( 'NONE', ( #1073, #55 ) ) ;
#519 = CARTESIAN_POINT ( 'NONE',  ( -739.8622725493455619, 927.0573669561657653, 9.000000000000000000 ) ) ;
#520 = DIRECTION ( 'NONE',  ( 1.000000000000000000, 0.000000000000000000, 0.000000000000000000 ) ) ;
#521 = EDGE_LOOP ( 'NONE', ( #788, #1053 ) ) ;
#522 = EDGE_LOOP ( 'NONE', ( #463, #827 ) ) ;
#523 = EDGE_CURVE ( 'NONE', #828, #637, #335, .T. ) ;
#524 = DIRECTION ( 'NONE',  ( 0.000000000000000000, -0.000000000000000000, 1.000000000000000000 ) ) ;
#525 = DIRECTION ( 'NONE',  ( 0.000000000000000000, 0.000000000000000000, 1.000000000000000000 ) ) ;
#526 = ORIENTED_EDGE ( 'NONE', *, *, #921, .T. ) ;
#527 = VERTEX_POINT ( 'NONE', #495 ) ;
#528 = ADVANCED_FACE ( 'NONE', ( #263 ), #174, .F. ) ;
#529 = CARTESIAN_POINT ( 'NONE',  ( -645.8622725493455619, 866.0573669561658789, 9.000000000000000000 ) ) ;
#530 = AXIS2_PLACEMENT_3D ( 'NONE', #9, #112, #433 ) ;
#531 = VECTOR ( 'NONE', #122, 1000.000000000000000 ) ;
#532 = CARTESIAN_POINT ( 'NONE',  ( -741.8622725493455619, 866.0573669561658789, 15.00000000000000000 ) ) ;
#533 = CALENDAR_DATE ( 2026, 19, 8 ) ;
#534 = CIRCLE ( 'NONE', #361, 4.000000000000003553 ) ;
#535 = ORIENTED_EDGE ( 'NONE', *, *, #397, .F. ) ;
#536 = CARTESIAN_POINT ( 'NONE',  ( -658.8622725493455619, 920.0573669561657653, 0.000000000000000000 ) ) ;
#537 = CIRCLE ( 'NONE', #559, 4.000000000000003553 ) ;
#538 = ORIENTED_EDGE ( 'NONE', *, *, #958, .F. ) ;
#539 = CARTESIAN_POINT ( 'NONE',  ( -4.564533279528280318E-12, 925.0573669561692896, 15.00000000000000000 ) ) ;
#540 = ADVANCED_FACE ( 'NONE', ( #1105 ), #594, .F. ) ;
#541 = FACE_OUTER_BOUND ( 'NONE', #32, .T. ) ;
#542 = ADVANCED_FACE ( 'NONE', ( #680, #1023 ), #277, .T. ) ;
#543 = VERTEX_POINT ( 'NONE', #476 ) ;
#544 = CARTESIAN_POINT ( 'NONE',  ( -739.8622725493455619, 927.0573669561657653, 0.000000000000000000 ) ) ;
#545 = VERTEX_POINT ( 'NONE', #376 ) ;
#546 = LINE ( 'NONE', #977, #161 ) ;
#547 = FACE_OUTER_BOUND ( 'NONE', #1032, .T. ) ;
#548 = ADVANCED_FACE ( 'NONE', ( #168 ), #162, .F. ) ;
#549 = ORIENTED_EDGE ( 'NONE', *, *, #236, .T. ) ;
#550 = LINE ( 'NONE', #1028, #732 ) ;
#551 = ORIENTED_EDGE ( 'NONE', *, *, #740, .F. ) ;
#552 = CARTESIAN_POINT ( 'NONE',  ( -658.8622725493454482, 868.0573669561657653, 0.000000000000000000 ) ) ;
#553 = LINE ( 'NONE', #973, #946 ) ;
#554 = CIRCLE ( 'NONE', #1012, 5.000000000000004441 ) ;
#555 = CARTESIAN_POINT ( 'NONE',  ( -645.8622725493455619, 866.0573669561658789, 0.000000000000000000 ) ) ;
#556 = EDGE_CURVE ( 'NONE', #322, #1109, #908, .T. ) ;
#557 = AXIS2_PLACEMENT_3D ( 'NONE', #852, #1277, #968 ) ;
#558 = ORIENTED_EDGE ( 'NONE', *, *, #1220, .F. ) ;
#559 = AXIS2_PLACEMENT_3D ( 'NONE', #682, #259, #1074 ) ;
#560 = DIRECTION ( 'NONE',  ( 2.362176648138634445E-15, -1.000000000000000000, 0.000000000000000000 ) ) ;
#561 = CARTESIAN_POINT ( 'NONE',  ( 0.000000000000000000, 934.0573669561657653, 15.00000000000000000 ) ) ;
#562 = VERTEX_POINT ( 'NONE', #271 ) ;
#563 = CARTESIAN_POINT ( 'NONE',  ( -651.7664392878880335, 896.0846652709840328, 15.00000000000000000 ) ) ;
#564 = ORIENTED_EDGE ( 'NONE', *, *, #121, .F. ) ;
#565 = EDGE_CURVE ( 'NONE', #214, #1075, #554, .T. ) ;
#566 = DIRECTION ( 'NONE',  ( -0.000000000000000000, -0.000000000000000000, -1.000000000000000000 ) ) ;
#567 = DIRECTION ( 'NONE',  ( -1.000000000000000000, 0.000000000000000000, 0.000000000000000000 ) ) ;
#568 = ORIENTED_EDGE ( 'NONE', *, *, #102, .T. ) ;
#569 = CARTESIAN_POINT ( 'NONE',  ( -737.8622725493455619, 866.0573669561658789, 9.000000000000000000 ) ) ;
#570 = ORIENTED_EDGE ( 'NONE', *, *, #152, .T. ) ;
#571 = LINE ( 'NONE', #492, #817 ) ;
#572 = ADVANCED_FACE ( 'NONE', ( #1004 ), #487, .F. ) ;
#573 = CARTESIAN_POINT ( 'NONE',  ( -647.8622725493455619, 866.0573669561658789, 15.00000000000000000 ) ) ;
#574 = ORIENTED_EDGE ( 'NONE', *, *, #842, .F. ) ;
#575 = DIRECTION ( 'NONE',  ( 1.000000000000000000, 0.000000000000000000, 0.000000000000000000 ) ) ;
#576 = AXIS2_PLACEMENT_3D ( 'NONE', #377, #264, #793 ) ;
#577 = AXIS2_PLACEMENT_3D ( 'NONE', #618, #1030, #91 ) ;
#578 = VERTEX_POINT ( 'NONE', #423 ) ;
#579 = CIRCLE ( 'NONE', #1330, 5.000000000000004441 ) ;
#580 = AXIS2_PLACEMENT_3D ( 'NONE', #657, #1280, #1293 ) ;
#581 = DIRECTION ( 'NONE',  ( -0.000000000000000000, -0.000000000000000000, -1.000000000000000000 ) ) ;
#582 = DIRECTION ( 'NONE',  ( -1.000000000000000000, 0.000000000000000000, 0.000000000000000000 ) ) ;
#583 = LINE ( 'NONE', #1000, #1033 ) ;
#584 = ADVANCED_FACE ( 'NONE', ( #1049 ), #617, .F. ) ;
#585 = LINE ( 'NONE', #372, #840 ) ;
#586 = ORIENTED_EDGE ( 'NONE', *, *, #812, .T. ) ;
#587 = CARTESIAN_POINT ( 'NONE',  ( -641.7664392878880335, 896.0846652709840328, 0.000000000000000000 ) ) ;
#588 = CARTESIAN_POINT ( 'NONE',  ( -728.8622725493454482, 873.0573669561657653, 0.000000000000000000 ) ) ;
#589 = DIRECTION ( 'NONE',  ( 1.000000000000000000, 0.000000000000000000, 0.000000000000000000 ) ) ;
#590 = CALENDAR_DATE ( 2026, 19, 8 ) ;
#591 = PRODUCT_DEFINITION ( 'UNKNOWN', '', #885, #673 ) ;
#592 = EDGE_LOOP ( 'NONE', ( #700, #706, #309, #1148 ) ) ;
#593 = CARTESIAN_POINT ( 'NONE',  ( -649.8622725493455619, 927.0573669561657653, 9.000000000000000000 ) ) ;
#594 = CYLINDRICAL_SURFACE ( 'NONE', #926, 5.000000000000004441 ) ;
#595 = DIRECTION ( 'NONE',  ( 1.000000000000000000, 0.000000000000000000, 0.000000000000000000 ) ) ;
#596 = ORIENTED_EDGE ( 'NONE', *, *, #253, .F. ) ;
#597 = ADVANCED_FACE ( 'NONE', ( #318 ), #941, .F. ) ;
#598 = CIRCLE ( 'NONE', #445, 4.000000000000003553 ) ;
#599 = EDGE_LOOP ( 'NONE', ( #81, #665, #629, #233 ) ) ;
#600 = DIRECTION ( 'NONE',  ( -0.000000000000000000, 0.000000000000000000, 1.000000000000000000 ) ) ;
#601 = AXIS2_PLACEMENT_3D ( 'NONE', #703, #998, #57 ) ;
#602 = ADVANCED_FACE ( 'NONE', ( #1335 ), #630, .F. ) ;
#603 = CIRCLE ( 'NONE', #407, 5.000000000000004441 ) ;
#604 = DIRECTION ( 'NONE',  ( -0.000000000000000000, 0.000000000000000000, 1.000000000000000000 ) ) ;
#605 = AXIS2_PLACEMENT_3D ( 'NONE', #1318, #893, #917 ) ;
#606 = LINE ( 'NONE', #1112, #727 ) ;
#607 = DIRECTION ( 'NONE',  ( 0.000000000000000000, 0.000000000000000000, 1.000000000000000000 ) ) ;
#608 = VERTEX_POINT ( 'NONE', #513 ) ;
#609 = ORIENTED_EDGE ( 'NONE', *, *, #95, .T. ) ;
#610 = LINE ( 'NONE', #1021, #75 ) ;
#611 = EDGE_CURVE ( 'NONE', #18, #1333, #835, .T. ) ;
#612 = DIRECTION ( 'NONE',  ( 1.000000000000000000, 0.000000000000000000, 0.000000000000000000 ) ) ;
#613 = LINE ( 'NONE', #1050, #750 ) ;
#614 = APPROVAL_STATUS ( 'not_yet_approved' ) ;
#615 = VERTEX_POINT ( 'NONE', #1145 ) ;
#616 = LINE ( 'NONE', #89, #385 ) ;
#617 = CYLINDRICAL_SURFACE ( 'NONE', #512, 5.000000000000004441 ) ;
#618 = CARTESIAN_POINT ( 'NONE',  ( -741.8622725493455619, 927.0573669561657653, 9.000000000000000000 ) ) ;
#619 = CALENDAR_DATE ( 2026, 19, 8 ) ;
#620 = VERTEX_POINT ( 'NONE', #415 ) ;
#621 = DIRECTION ( 'NONE',  ( 1.000000000000000000, 2.362176648138634445E-15, -0.000000000000000000 ) ) ;
#622 = VECTOR ( 'NONE', #332, 1000.000000000000000 ) ;
#623 = CARTESIAN_POINT ( 'NONE',  ( -643.8622725493455619, 866.0573669561658789, 0.000000000000000000 ) ) ;
#624 = AXIS2_PLACEMENT_3D ( 'NONE', #906, #1104, #997 ) ;
#625 = DIRECTION ( 'NONE',  ( -1.000000000000000000, 0.000000000000000000, -0.000000000000000000 ) ) ;
#626 = LOCAL_TIME ( 10, 15, 14.00000000000000000, #320 ) ;
#627 = CC_DESIGN_PERSON_AND_ORGANIZATION_ASSIGNMENT ( #1264, #733, ( #885 ) ) ;
#628 = VERTEX_POINT ( 'NONE', #111 ) ;
#629 = ORIENTED_EDGE ( 'NONE', *, *, #1083, .T. ) ;
#630 = PLANE ( 'NONE',  #183 ) ;
#631 = FACE_OUTER_BOUND ( 'NONE', #747, .T. ) ;
#632 = VERTEX_POINT ( 'NONE', #519 ) ;
#633 = EDGE_CURVE ( 'NONE', #477, #471, #1325, .T. ) ;
#634 = ORIENTED_EDGE ( 'NONE', *, *, #1299, .F. ) ;
#635 = CARTESIAN_POINT ( 'NONE',  ( -741.8622725493455619, 866.0573669561658789, 0.000000000000000000 ) ) ;
#636 = DIRECTION ( 'NONE',  ( 0.000000000000000000, 0.000000000000000000, 1.000000000000000000 ) ) ;
#637 = VERTEX_POINT ( 'NONE', #105 ) ;
#638 = ORIENTED_EDGE ( 'NONE', *, *, #154, .F. ) ;
#639 = EDGE_CURVE ( 'NONE', #735, #1189, #1242, .T. ) ;
#640 = ADVANCED_FACE ( 'NONE', ( #948, #1238 ), #1233, .T. ) ;
#641 = DIRECTION ( 'NONE',  ( -0.000000000000000000, 0.000000000000000000, 1.000000000000000000 ) ) ;
#642 = AXIS2_PLACEMENT_3D ( 'NONE', #1009, #291, #582 ) ;
#643 = LINE ( 'NONE', #1057, #531 ) ;
#644 = APPROVAL_STATUS ( 'not_yet_approved' ) ;
#645 = VECTOR ( 'NONE', #560, 1000.000000000000000 ) ;
#646 = AXIS2_PLACEMENT_3D ( 'NONE', #974, #1187, #244 ) ;
#647 = ORIENTED_EDGE ( 'NONE', *, *, #1211, .F. ) ;
#648 = CARTESIAN_POINT ( 'NONE',  ( -643.8647564423505401, 927.0573669561657653, 15.00000000000000000 ) ) ;
#649 = ORIENTED_EDGE ( 'NONE', *, *, #565, .F. ) ;
#650 = DIRECTION ( 'NONE',  ( -0.000000000000000000, -0.000000000000000000, -1.000000000000000000 ) ) ;
#651 = DIRECTION ( 'NONE',  ( 0.000000000000000000, 0.000000000000000000, 1.000000000000000000 ) ) ;
#652 = EDGE_LOOP ( 'NONE', ( #345, #701, #1240, #1319 ) ) ;
#653 = DIRECTION ( 'NONE',  ( -0.000000000000000000, 0.000000000000000000, 1.000000000000000000 ) ) ;
#654 = ORIENTED_EDGE ( 'NONE', *, *, #1177, .T. ) ;
#655 = DIRECTION ( 'NONE',  ( 1.000000000000000000, 0.000000000000000000, 0.000000000000000000 ) ) ;
#656 = ORIENTED_EDGE ( 'NONE', *, *, #940, .T. ) ;
#657 = CARTESIAN_POINT ( 'NONE',  ( -741.8622725493455619, 927.0573669561657653, 15.00000000000000000 ) ) ;
#658 = ORIENTED_EDGE ( 'NONE', *, *, #1041, .T. ) ;
#659 = LINE ( 'NONE', #539, #686 ) ;
#660 = LINE ( 'NONE', #780, #1077 ) ;
#661 = CIRCLE ( 'NONE', #1159, 2.000000000000001776 ) ;
#662 = CARTESIAN_POINT ( 'NONE',  ( -645.8622725493455619, 927.0573669561657653, 9.000000000000000000 ) ) ;
#663 = CARTESIAN_POINT ( 'NONE',  ( -641.7664392878880335, 896.0846652709840328, 15.00000000000000000 ) ) ;
#664 = ADVANCED_FACE ( 'NONE', ( #220 ), #311, .F. ) ;
#665 = ORIENTED_EDGE ( 'NONE', *, *, #228, .F. ) ;
#666 = AXIS2_PLACEMENT_3D ( 'NONE', #555, #1179, #157 ) ;
#667 = FACE_OUTER_BOUND ( 'NONE', #504, .T. ) ;
#668 = ORIENTED_EDGE ( 'NONE', *, *, #523, .T. ) ;
#669 = PLANE ( 'NONE',  #97 ) ;
#670 = ORIENTED_EDGE ( 'NONE', *, *, #50, .F. ) ;
#671 = DIRECTION ( 'NONE',  ( 0.000000000000000000, 0.000000000000000000, 1.000000000000000000 ) ) ;
#672 = PLANE ( 'NONE',  #137 ) ;
#673 = DESIGN_CONTEXT ( 'detailed design', #158, 'design' ) ;
#674 = VERTEX_POINT ( 'NONE', #623 ) ;
#675 = CARTESIAN_POINT ( 'NONE',  ( -739.8622725493455619, 866.0573669561658789, 0.000000000000000000 ) ) ;
#676 = ORIENTED_EDGE ( 'NONE', *, *, #347, .F. ) ;
#677 = EDGE_CURVE ( 'NONE', #637, #828, #1269, .T. ) ;
#678 = FACE_BOUND ( 'NONE', #521, .T. ) ;
#679 = ADVANCED_FACE ( 'NONE', ( #84 ), #1137, .F. ) ;
#680 = FACE_BOUND ( 'NONE', #1186, .T. ) ;
#681 = CARTESIAN_POINT ( 'NONE',  ( -744.7664392878880335, 896.0846652709840328, 15.00000000000000000 ) ) ;
#682 = CARTESIAN_POINT ( 'NONE',  ( -741.8622725493455619, 927.0573669561657653, 15.00000000000000000 ) ) ;
#683 = CIRCLE ( 'NONE', #858, 2.000000000000000000 ) ;
#684 = AXIS2_PLACEMENT_3D ( 'NONE', #307, #1132, #1250 ) ;
#685 = EDGE_LOOP ( 'NONE', ( #870, #1279, #1258, #1213 ) ) ;
#686 = VECTOR ( 'NONE', #248, 1000.000000000000000 ) ;
#687 = AXIS2_PLACEMENT_3D ( 'NONE', #288, #709, #414 ) ;
#688 = DIRECTION ( 'NONE',  ( 0.000000000000000000, 0.000000000000000000, 1.000000000000000000 ) ) ;
#689 = CARTESIAN_POINT ( 'NONE',  ( -741.8622725493455619, 866.0573669561658789, 15.00000000000000000 ) ) ;
#690 = EDGE_CURVE ( 'NONE', #1046, #628, #903, .T. ) ;
#691 = DIRECTION ( 'NONE',  ( -0.000000000000000000, -0.000000000000000000, -1.000000000000000000 ) ) ;
#692 = APPROVAL_DATE_TIME ( #1011, #466 ) ;
#693 = EDGE_LOOP ( 'NONE', ( #187, #767, #868, #658 ) ) ;
#694 = ORIENTED_EDGE ( 'NONE', *, *, #517, .F. ) ;
#695 = FACE_BOUND ( 'NONE', #1002, .T. ) ;
#696 = CARTESIAN_POINT ( 'NONE',  ( -645.8622725493455619, 866.0573669561658789, 9.000000000000000000 ) ) ;
#697 = EDGE_CURVE ( 'NONE', #1245, #578, #971, .T. ) ;
#698 = CARTESIAN_POINT ( 'NONE',  ( 0.000000000000000000, 868.0573669561657653, 15.00000000000000000 ) ) ;
#699 = PERSON_AND_ORGANIZATION_ROLE ( 'creator' ) ;
#700 = ORIENTED_EDGE ( 'NONE', *, *, #934, .T. ) ;
#701 = ORIENTED_EDGE ( 'NONE', *, *, #1138, .T. ) ;
#702 = CARTESIAN_POINT ( 'NONE',  ( -646.7664392878880335, 896.0846652709840328, 15.00000000000000000 ) ) ;
#703 = CARTESIAN_POINT ( 'NONE',  ( -741.8622725493455619, 866.0573669561658789, 15.00000000000000000 ) ) ;
#704 = CARTESIAN_POINT ( 'NONE',  ( -645.8622725493455619, 927.0573669561657653, 0.000000000000000000 ) ) ;
#705 = CALENDAR_DATE ( 2026, 19, 8 ) ;
#706 = ORIENTED_EDGE ( 'NONE', *, *, #412, .T. ) ;
#707 = APPROVAL ( #644, 'UNSPECIFIED' ) ;
#708 = ORIENTED_EDGE ( 'NONE', *, *, #412, .F. ) ;
#709 = DIRECTION ( 'NONE',  ( -0.000000000000000000, 0.000000000000000000, 1.000000000000000000 ) ) ;
#710 = CIRCLE ( 'NONE', #290, 2.000000000000001776 ) ;
#711 = CIRCLE ( 'NONE', #337, 2.000000000000000000 ) ;
#712 = CARTESIAN_POINT ( 'NONE',  ( -741.8622725493455619, 866.0573669561658789, 9.000000000000000000 ) ) ;
#713 = LOCAL_TIME ( 10, 15, 14.00000000000000000, #170 ) ;
#714 = LINE ( 'NONE', #284, #333 ) ;
#715 =( NAMED_UNIT ( * ) SI_UNIT ( $, .STERADIAN. ) SOLID_ANGLE_UNIT ( ) );
#716 = ORIENTED_EDGE ( 'NONE', *, *, #690, .F. ) ;
#717 = DIRECTION ( 'NONE',  ( 0.000000000000000000, 0.000000000000000000, 1.000000000000000000 ) ) ;
#718 = DIRECTION ( 'NONE',  ( 0.000000000000000000, 0.000000000000000000, 1.000000000000000000 ) ) ;
#719 = PERSON_AND_ORGANIZATION_ROLE ( 'design_owner' ) ;
#720 = EDGE_LOOP ( 'NONE', ( #16, #20, #156, #82, #254, #387 ) ) ;
#721 = CARTESIAN_POINT ( 'NONE',  ( -641.8622725493455619, 927.0573669561657653, 15.00000000000000000 ) ) ;
#722 = CARTESIAN_POINT ( 'NONE',  ( 0.000000000000000000, 859.0573669561658789, 15.00000000000000000 ) ) ;
#723 = EDGE_CURVE ( 'NONE', #933, #1060, #845, .T. ) ;
#724 = DIRECTION ( 'NONE',  ( 1.000000000000000000, 0.000000000000000000, 0.000000000000000000 ) ) ;
#725 = ORIENTED_EDGE ( 'NONE', *, *, #348, .T. ) ;
#726 = VERTEX_POINT ( 'NONE', #301 ) ;
#727 = VECTOR ( 'NONE', #507, 1000.000000000000000 ) ;
#728 = CIRCLE ( 'NONE', #405, 2.000000000000001776 ) ;
#729 = CARTESIAN_POINT ( 'NONE',  ( -740.7664392878880335, 896.0846652709840328, -14.14213562373096345 ) ) ;
#730 = AXIS2_PLACEMENT_3D ( 'NONE', #12, #1259, #855 ) ;
#731 = DIRECTION ( 'NONE',  ( 1.000000000000000000, 0.000000000000000000, 0.000000000000000000 ) ) ;
#732 = VECTOR ( 'NONE', #965, 1000.000000000000000 ) ;
#733 = PERSON_AND_ORGANIZATION_ROLE ( 'design_supplier' ) ;
#734 = ORIENTED_EDGE ( 'NONE', *, *, #1257, .F. ) ;
#735 = VERTEX_POINT ( 'NONE', #201 ) ;
#736 = DIRECTION ( 'NONE',  ( -0.000000000000000000, -0.000000000000000000, 1.000000000000000000 ) ) ;
#737 = CYLINDRICAL_SURFACE ( 'NONE', #1267, 2.000000000000000000 ) ;
#738 = ADVANCED_FACE ( 'NONE', ( #1341 ), #418, .F. ) ;
#739 = VERTEX_POINT ( 'NONE', #234 ) ;
#740 = EDGE_CURVE ( 'NONE', #986, #317, #1271, .T. ) ;
#741 = ORIENTED_EDGE ( 'NONE', *, *, #1066, .T. ) ;
#742 = DIRECTION ( 'NONE',  ( -1.000000000000000000, 0.000000000000000000, 0.000000000000000000 ) ) ;
#743 = CARTESIAN_POINT ( 'NONE',  ( -743.8622725493455619, 927.0573669561657653, 9.000000000000000000 ) ) ;
#744 = PERSON_AND_ORGANIZATION_ROLE ( 'classification_officer' ) ;
#745 = ORIENTED_EDGE ( 'NONE', *, *, #639, .T. ) ;
#746 = CARTESIAN_POINT ( 'NONE',  ( -737.8622725493455619, 927.0573669561657653, 9.000000000000000000 ) ) ;
#747 = EDGE_LOOP ( 'NONE', ( #1296, #1160, #1221, #939 ) ) ;
#748 = EDGE_CURVE ( 'NONE', #1261, #545, #779, .T. ) ;
#749 = DIRECTION ( 'NONE',  ( 0.000000000000000000, 1.000000000000000000, -0.000000000000000000 ) ) ;
#750 = VECTOR ( 'NONE', #625, 1000.000000000000000 ) ;
#751 = AXIS2_PLACEMENT_3D ( 'NONE', #860, #41, #342 ) ;
#752 = CARTESIAN_POINT ( 'NONE',  ( -741.8622725493455619, 866.0573669561658789, 9.000000000000000000 ) ) ;
#753 = PERSON_AND_ORGANIZATION ( #173, #755 ) ;
#754 = CIRCLE ( 'NONE', #624, 2.000000000000000000 ) ;
#755 = ORGANIZATION ( 'UNSPECIFIED', 'UNSPECIFIED', '' ) ;
#756 = ORIENTED_EDGE ( 'NONE', *, *, #1114, .T. ) ;
#757 = DIRECTION ( 'NONE',  ( 1.000000000000000000, 0.000000000000000000, 0.000000000000000000 ) ) ;
#758 = ORIENTED_EDGE ( 'NONE', *, *, #921, .F. ) ;
#759 = EDGE_CURVE ( 'NONE', #904, #1020, #292, .T. ) ;
#760 = CARTESIAN_POINT ( 'NONE',  ( -733.8622725493432881, -1.733512323166008791E-12, 15.00000000000000000 ) ) ;
#761 = CARTESIAN_POINT ( 'NONE',  ( -638.8622725493455619, 859.0573669561658789, 13.00000000000000000 ) ) ;
#762 = EDGE_LOOP ( 'NONE', ( #953, #1147, #609, #209 ) ) ;
#763 = CYLINDRICAL_SURFACE ( 'NONE', #1249, 2.000000000000001776 ) ;
#764 = ORIENTED_EDGE ( 'NONE', *, *, #347, .T. ) ;
#765 = DIRECTION ( 'NONE',  ( 1.000000000000000000, 0.000000000000000000, -0.000000000000000000 ) ) ;
#766 = DIRECTION ( 'NONE',  ( 0.000000000000000000, 0.000000000000000000, 1.000000000000000000 ) ) ;
#767 = ORIENTED_EDGE ( 'NONE', *, *, #1345, .F. ) ;
#768 = LINE ( 'NONE', #1087, #1080 ) ;
#769 = ORIENTED_EDGE ( 'NONE', *, *, #837, .F. ) ;
#770 = CARTESIAN_POINT ( 'NONE',  ( -638.8622725493455619, 934.0573669561657653, 15.00000000000000000 ) ) ;
#771 = CARTESIAN_POINT ( 'NONE',  ( -733.8622725493455619, 920.0573669561656516, 15.00000000000000000 ) ) ;
#772 = AXIS2_PLACEMENT_3D ( 'NONE', #488, #1204, #273 ) ;
#773 = ADVANCED_FACE ( 'NONE', ( #256 ), #1063, .T. ) ;
#774 = EDGE_LOOP ( 'NONE', ( #551, #1151, #1214, #246, #24, #38 ) ) ;
#775 = VECTOR ( 'NONE', #853, 1000.000000000000000 ) ;
#776 = DIRECTION ( 'NONE',  ( 1.000000000000000000, 0.000000000000000000, 0.000000000000000000 ) ) ;
#777 = ORIENTED_EDGE ( 'NONE', *, *, #286, .T. ) ;
#778 = VECTOR ( 'NONE', #252, 1000.000000000000000 ) ;
#779 = LINE ( 'NONE', #983, #1248 ) ;
#780 = CARTESIAN_POINT ( 'NONE',  ( -728.8622725493454482, 868.0573669561657653, 15.00000000000000000 ) ) ;
#781 = ORIENTED_EDGE ( 'NONE', *, *, #236, .F. ) ;
#782 = DIRECTION ( 'NONE',  ( 0.000000000000000000, 0.000000000000000000, 1.000000000000000000 ) ) ;
#783 = EDGE_CURVE ( 'NONE', #477, #615, #185, .T. ) ;
#784 = VERTEX_POINT ( 'NONE', #1181 ) ;
#785 = EDGE_CURVE ( 'NONE', #434, #562, #341, .T. ) ;
#786 = CARTESIAN_POINT ( 'NONE',  ( -741.8622725493455619, 866.0573669561658789, 9.000000000000000000 ) ) ;
#787 = DIRECTION ( 'NONE',  ( -0.000000000000000000, -0.000000000000000000, 1.000000000000000000 ) ) ;
#788 = ORIENTED_EDGE ( 'NONE', *, *, #1291, .F. ) ;
#789 = CARTESIAN_POINT ( 'NONE',  ( -741.8622725493455619, 927.0573669561657653, 9.000000000000000000 ) ) ;
#790 = ORIENTED_EDGE ( 'NONE', *, *, #1072, .F. ) ;
#791 = DIRECTION ( 'NONE',  ( 1.000000000000000000, 0.000000000000000000, 0.000000000000000000 ) ) ;
#792 = FACE_OUTER_BOUND ( 'NONE', #108, .T. ) ;
#793 = DIRECTION ( 'NONE',  ( 0.000000000000000000, 0.000000000000000000, 1.000000000000000000 ) ) ;
#794 = PLANE ( 'NONE',  #295 ) ;
#795 = AXIS2_PLACEMENT_3D ( 'NONE', #1342, #419, #731 ) ;
#796 = ORIENTED_EDGE ( 'NONE', *, *, #152, .F. ) ;
#797 = AXIS2_PLACEMENT_3D ( 'NONE', #536, #653, #129 ) ;
#798 = LOCAL_TIME ( 10, 15, 14.00000000000000000, #1059 ) ;
#799 = DIRECTION ( 'NONE',  ( 0.000000000000000000, -0.000000000000000000, -1.000000000000000000 ) ) ;
#800 = DIRECTION ( 'NONE',  ( 1.000000000000000000, 0.000000000000000000, 0.000000000000000000 ) ) ;
#801 = ORIENTED_EDGE ( 'NONE', *, *, #1257, .T. ) ;
#802 = EDGE_LOOP ( 'NONE', ( #670, #401, #1274, #498 ) ) ;
#803 = LINE ( 'NONE', #593, #1100 ) ;
#804 = DIRECTION ( 'NONE',  ( -0.000000000000000000, -0.000000000000000000, -1.000000000000000000 ) ) ;
#805 = FACE_OUTER_BOUND ( 'NONE', #774, .T. ) ;
#806 = ADVANCED_FACE ( 'NONE', ( #120 ), #453, .F. ) ;
#807 = ORIENTED_EDGE ( 'NONE', *, *, #740, .T. ) ;
#808 = DIRECTION ( 'NONE',  ( -0.000000000000000000, 0.000000000000000000, 1.000000000000000000 ) ) ;
#809 = CYLINDRICAL_SURFACE ( 'NONE', #1121, 5.000000000000004441 ) ;
#810 = DIRECTION ( 'NONE',  ( 1.000000000000000000, 0.000000000000000000, 0.000000000000000000 ) ) ;
#811 = LINE ( 'NONE', #509, #1185 ) ;
#812 = EDGE_CURVE ( 'NONE', #258, #1007, #494, .T. ) ;
#813 = ORIENTED_EDGE ( 'NONE', *, *, #40, .T. ) ;
#814 = CIRCLE ( 'NONE', #1225, 1.997516106995056440 ) ;
#815 = VECTOR ( 'NONE', #1154, 1000.000000000000000 ) ;
#816 = CYLINDRICAL_SURFACE ( 'NONE', #163, 4.000000000000003553 ) ;
#817 = VECTOR ( 'NONE', #1003, 1000.000000000000000 ) ;
#818 = DIRECTION ( 'NONE',  ( -1.000000000000000000, 0.000000000000000000, 0.000000000000000000 ) ) ;
#819 = FACE_OUTER_BOUND ( 'NONE', #832, .T. ) ;
#820 = CARTESIAN_POINT ( 'NONE',  ( -649.8622725493455619, 927.0573669561657653, 9.000000000000000000 ) ) ;
#821 = ORIENTED_EDGE ( 'NONE', *, *, #1138, .F. ) ;
#822 = CARTESIAN_POINT ( 'NONE',  ( -645.8622725493455619, 866.0573669561658789, 9.000000000000000000 ) ) ;
#823 = ADVANCED_FACE ( 'NONE', ( #857 ), #139, .F. ) ;
#824 = DIRECTION ( 'NONE',  ( -0.000000000000000000, -0.000000000000000000, -1.000000000000000000 ) ) ;
#825 = CARTESIAN_POINT ( 'NONE',  ( -638.8622725493455619, 934.0573669561657653, 0.000000000000000000 ) ) ;
#826 = APPROVAL_DATE_TIME ( #1119, #178 ) ;
#827 = ORIENTED_EDGE ( 'NONE', *, *, #677, .F. ) ;
#828 = VERTEX_POINT ( 'NONE', #956 ) ;
#829 = EDGE_CURVE ( 'NONE', #1333, #467, #659, .T. ) ;
#830 = DIRECTION ( 'NONE',  ( -0.000000000000000000, -0.000000000000000000, 1.000000000000000000 ) ) ;
#831 = LINE ( 'NONE', #1336, #1120 ) ;
#832 = EDGE_LOOP ( 'NONE', ( #1142, #884 ) ) ;
#833 = EDGE_LOOP ( 'NONE', ( #849, #1199, #862, #1157 ) ) ;
#834 = CIRCLE ( 'NONE', #1182, 4.000000000000003553 ) ;
#835 = CIRCLE ( 'NONE', #470, 5.000000000000004441 ) ;
#836 = DIRECTION ( 'NONE',  ( 1.000000000000000000, 0.000000000000000000, -0.000000000000000000 ) ) ;
#837 = EDGE_CURVE ( 'NONE', #562, #214, #546, .T. ) ;
#838 = AXIS2_PLACEMENT_3D ( 'NONE', #1076, #566, #866 ) ;
#839 = CARTESIAN_POINT ( 'NONE',  ( 0.000000000000000000, 861.0573669561658789, 13.00000000000000000 ) ) ;
#840 = VECTOR ( 'NONE', #366, 1000.000000000000000 ) ;
#841 = PERSON_AND_ORGANIZATION ( #173, #755 ) ;
#842 = EDGE_CURVE ( 'NONE', #352, #317, #1170, .T. ) ;
#843 = ORIENTED_EDGE ( 'NONE', *, *, #203, .T. ) ;
#844 = ORIENTED_EDGE ( 'NONE', *, *, #438, .F. ) ;
#845 = LINE ( 'NONE', #1255, #1143 ) ;
#846 = FACE_OUTER_BOUND ( 'NONE', #1304, .T. ) ;
#847 = APPROVAL_ROLE ( '' ) ;
#848 = EDGE_CURVE ( 'NONE', #434, #938, #34, .T. ) ;
#849 = ORIENTED_EDGE ( 'NONE', *, *, #1188, .F. ) ;
#850 = CARTESIAN_POINT ( 'NONE',  ( -740.7664392878880335, 896.0846652709840328, 15.00000000000000000 ) ) ;
#851 = EDGE_LOOP ( 'NONE', ( #570, #568, #813, #596 ) ) ;
#852 = CARTESIAN_POINT ( 'NONE',  ( -741.8622725493455619, 927.0573669561657653, 9.000000000000000000 ) ) ;
#853 = DIRECTION ( 'NONE',  ( -2.362176648138634445E-15, 1.000000000000000000, 0.000000000000000000 ) ) ;
#854 = ORIENTED_EDGE ( 'NONE', *, *, #438, .T. ) ;
#855 = DIRECTION ( 'NONE',  ( 1.000000000000000000, 0.000000000000000000, 0.000000000000000000 ) ) ;
#856 = ORIENTED_EDGE ( 'NONE', *, *, #881, .F. ) ;
#857 = FACE_OUTER_BOUND ( 'NONE', #599, .T. ) ;
#858 = AXIS2_PLACEMENT_3D ( 'NONE', #1243, #1039, #942 ) ;
#859 = VECTOR ( 'NONE', #444, 1000.000000000000000 ) ;
#860 = CARTESIAN_POINT ( 'NONE',  ( -741.8622725493455619, 866.0573669561658789, 9.000000000000000000 ) ) ;
#861 = CIRCLE ( 'NONE', #140, 4.000000000000003553 ) ;
#862 = ORIENTED_EDGE ( 'NONE', *, *, #121, .T. ) ;
#863 = DIRECTION ( 'NONE',  ( 0.000000000000000000, 0.000000000000000000, -1.000000000000000000 ) ) ;
#864 = ORIENTED_EDGE ( 'NONE', *, *, #611, .F. ) ;
#865 = EDGE_CURVE ( 'NONE', #1189, #1153, #603, .T. ) ;
#866 = DIRECTION ( 'NONE',  ( -1.000000000000000000, 0.000000000000000000, 0.000000000000000000 ) ) ;
#867 = CYLINDRICAL_SURFACE ( 'NONE', #447, 5.000000000000004441 ) ;
#868 = ORIENTED_EDGE ( 'NONE', *, *, #611, .T. ) ;
#869 = CARTESIAN_POINT ( 'NONE',  ( -0.000000000000000000, 868.0573669561657653, 0.000000000000000000 ) ) ;
#870 = ORIENTED_EDGE ( 'NONE', *, *, #1177, .F. ) ;
#871 = DIRECTION ( 'NONE',  ( -0.000000000000000000, 0.000000000000000000, 1.000000000000000000 ) ) ;
#872 = CARTESIAN_POINT ( 'NONE',  ( -658.8622725493455619, 925.0573669561657653, 0.000000000000000000 ) ) ;
#873 = CARTESIAN_POINT ( 'NONE',  ( -728.8622725493455619, 925.0573669561656516, 0.000000000000000000 ) ) ;
#874 = DIRECTION ( 'NONE',  ( -0.000000000000000000, 0.000000000000000000, 1.000000000000000000 ) ) ;
#875 = VERTEX_POINT ( 'NONE', #56 ) ;
#876 = DIRECTION ( 'NONE',  ( 0.000000000000000000, -1.000000000000000000, 0.000000000000000000 ) ) ;
#877 = ADVANCED_FACE ( 'NONE', ( #380 ), #160, .F. ) ;
#878 = AXIS2_PLACEMENT_3D ( 'NONE', #696, #1111, #70 ) ;
#879 = VERTEX_POINT ( 'NONE', #1305 ) ;
#880 = CIRCLE ( 'NONE', #118, 2.000000000000001776 ) ;
#881 = EDGE_CURVE ( 'NONE', #986, #322, #754, .T. ) ;
#882 = LINE ( 'NONE', #569, #409 ) ;
#883 = AXIS2_PLACEMENT_3D ( 'NONE', #913, #808, #68 ) ;
#884 = ORIENTED_EDGE ( 'NONE', *, *, #1299, .T. ) ;
#885 = PRODUCT_DEFINITION_FORMATION_WITH_SPECIFIED_SOURCE ( 'ANY', '', #131, .NOT_KNOWN. ) ;
#886 = CARTESIAN_POINT ( 'NONE',  ( 0.000000000000000000, 0.000000000000000000, 15.00000000000000000 ) ) ;
#887 = DIRECTION ( 'NONE',  ( 0.000000000000000000, 0.000000000000000000, 1.000000000000000000 ) ) ;
#888 = EDGE_LOOP ( 'NONE', ( #192, #993, #436, #330, #356, #159, #1140, #1169 ) ) ;
#889 = DIRECTION ( 'NONE',  ( 2.362176648138634445E-15, -1.000000000000000000, 0.000000000000000000 ) ) ;
#890 = EDGE_LOOP ( 'NONE', ( #694, #402 ) ) ;
#891 = CARTESIAN_POINT ( 'NONE',  ( -748.8622725493455619, 861.0573669561658789, 13.00000000000000000 ) ) ;
#892 = DIRECTION ( 'NONE',  ( -0.000000000000000000, -0.000000000000000000, 1.000000000000000000 ) ) ;
#893 = DIRECTION ( 'NONE',  ( -0.000000000000000000, -0.000000000000000000, -1.000000000000000000 ) ) ;
#894 = ORIENTED_EDGE ( 'NONE', *, *, #633, .F. ) ;
#895 = EDGE_CURVE ( 'NONE', #431, #42, #282, .T. ) ;
#896 = FACE_OUTER_BOUND ( 'NONE', #422, .T. ) ;
#897 = CARTESIAN_POINT ( 'NONE',  ( -645.8622725493455619, 927.0573669561657653, 15.00000000000000000 ) ) ;
#898 = CARTESIAN_POINT ( 'NONE',  ( -740.7664392878880335, 896.0846652709840328, 0.000000000000000000 ) ) ;
#899 = FACE_OUTER_BOUND ( 'NONE', #967, .T. ) ;
#900 = CIRCLE ( 'NONE', #313, 2.000000000000001776 ) ;
#901 = CIRCLE ( 'NONE', #1227, 2.000000000000001776 ) ;
#902 = VERTEX_POINT ( 'NONE', #1110 ) ;
#903 = CIRCLE ( 'NONE', #315, 4.000000000000003553 ) ;
#904 = VERTEX_POINT ( 'NONE', #1008 ) ;
#905 = APPROVAL_PERSON_ORGANIZATION ( #1134, #466, #274 ) ;
#906 = CARTESIAN_POINT ( 'NONE',  ( -638.8622725493455619, 932.0573669561657653, 13.00000000000000000 ) ) ;
#907 = EDGE_CURVE ( 'NONE', #1153, #1189, #579, .T. ) ;
#908 = LINE ( 'NONE', #481, #1141 ) ;
#909 = CARTESIAN_POINT ( 'NONE',  ( -741.8622725493455619, 866.0573669561658789, 0.000000000000000000 ) ) ;
#910 = APPROVAL_ROLE ( '' ) ;
#911 = EDGE_LOOP ( 'NONE', ( #179, #734 ) ) ;
#912 = ORIENTED_EDGE ( 'NONE', *, *, #984, .F. ) ;
#913 = CARTESIAN_POINT ( 'NONE',  ( -728.8622725493454482, 873.0573669561657653, 15.00000000000000000 ) ) ;
#914 = CARTESIAN_POINT ( 'NONE',  ( -658.8622725493454482, 873.0573669561658789, 15.00000000000000000 ) ) ;
#915 = EDGE_CURVE ( 'NONE', #1343, #322, #172, .T. ) ;
#916 = FACE_OUTER_BOUND ( 'NONE', #652, .T. ) ;
#917 = DIRECTION ( 'NONE',  ( -1.000000000000000000, 0.000000000000000000, 0.000000000000000000 ) ) ;
#918 = ORIENTED_EDGE ( 'NONE', *, *, #759, .T. ) ;
#919 = CARTESIAN_POINT ( 'NONE',  ( -748.8622725493455619, 859.0573669561658789, 0.000000000000000000 ) ) ;
#920 = DIRECTION ( 'NONE',  ( 1.000000000000000000, 0.000000000000000000, 0.000000000000000000 ) ) ;
#921 = EDGE_CURVE ( 'NONE', #879, #350, #73, .T. ) ;
#922 = DIRECTION ( 'NONE',  ( -0.000000000000000000, 0.000000000000000000, 1.000000000000000000 ) ) ;
#923 =( LENGTH_UNIT ( ) NAMED_UNIT ( * ) SI_UNIT ( .MILLI., .METRE. ) );
#924 = EDGE_CURVE ( 'NONE', #933, #1281, #711, .T. ) ;
#925 = VERTEX_POINT ( 'NONE', #180 ) ;
#926 = AXIS2_PLACEMENT_3D ( 'NONE', #1301, #1127, #612 ) ;
#927 = VERTEX_POINT ( 'NONE', #389 ) ;
#928 = CARTESIAN_POINT ( 'NONE',  ( -641.8622725493455619, 866.0573669561658789, 15.00000000000000000 ) ) ;
#929 = VECTOR ( 'NONE', #229, 1000.000000000000000 ) ;
#930 = LOCAL_TIME ( 10, 15, 14.00000000000000000, #1219 ) ;
#931 = DIRECTION ( 'NONE',  ( -0.000000000000000000, -0.000000000000000000, -1.000000000000000000 ) ) ;
#932 = CARTESIAN_POINT ( 'NONE',  ( -645.8622725493455619, 927.0573669561657653, 9.000000000000000000 ) ) ;
#933 = VERTEX_POINT ( 'NONE', #1209 ) ;
#934 = EDGE_CURVE ( 'NONE', #207, #632, #880, .T. ) ;
#935 = ORIENTED_EDGE ( 'NONE', *, *, #1236, .F. ) ;
#936 = DIRECTION ( 'NONE',  ( -0.000000000000000000, -0.000000000000000000, -1.000000000000000000 ) ) ;
#937 = DIRECTION ( 'NONE',  ( 0.000000000000000000, -1.000000000000000000, 0.000000000000000000 ) ) ;
#938 = VERTEX_POINT ( 'NONE', #1116 ) ;
#939 = ORIENTED_EDGE ( 'NONE', *, *, #279, .F. ) ;
#940 = EDGE_CURVE ( 'NONE', #739, #674, #48, .T. ) ;
#941 = CYLINDRICAL_SURFACE ( 'NONE', #71, 4.000000000000003553 ) ;
#942 = DIRECTION ( 'NONE',  ( 0.000000000000000000, 0.000000000000000000, 1.000000000000000000 ) ) ;
#943 = SHAPE_DEFINITION_REPRESENTATION ( #1128, #144 ) ;
#944 = ORIENTED_EDGE ( 'NONE', *, *, #400, .F. ) ;
#945 = ORIENTED_EDGE ( 'NONE', *, *, #976, .F. ) ;
#946 = VECTOR ( 'NONE', #1285, 1000.000000000000000 ) ;
#947 = VECTOR ( 'NONE', #1289, 1000.000000000000000 ) ;
#948 = FACE_BOUND ( 'NONE', #911, .T. ) ;
#949 = VECTOR ( 'NONE', #77, 1000.000000000000000 ) ;
#950 = EDGE_CURVE ( 'NONE', #1331, #628, #803, .T. ) ;
#951 = LINE ( 'NONE', #308, #1096 ) ;
#952 = AXIS2_PLACEMENT_3D ( 'NONE', #200, #621, #456 ) ;
#953 = ORIENTED_EDGE ( 'NONE', *, *, #639, .F. ) ;
#954 = CARTESIAN_POINT ( 'NONE',  ( -748.8622725493455619, 932.0573669561657653, 15.00000000000000000 ) ) ;
#955 = EDGE_LOOP ( 'NONE', ( #676, #964 ) ) ;
#956 = CARTESIAN_POINT ( 'NONE',  ( -737.8622725493455619, 866.0573669561658789, 15.00000000000000000 ) ) ;
#957 = DIRECTION ( 'NONE',  ( -1.000000000000000000, 0.000000000000000000, -0.000000000000000000 ) ) ;
#958 = EDGE_CURVE ( 'NONE', #562, #902, #5, .T. ) ;
#959 = PERSON_AND_ORGANIZATION_ROLE ( 'creator' ) ;
#960 = EDGE_LOOP ( 'NONE', ( #510, #745, #1043, #1229 ) ) ;
#961 = ORIENTED_EDGE ( 'NONE', *, *, #40, .F. ) ;
#962 = DIRECTION ( 'NONE',  ( 1.000000000000000000, 0.000000000000000000, 0.000000000000000000 ) ) ;
#963 = LINE ( 'NONE', #465, #859 ) ;
#964 = ORIENTED_EDGE ( 'NONE', *, *, #22, .F. ) ;
#965 = DIRECTION ( 'NONE',  ( -0.000000000000000000, -0.000000000000000000, -1.000000000000000000 ) ) ;
#966 = EDGE_CURVE ( 'NONE', #938, #214, #571, .T. ) ;
#967 = EDGE_LOOP ( 'NONE', ( #316, #149, #1130, #638 ) ) ;
#968 = DIRECTION ( 'NONE',  ( 1.000000000000000000, 0.000000000000000000, 0.000000000000000000 ) ) ;
#969 = AXIS2_PLACEMENT_3D ( 'NONE', #932, #1139, #520 ) ;
#970 = LINE ( 'NONE', #1064, #1329 ) ;
#971 = CIRCLE ( 'NONE', #1054, 2.000000000000001776 ) ;
#972 = CIRCLE ( 'NONE', #475, 5.000000000000004441 ) ;
#973 = CARTESIAN_POINT ( 'NONE',  ( -647.8597886563406973, 927.0573669561657653, 15.00000000000000000 ) ) ;
#974 = CARTESIAN_POINT ( 'NONE',  ( -741.8622725493455619, 927.0573669561657653, 9.000000000000000000 ) ) ;
#975 = ORIENTED_EDGE ( 'NONE', *, *, #748, .F. ) ;
#976 = EDGE_CURVE ( 'NONE', #275, #450, #94, .T. ) ;
#977 = CARTESIAN_POINT ( 'NONE',  ( -733.8622725493454482, 873.0573669561657653, 15.00000000000000000 ) ) ;
#978 = FACE_BOUND ( 'NONE', #88, .T. ) ;
#979 = DIRECTION ( 'NONE',  ( 0.000000000000000000, 0.000000000000000000, 1.000000000000000000 ) ) ;
#980 = FACE_OUTER_BOUND ( 'NONE', #1231, .T. ) ;
#981 = VERTEX_POINT ( 'NONE', #587 ) ;
#982 = ADVANCED_FACE ( 'NONE', ( #1215, #276, #62, #695, #989, #678, #486, #896 ), #46, .T. ) ;
#983 = CARTESIAN_POINT ( 'NONE',  ( -748.8622725493455619, 934.0573669561657653, 15.00000000000000000 ) ) ;
#984 = EDGE_CURVE ( 'NONE', #620, #1092, #26, .T. ) ;
#985 = PLANE ( 'NONE',  #751 ) ;
#986 = VERTEX_POINT ( 'NONE', #115 ) ;
#987 = DIRECTION ( 'NONE',  ( -0.000000000000000000, -0.000000000000000000, 1.000000000000000000 ) ) ;
#988 = ORIENTED_EDGE ( 'NONE', *, *, #103, .F. ) ;
#989 = FACE_BOUND ( 'NONE', #522, .T. ) ;
#990 = DIRECTION ( 'NONE',  ( -0.000000000000000000, -0.000000000000000000, -1.000000000000000000 ) ) ;
#991 = ADVANCED_FACE ( 'NONE', ( #435 ), #1168, .F. ) ;
#992 = AXIS2_PLACEMENT_3D ( 'NONE', #1346, #195, #836 ) ;
#993 = ORIENTED_EDGE ( 'NONE', *, *, #565, .T. ) ;
#994 = VECTOR ( 'NONE', #749, 1000.000000000000000 ) ;
#995 = DIRECTION ( 'NONE',  ( -1.000000000000000000, -2.362176648138634445E-15, 0.000000000000000000 ) ) ;
#996 = ORIENTED_EDGE ( 'NONE', *, *, #783, .T. ) ;
#997 = DIRECTION ( 'NONE',  ( 0.000000000000000000, 0.000000000000000000, 1.000000000000000000 ) ) ;
#998 = DIRECTION ( 'NONE',  ( -0.000000000000000000, -0.000000000000000000, -1.000000000000000000 ) ) ;
#999 = ADVANCED_FACE ( 'NONE', ( #440 ), #17, .F. ) ;
#1000 = CARTESIAN_POINT ( 'NONE',  ( -653.8622725493454482, 873.0573669561658789, 15.00000000000000000 ) ) ;
#1001 = CARTESIAN_POINT ( 'NONE',  ( -748.8622725493455619, 861.0573669561658789, 15.00000000000000000 ) ) ;
#1002 = EDGE_LOOP ( 'NONE', ( #647, #935 ) ) ;
#1003 = DIRECTION ( 'NONE',  ( 2.362176648138634445E-15, -1.000000000000000000, 0.000000000000000000 ) ) ;
#1004 = FACE_OUTER_BOUND ( 'NONE', #371, .T. ) ;
#1005 = CARTESIAN_POINT ( 'NONE',  ( -741.8622725493455619, 927.0573669561657653, 0.000000000000000000 ) ) ;
#1006 = FACE_OUTER_BOUND ( 'NONE', #833, .T. ) ;
#1007 = VERTEX_POINT ( 'NONE', #544 ) ;
#1008 = CARTESIAN_POINT ( 'NONE',  ( -649.8622725493455619, 866.0573669561658789, 15.00000000000000000 ) ) ;
#1009 = CARTESIAN_POINT ( 'NONE',  ( -658.8622725493455619, 920.0573669561657653, 15.00000000000000000 ) ) ;
#1010 = DIRECTION ( 'NONE',  ( -0.000000000000000000, -0.000000000000000000, 1.000000000000000000 ) ) ;
#1011 = DATE_AND_TIME ( #619, #1207 ) ;
#1012 = AXIS2_PLACEMENT_3D ( 'NONE', #588, #604, #1017 ) ;
#1013 = ORIENTED_EDGE ( 'NONE', *, *, #1072, .T. ) ;
#1014 = CC_DESIGN_APPROVAL ( #466, ( #591 ) ) ;
#1015 = EDGE_CURVE ( 'NONE', #1197, #76, #449, .T. ) ;
#1016 = DIRECTION ( 'NONE',  ( 1.000000000000000000, 0.000000000000000000, 0.000000000000000000 ) ) ;
#1017 = DIRECTION ( 'NONE',  ( 1.000000000000000000, 0.000000000000000000, 0.000000000000000000 ) ) ;
#1018 = PLANE ( 'NONE',  #576 ) ;
#1019 = ORIENTED_EDGE ( 'NONE', *, *, #697, .T. ) ;
#1020 = VERTEX_POINT ( 'NONE', #928 ) ;
#1021 = CARTESIAN_POINT ( 'NONE',  ( -653.8622725493434018, -1.544538191314918175E-12, 15.00000000000000000 ) ) ;
#1022 = EDGE_CURVE ( 'NONE', #1109, #1261, #1205, .T. ) ;
#1023 = FACE_OUTER_BOUND ( 'NONE', #442, .T. ) ;
#1024 = EDGE_CURVE ( 'NONE', #927, #431, #362, .T. ) ;
#1025 = FACE_BOUND ( 'NONE', #955, .T. ) ;
#1026 = PERSON_AND_ORGANIZATION ( #173, #755 ) ;
#1027 = ORIENTED_EDGE ( 'NONE', *, *, #329, .F. ) ;
#1028 = CARTESIAN_POINT ( 'NONE',  ( -658.8622725493455619, 925.0573669561657653, 15.00000000000000000 ) ) ;
#1029 = DIRECTION ( 'NONE',  ( 1.000000000000000000, 0.000000000000000000, 0.000000000000000000 ) ) ;
#1030 = DIRECTION ( 'NONE',  ( -0.000000000000000000, -0.000000000000000000, 1.000000000000000000 ) ) ;
#1031 = CARTESIAN_POINT ( 'NONE',  ( -638.8622725493455619, 861.0573669561658789, 15.00000000000000000 ) ) ;
#1032 = EDGE_LOOP ( 'NONE', ( #725, #1122 ) ) ;
#1033 = VECTOR ( 'NONE', #1106, 1000.000000000000000 ) ;
#1034 = CIRCLE ( 'NONE', #493, 4.000000000000003553 ) ;
#1035 = CARTESIAN_POINT ( 'NONE',  ( -741.8622725493455619, 927.0573669561657653, 15.00000000000000000 ) ) ;
#1036 = AXIS2_PLACEMENT_3D ( 'NONE', #27, #765, #1262 ) ;
#1037 = AXIS2_PLACEMENT_3D ( 'NONE', #789, #782, #1193 ) ;
#1038 = CARTESIAN_POINT ( 'NONE',  ( -658.8622725493455619, 920.0573669561657653, 15.00000000000000000 ) ) ;
#1039 = DIRECTION ( 'NONE',  ( 1.000000000000000000, -0.000000000000000000, -0.000000000000000000 ) ) ;
#1040 = DATE_TIME_ROLE ( 'classification_date' ) ;
#1041 = EDGE_CURVE ( 'NONE', #1333, #431, #550, .T. ) ;
#1042 = ORIENTED_EDGE ( 'NONE', *, *, #723, .T. ) ;
#1043 = ORIENTED_EDGE ( 'NONE', *, *, #865, .T. ) ;
#1044 = DIRECTION ( 'NONE',  ( 1.000000000000000000, 0.000000000000000000, 0.000000000000000000 ) ) ;
#1045 = CARTESIAN_POINT ( 'NONE',  ( -741.8622725493455619, 866.0573669561658789, 9.000000000000000000 ) ) ;
#1046 = VERTEX_POINT ( 'NONE', #721 ) ;
#1047 = ORIENTED_EDGE ( 'NONE', *, *, #400, .T. ) ;
#1048 = EDGE_CURVE ( 'NONE', #338, #1298, #83, .T. ) ;
#1049 = FACE_OUTER_BOUND ( 'NONE', #1062, .T. ) ;
#1050 = CARTESIAN_POINT ( 'NONE',  ( -748.8622725493455619, 859.0573669561658789, 13.00000000000000000 ) ) ;
#1051 = EDGE_LOOP ( 'NONE', ( #1084, #961 ) ) ;
#1052 = AXIS2_PLACEMENT_3D ( 'NONE', #662, #1081, #36 ) ;
#1053 = ORIENTED_EDGE ( 'NONE', *, *, #759, .F. ) ;
#1054 = AXIS2_PLACEMENT_3D ( 'NONE', #635, #7, #920 ) ;
#1055 = DIRECTION ( 'NONE',  ( 1.000000000000000000, 0.000000000000000000, 0.000000000000000000 ) ) ;
#1056 = APPROVAL_PERSON_ORGANIZATION ( #1026, #178, #910 ) ;
#1057 = CARTESIAN_POINT ( 'NONE',  ( -638.8622725493455619, 861.0573669561658789, 15.00000000000000000 ) ) ;
#1058 = CIRCLE ( 'NONE', #646, 2.000000000000001776 ) ;
#1059 = COORDINATED_UNIVERSAL_TIME_OFFSET ( 3, 0, .BEHIND. ) ;
#1060 = VERTEX_POINT ( 'NONE', #919 ) ;
#1061 = FACE_OUTER_BOUND ( 'NONE', #1167, .T. ) ;
#1062 = EDGE_LOOP ( 'NONE', ( #649, #769, #421, #166 ) ) ;
#1063 = CYLINDRICAL_SURFACE ( 'NONE', #1228, 2.000000000000000000 ) ;
#1064 = CARTESIAN_POINT ( 'NONE',  ( 0.000000000000000000, 934.0573669561657653, 0.000000000000000000 ) ) ;
#1065 = PERSON_AND_ORGANIZATION ( #173, #755 ) ;
#1066 = EDGE_CURVE ( 'NONE', #467, #434, #972, .T. ) ;
#1067 = ORIENTED_EDGE ( 'NONE', *, *, #966, .F. ) ;
#1068 = DIRECTION ( 'NONE',  ( 0.000000000000000000, 0.000000000000000000, 1.000000000000000000 ) ) ;
#1069 = ORIENTED_EDGE ( 'NONE', *, *, #829, .T. ) ;
#1070 = CARTESIAN_POINT ( 'NONE',  ( -646.7664392878880335, 896.0846652709840328, 15.00000000000000000 ) ) ;
#1071 = DIRECTION ( 'NONE',  ( -0.000000000000000000, 0.000000000000000000, 1.000000000000000000 ) ) ;
#1072 = EDGE_CURVE ( 'NONE', #1086, #875, #1272, .T. ) ;
#1073 = ORIENTED_EDGE ( 'NONE', *, *, #228, .T. ) ;
#1074 = DIRECTION ( 'NONE',  ( 1.000000000000000000, 0.000000000000000000, 0.000000000000000000 ) ) ;
#1075 = VERTEX_POINT ( 'NONE', #1125 ) ;
#1076 = CARTESIAN_POINT ( 'NONE',  ( -741.8622725493455619, 927.0573669561657653, 15.00000000000000000 ) ) ;
#1077 = VECTOR ( 'NONE', #349, 1000.000000000000000 ) ;
#1078 = FACE_BOUND ( 'NONE', #890, .T. ) ;
#1079 = AXIS2_PLACEMENT_3D ( 'NONE', #396, #600, #1016 ) ;
#1080 = VECTOR ( 'NONE', #987, 1000.000000000000000 ) ;
#1081 = DIRECTION ( 'NONE',  ( 0.000000000000000000, 0.000000000000000000, 1.000000000000000000 ) ) ;
#1082 = CARTESIAN_POINT ( 'NONE',  ( -745.8622725493455619, 927.0573669561657653, 15.00000000000000000 ) ) ;
#1083 = EDGE_CURVE ( 'NONE', #925, #1312, #1324, .T. ) ;
#1084 = ORIENTED_EDGE ( 'NONE', *, *, #1015, .F. ) ;
#1085 = CARTESIAN_POINT ( 'NONE',  ( -649.8622725493455619, 866.0573669561658789, 9.000000000000000000 ) ) ;
#1086 = VERTEX_POINT ( 'NONE', #189 ) ;
#1087 = CARTESIAN_POINT ( 'NONE',  ( -745.8622725493455619, 866.0573669561658789, 9.000000000000000000 ) ) ;
#1088 = ORIENTED_EDGE ( 'NONE', *, *, #1066, .F. ) ;
#1089 = EDGE_CURVE ( 'NONE', #615, #18, #610, .T. ) ;
#1090 = CARTESIAN_POINT ( 'NONE',  ( -740.7664392878880335, 896.0846652709840328, 0.000000000000000000 ) ) ;
#1091 = FACE_BOUND ( 'NONE', #114, .T. ) ;
#1092 = VERTEX_POINT ( 'NONE', #1131 ) ;
#1093 = DIRECTION ( 'NONE',  ( -1.000000000000000000, 0.000000000000000000, 0.000000000000000000 ) ) ;
#1094 = ORIENTED_EDGE ( 'NONE', *, *, #253, .T. ) ;
#1095 = CARTESIAN_POINT ( 'NONE',  ( -728.8622725493455619, 920.0573669561656516, 15.00000000000000000 ) ) ;
#1096 = VECTOR ( 'NONE', #937, 1000.000000000000000 ) ;
#1097 = CARTESIAN_POINT ( 'NONE',  ( -645.8622725493455619, 927.0573669561657653, 9.000000000000000000 ) ) ;
#1098 = AXIS2_PLACEMENT_3D ( 'NONE', #689, #887, #283 ) ;
#1099 = LINE ( 'NONE', #1322, #245 ) ;
#1100 = VECTOR ( 'NONE', #153, 1000.000000000000000 ) ;
#1101 = FACE_OUTER_BOUND ( 'NONE', #394, .T. ) ;
#1102 = CIRCLE ( 'NONE', #1332, 5.000000000000004441 ) ;
#1103 = ORIENTED_EDGE ( 'NONE', *, *, #1152, .T. ) ;
#1104 = DIRECTION ( 'NONE',  ( 1.000000000000000000, -0.000000000000000000, -0.000000000000000000 ) ) ;
#1105 = FACE_OUTER_BOUND ( 'NONE', #960, .T. ) ;
#1106 = DIRECTION ( 'NONE',  ( -0.000000000000000000, -0.000000000000000000, -1.000000000000000000 ) ) ;
#1107 = ADVANCED_FACE ( 'NONE', ( #193 ), #816, .F. ) ;
#1108 = PERSON_AND_ORGANIZATION ( #173, #755 ) ;
#1109 = VERTEX_POINT ( 'NONE', #954 ) ;
#1110 = CARTESIAN_POINT ( 'NONE',  ( -728.8622725493454482, 868.0573669561657653, 15.00000000000000000 ) ) ;
#1111 = DIRECTION ( 'NONE',  ( 0.000000000000000000, 0.000000000000000000, 1.000000000000000000 ) ) ;
#1112 = CARTESIAN_POINT ( 'NONE',  ( -638.8622725493455619, 859.0573669561658789, 15.00000000000000000 ) ) ;
#1113 = DIRECTION ( 'NONE',  ( 0.000000000000000000, 0.000000000000000000, 1.000000000000000000 ) ) ;
#1114 = EDGE_CURVE ( 'NONE', #151, #875, #224, .T. ) ;
#1115 = ORIENTED_EDGE ( 'NONE', *, *, #865, .F. ) ;
#1116 = CARTESIAN_POINT ( 'NONE',  ( -733.8622725493455619, 920.0573669561656516, 0.000000000000000000 ) ) ;
#1117 = CARTESIAN_POINT ( 'NONE',  ( -646.7664392878880335, 896.0846652709840328, 0.000000000000000000 ) ) ;
#1118 = CARTESIAN_POINT ( 'NONE',  ( -741.8622725493455619, 866.0573669561658789, 9.000000000000000000 ) ) ;
#1119 = DATE_AND_TIME ( #705, #930 ) ;
#1120 = VECTOR ( 'NONE', #221, 1000.000000000000000 ) ;
#1121 = AXIS2_PLACEMENT_3D ( 'NONE', #914, #804, #79 ) ;
#1122 = ORIENTED_EDGE ( 'NONE', *, *, #212, .T. ) ;
#1123 = EDGE_CURVE ( 'NONE', #545, #1060, #616, .T. ) ;
#1124 = AXIS2_PLACEMENT_3D ( 'NONE', #443, #871, #1055 ) ;
#1125 = CARTESIAN_POINT ( 'NONE',  ( -728.8622725493454482, 868.0573669561657653, 0.000000000000000000 ) ) ;
#1126 = ADVANCED_FACE ( 'NONE', ( #1061 ), #305, .T. ) ;
#1127 = DIRECTION ( 'NONE',  ( -0.000000000000000000, -0.000000000000000000, 1.000000000000000000 ) ) ;
#1128 = PRODUCT_DEFINITION_SHAPE ( 'NONE', 'NONE',  #591 ) ;
#1129 = DIRECTION ( 'NONE',  ( -0.000000000000000000, -0.000000000000000000, 1.000000000000000000 ) ) ;
#1130 = ORIENTED_EDGE ( 'NONE', *, *, #10, .T. ) ;
#1131 = CARTESIAN_POINT ( 'NONE',  ( -739.8622725493455619, 866.0573669561658789, 9.000000000000000000 ) ) ;
#1132 = DIRECTION ( 'NONE',  ( 0.000000000000000000, 0.000000000000000000, 1.000000000000000000 ) ) ;
#1133 = DIRECTION ( 'NONE',  ( 1.000000000000000000, 0.000000000000000000, 0.000000000000000000 ) ) ;
#1134 = PERSON_AND_ORGANIZATION ( #173, #755 ) ;
#1135 = ORIENTED_EDGE ( 'NONE', *, *, #950, .F. ) ;
#1136 = DIRECTION ( 'NONE',  ( 1.000000000000000000, 0.000000000000000000, 0.000000000000000000 ) ) ;
#1137 = CYLINDRICAL_SURFACE ( 'NONE', #138, 2.000000000000001776 ) ;
#1138 = EDGE_CURVE ( 'NONE', #61, #637, #768, .T. ) ;
#1139 = DIRECTION ( 'NONE',  ( 0.000000000000000000, 0.000000000000000000, 1.000000000000000000 ) ) ;
#1140 = ORIENTED_EDGE ( 'NONE', *, *, #895, .T. ) ;
#1141 = VECTOR ( 'NONE', #1203, 1000.000000000000000 ) ;
#1142 = ORIENTED_EDGE ( 'NONE', *, *, #458, .T. ) ;
#1143 = VECTOR ( 'NONE', #324, 1000.000000000000000 ) ;
#1144 = CIRCLE ( 'NONE', #1037, 4.000000000000003553 ) ;
#1145 = CARTESIAN_POINT ( 'NONE',  ( -653.8622725493454482, 873.0573669561658789, 15.00000000000000000 ) ) ;
#1146 = CARTESIAN_POINT ( 'NONE',  ( -736.7664392878880335, 896.0846652709840328, 0.000000000000000000 ) ) ;
#1147 = ORIENTED_EDGE ( 'NONE', *, *, #1252, .T. ) ;
#1148 = ORIENTED_EDGE ( 'NONE', *, *, #1217, .F. ) ;
#1149 = CARTESIAN_POINT ( 'NONE',  ( -645.8622725493455619, 927.0573669561657653, 15.00000000000000000 ) ) ;
#1150 = DIRECTION ( 'NONE',  ( -0.000000000000000000, -0.000000000000000000, -1.000000000000000000 ) ) ;
#1151 = ORIENTED_EDGE ( 'NONE', *, *, #881, .T. ) ;
#1152 = EDGE_CURVE ( 'NONE', #543, #828, #882, .T. ) ;
#1153 = VERTEX_POINT ( 'NONE', #663 ) ;
#1154 = DIRECTION ( 'NONE',  ( -0.000000000000000000, -0.000000000000000000, 1.000000000000000000 ) ) ;
#1155 = CARTESIAN_POINT ( 'NONE',  ( -741.8622725493455619, 927.0573669561657653, 9.000000000000000000 ) ) ;
#1156 = APPLICATION_CONTEXT ( 'configuration controlled 3d designs of mechanical parts and assemblies' ) ;
#1157 = ORIENTED_EDGE ( 'NONE', *, *, #633, .T. ) ;
#1158 = DIRECTION ( 'NONE',  ( -2.362176648138634445E-15, 1.000000000000000000, 0.000000000000000000 ) ) ;
#1159 = AXIS2_PLACEMENT_3D ( 'NONE', #1005, #922, #1327 ) ;
#1160 = ORIENTED_EDGE ( 'NONE', *, *, #50, .T. ) ;
#1161 = ADVANCED_FACE ( 'NONE', ( #358 ), #763, .F. ) ;
#1162 = AXIS2_PLACEMENT_3D ( 'NONE', #1095, #581, #1320 ) ;
#1163 = ADVANCED_FACE ( 'NONE', ( #1101 ), #43, .T. ) ;
#1164 = CARTESIAN_POINT ( 'NONE',  ( -733.8622725493455619, 920.0573669561656516, 15.00000000000000000 ) ) ;
#1165 = AXIS2_PLACEMENT_3D ( 'NONE', #150, #995, #889 ) ;
#1166 = LINE ( 'NONE', #354, #947 ) ;
#1167 = EDGE_LOOP ( 'NONE', ( #145, #1067, #1287, #11 ) ) ;
#1168 = CYLINDRICAL_SURFACE ( 'NONE', #730, 4.000000000000003553 ) ;
#1169 = ORIENTED_EDGE ( 'NONE', *, *, #8, .T. ) ;
#1170 = LINE ( 'NONE', #331, #994 ) ;
#1171 = CARTESIAN_POINT ( 'NONE',  ( -645.8622725493455619, 927.0573669561657653, 9.000000000000000000 ) ) ;
#1172 = DIRECTION ( 'NONE',  ( 1.000000000000000000, 0.000000000000000000, 0.000000000000000000 ) ) ;
#1173 = LINE ( 'NONE', #468, #451 ) ;
#1174 = ORIENTED_EDGE ( 'NONE', *, *, #194, .F. ) ;
#1175 = CARTESIAN_POINT ( 'NONE',  ( -645.8622725493455619, 866.0573669561658789, 15.00000000000000000 ) ) ;
#1176 = FACE_OUTER_BOUND ( 'NONE', #310, .T. ) ;
#1177 = EDGE_CURVE ( 'NONE', #1292, #674, #1173, .T. ) ;
#1178 = ORIENTED_EDGE ( 'NONE', *, *, #357, .F. ) ;
#1179 = DIRECTION ( 'NONE',  ( -0.000000000000000000, 0.000000000000000000, 1.000000000000000000 ) ) ;
#1180 = ORIENTED_EDGE ( 'NONE', *, *, #146, .T. ) ;
#1181 = CARTESIAN_POINT ( 'NONE',  ( -647.8597886563406973, 927.0573669561657653, 9.000000000000000000 ) ) ;
#1182 = AXIS2_PLACEMENT_3D ( 'NONE', #1045, #1239, #202 ) ;
#1183 = DIRECTION ( 'NONE',  ( 1.000000000000000000, 0.000000000000000000, 0.000000000000000000 ) ) ;
#1184 = AXIS2_PLACEMENT_3D ( 'NONE', #232, #1334, #863 ) ;
#1185 = VECTOR ( 'NONE', #303, 1000.000000000000000 ) ;
#1186 = EDGE_LOOP ( 'NONE', ( #96, #1027 ) ) ;
#1187 = DIRECTION ( 'NONE',  ( 0.000000000000000000, 0.000000000000000000, 1.000000000000000000 ) ) ;
#1188 = EDGE_CURVE ( 'NONE', #1075, #471, #238, .T. ) ;
#1189 = VERTEX_POINT ( 'NONE', #563 ) ;
#1190 = DIRECTION ( 'NONE',  ( 0.000000000000000000, 0.000000000000000000, 1.000000000000000000 ) ) ;
#1191 = CARTESIAN_POINT ( 'NONE',  ( 0.000000000000000000, 0.000000000000000000, 0.000000000000000000 ) ) ;
#1192 = ORIENTED_EDGE ( 'NONE', *, *, #1345, .T. ) ;
#1193 = DIRECTION ( 'NONE',  ( 1.000000000000000000, 0.000000000000000000, 0.000000000000000000 ) ) ;
#1194 = ORIENTED_EDGE ( 'NONE', *, *, #556, .F. ) ;
#1195 = DIRECTION ( 'NONE',  ( 0.000000000000000000, 0.000000000000000000, 1.000000000000000000 ) ) ;
#1196 = DIRECTION ( 'NONE',  ( 1.000000000000000000, 0.000000000000000000, 0.000000000000000000 ) ) ;
#1197 = VERTEX_POINT ( 'NONE', #165 ) ;
#1198 = CARTESIAN_POINT ( 'NONE',  ( -658.8622725493454482, 873.0573669561658789, 0.000000000000000000 ) ) ;
#1199 = ORIENTED_EDGE ( 'NONE', *, *, #367, .F. ) ;
#1200 = CARTESIAN_POINT ( 'NONE',  ( -645.8622725493455619, 866.0573669561658789, 9.000000000000000000 ) ) ;
#1201 = EDGE_CURVE ( 'NONE', #674, #739, #473, .T. ) ;
#1202 = CIRCLE ( 'NONE', #69, 4.000000000000003553 ) ;
#1203 = DIRECTION ( 'NONE',  ( -1.000000000000000000, 0.000000000000000000, 0.000000000000000000 ) ) ;
#1204 = DIRECTION ( 'NONE',  ( 0.000000000000000000, 0.000000000000000000, 1.000000000000000000 ) ) ;
#1205 = CIRCLE ( 'NONE', #1184, 2.000000000000000000 ) ;
#1206 = DIRECTION ( 'NONE',  ( 0.000000000000000000, 1.000000000000000000, 0.000000000000000000 ) ) ;
#1207 = LOCAL_TIME ( 10, 15, 14.00000000000000000, #198 ) ;
#1208 = ORIENTED_EDGE ( 'NONE', *, *, #829, .F. ) ;
#1209 = CARTESIAN_POINT ( 'NONE',  ( -748.8622725493455619, 859.0573669561658789, 13.00000000000000000 ) ) ;
#1210 = DIRECTION ( 'NONE',  ( 0.000000000000000000, -0.000000000000000000, -1.000000000000000000 ) ) ;
#1211 = EDGE_CURVE ( 'NONE', #1312, #1298, #186, .T. ) ;
#1212 = DIRECTION ( 'NONE',  ( 1.000000000000000000, 0.000000000000000000, 0.000000000000000000 ) ) ;
#1213 = ORIENTED_EDGE ( 'NONE', *, *, #1201, .F. ) ;
#1214 = ORIENTED_EDGE ( 'NONE', *, *, #915, .F. ) ;
#1215 = FACE_BOUND ( 'NONE', #1051, .T. ) ;
#1216 = CYLINDRICAL_SURFACE ( 'NONE', #642, 5.000000000000004441 ) ;
#1217 = EDGE_CURVE ( 'NONE', #207, #258, #585, .T. ) ;
#1218 = CARTESIAN_POINT ( 'NONE',  ( -745.8622725493455619, 866.0573669561658789, 9.000000000000000000 ) ) ;
#1219 = COORDINATED_UNIVERSAL_TIME_OFFSET ( 3, 0, .BEHIND. ) ;
#1220 = EDGE_CURVE ( 'NONE', #338, #925, #1144, .T. ) ;
#1221 = ORIENTED_EDGE ( 'NONE', *, *, #109, .F. ) ;
#1222 = ORIENTED_EDGE ( 'NONE', *, *, #1236, .T. ) ;
#1223 = DIRECTION ( 'NONE',  ( 0.000000000000000000, 0.000000000000000000, -1.000000000000000000 ) ) ;
#1224 = FACE_OUTER_BOUND ( 'NONE', #693, .T. ) ;
#1225 = AXIS2_PLACEMENT_3D ( 'NONE', #704, #58, #595 ) ;
#1226 = PLANE ( 'NONE',  #772 ) ;
#1227 = AXIS2_PLACEMENT_3D ( 'NONE', #319, #718, #724 ) ;
#1228 = AXIS2_PLACEMENT_3D ( 'NONE', #126, #147, #1282 ) ;
#1229 = ORIENTED_EDGE ( 'NONE', *, *, #95, .F. ) ;
#1230 = EDGE_CURVE ( 'NONE', #471, #726, #1102, .T. ) ;
#1231 = EDGE_LOOP ( 'NONE', ( #223, #360, #1069, #251 ) ) ;
#1232 = DIRECTION ( 'NONE',  ( -0.000000000000000000, -0.000000000000000000, 1.000000000000000000 ) ) ;
#1233 = PLANE ( 'NONE',  #992 ) ;
#1234 = CARTESIAN_POINT ( 'NONE',  ( -645.8622725493455619, 866.0573669561658789, 9.000000000000000000 ) ) ;
#1235 = EDGE_LOOP ( 'NONE', ( #1294, #843, #1042, #323 ) ) ;
#1236 = EDGE_CURVE ( 'NONE', #1298, #1312, #537, .T. ) ;
#1237 = DIRECTION ( 'NONE',  ( 0.000000000000000000, -1.000000000000000000, 0.000000000000000000 ) ) ;
#1238 = FACE_OUTER_BOUND ( 'NONE', #518, .T. ) ;
#1239 = DIRECTION ( 'NONE',  ( 0.000000000000000000, 0.000000000000000000, 1.000000000000000000 ) ) ;
#1240 = ORIENTED_EDGE ( 'NONE', *, *, #677, .T. ) ;
#1241 = EDGE_LOOP ( 'NONE', ( #535, #945, #549, #239 ) ) ;
#1242 = LINE ( 'NONE', #432, #815 ) ;
#1243 = CARTESIAN_POINT ( 'NONE',  ( -638.8622725493455619, 861.0573669561658789, 13.00000000000000000 ) ) ;
#1244 = APPROVAL_DATE_TIME ( #1337, #707 ) ;
#1245 = VERTEX_POINT ( 'NONE', #675 ) ;
#1246 = AXIS2_PLACEMENT_3D ( 'NONE', #1117, #1210, #1321 ) ;
#1247 = ORIENTED_EDGE ( 'NONE', *, *, #348, .F. ) ;
#1248 = VECTOR ( 'NONE', #353, 1000.000000000000000 ) ;
#1249 = AXIS2_PLACEMENT_3D ( 'NONE', #134, #351, #1093 ) ;
#1250 = DIRECTION ( 'NONE',  ( 1.000000000000000000, 0.000000000000000000, 0.000000000000000000 ) ) ;
#1251 = DIRECTION ( 'NONE',  ( 1.000000000000000000, 0.000000000000000000, 0.000000000000000000 ) ) ;
#1252 = EDGE_CURVE ( 'NONE', #735, #981, #1311, .T. ) ;
#1253 = ORIENTED_EDGE ( 'NONE', *, *, #556, .T. ) ;
#1254 = EDGE_LOOP ( 'NONE', ( #821, #1247, #1103, #668 ) ) ;
#1255 = CARTESIAN_POINT ( 'NONE',  ( -748.8622725493455619, 859.0573669561658789, 15.00000000000000000 ) ) ;
#1256 = CYLINDRICAL_SURFACE ( 'NONE', #267, 2.000000000000001776 ) ;
#1257 = EDGE_CURVE ( 'NONE', #632, #207, #1058, .T. ) ;
#1258 = ORIENTED_EDGE ( 'NONE', *, *, #424, .T. ) ;
#1259 = DIRECTION ( 'NONE',  ( -0.000000000000000000, -0.000000000000000000, 1.000000000000000000 ) ) ;
#1260 = ADVANCED_FACE ( 'NONE', ( #980 ), #669, .T. ) ;
#1261 = VERTEX_POINT ( 'NONE', #478 ) ;
#1262 = DIRECTION ( 'NONE',  ( -0.000000000000000000, 0.000000000000000000, -1.000000000000000000 ) ) ;
#1263 = LINE ( 'NONE', #573, #622 ) ;
#1264 = PERSON_AND_ORGANIZATION ( #173, #755 ) ;
#1265 = ORIENTED_EDGE ( 'NONE', *, *, #940, .F. ) ;
#1266 = DIRECTION ( 'NONE',  ( -0.000000000000000000, -0.000000000000000000, -1.000000000000000000 ) ) ;
#1267 = AXIS2_PLACEMENT_3D ( 'NONE', #839, #957, #416 ) ;
#1268 = EDGE_LOOP ( 'NONE', ( #796, #758 ) ) ;
#1269 = CIRCLE ( 'NONE', #684, 4.000000000000003553 ) ;
#1270 = AXIS2_PLACEMENT_3D ( 'NONE', #39, #464, #240 ) ;
#1271 = LINE ( 'NONE', #770, #472 ) ;
#1272 = CIRCLE ( 'NONE', #687, 1.997516106995056440 ) ;
#1273 = FACE_BOUND ( 'NONE', #343, .T. ) ;
#1274 = ORIENTED_EDGE ( 'NONE', *, *, #279, .T. ) ;
#1275 = CARTESIAN_POINT ( 'NONE',  ( -645.8622725493455619, 927.0573669561657653, 9.000000000000000000 ) ) ;
#1276 = ORIENTED_EDGE ( 'NONE', *, *, #1048, .T. ) ;
#1277 = DIRECTION ( 'NONE',  ( -0.000000000000000000, -0.000000000000000000, 1.000000000000000000 ) ) ;
#1278 = CARTESIAN_POINT ( 'NONE',  ( -646.7664392878880335, 896.0846652709840328, -14.14213562373096345 ) ) ;
#1279 = ORIENTED_EDGE ( 'NONE', *, *, #329, .T. ) ;
#1280 = DIRECTION ( 'NONE',  ( 0.000000000000000000, 0.000000000000000000, 1.000000000000000000 ) ) ;
#1281 = VERTEX_POINT ( 'NONE', #1001 ) ;
#1282 = DIRECTION ( 'NONE',  ( 0.000000000000000000, 0.000000000000000000, -1.000000000000000000 ) ) ;
#1283 = FACE_BOUND ( 'NONE', #1268, .T. ) ;
#1284 = CC_DESIGN_PERSON_AND_ORGANIZATION_ASSIGNMENT ( #753, #959, ( #885 ) ) ;
#1285 = DIRECTION ( 'NONE',  ( -0.000000000000000000, -0.000000000000000000, -1.000000000000000000 ) ) ;
#1286 = CARTESIAN_POINT ( 'NONE',  ( -645.8622725493455619, 866.0573669561658789, 15.00000000000000000 ) ) ;
#1287 = ORIENTED_EDGE ( 'NONE', *, *, #848, .F. ) ;
#1288 = VECTOR ( 'NONE', #810, 1000.000000000000000 ) ;
#1289 = DIRECTION ( 'NONE',  ( -0.000000000000000000, -0.000000000000000000, 1.000000000000000000 ) ) ;
#1290 = VECTOR ( 'NONE', #268, 1000.000000000000000 ) ;
#1291 = EDGE_CURVE ( 'NONE', #1020, #904, #516, .T. ) ;
#1292 = VERTEX_POINT ( 'NONE', #59 ) ;
#1293 = DIRECTION ( 'NONE',  ( 1.000000000000000000, 0.000000000000000000, 0.000000000000000000 ) ) ;
#1294 = ORIENTED_EDGE ( 'NONE', *, *, #85, .F. ) ;
#1295 = DIRECTION ( 'NONE',  ( -0.000000000000000000, 0.000000000000000000, 1.000000000000000000 ) ) ;
#1296 = ORIENTED_EDGE ( 'NONE', *, *, #984, .T. ) ;
#1297 = DIRECTION ( 'NONE',  ( -0.000000000000000000, -0.000000000000000000, -1.000000000000000000 ) ) ;
#1298 = VERTEX_POINT ( 'NONE', #1082 ) ;
#1299 = EDGE_CURVE ( 'NONE', #1331, #608, #861, .T. ) ;
#1300 = DIRECTION ( 'NONE',  ( -1.000000000000000000, -0.000000000000000000, 0.000000000000000000 ) ) ;
#1301 = CARTESIAN_POINT ( 'NONE',  ( -646.7664392878880335, 896.0846652709840328, -14.14213562373096345 ) ) ;
#1302 = LINE ( 'NONE', #1317, #45 ) ;
#1303 = DIRECTION ( 'NONE',  ( 1.000000000000000000, 0.000000000000000000, 0.000000000000000000 ) ) ;
#1304 = EDGE_LOOP ( 'NONE', ( #558, #1276, #1222, #128 ) ) ;
#1305 = CARTESIAN_POINT ( 'NONE',  ( -744.7664392878880335, 896.0846652709840328, 0.000000000000000000 ) ) ;
#1306 = AXIS2_PLACEMENT_3D ( 'NONE', #237, #133, #1172 ) ;
#1307 = DIRECTION ( 'NONE',  ( -0.000000000000000000, -0.000000000000000000, -1.000000000000000000 ) ) ;
#1308 = CARTESIAN_POINT ( 'NONE',  ( -641.7664392878880335, 896.0846652709840328, -14.14213562373096345 ) ) ;
#1309 = AXIS2_PLACEMENT_3D ( 'NONE', #1090, #799, #499 ) ;
#1310 = CARTESIAN_POINT ( 'NONE',  ( 0.000000000000000000, 868.0573669561657653, 15.00000000000000000 ) ) ;
#1311 = CIRCLE ( 'NONE', #119, 5.000000000000004441 ) ;
#1312 = VERTEX_POINT ( 'NONE', #378 ) ;
#1313 = CC_DESIGN_SECURITY_CLASSIFICATION ( #272, ( #885 ) ) ;
#1314 = DIRECTION ( 'NONE',  ( 0.000000000000000000, 0.000000000000000000, 1.000000000000000000 ) ) ;
#1315 = DIRECTION ( 'NONE',  ( 1.000000000000000000, 0.000000000000000000, 0.000000000000000000 ) ) ;
#1316 = ADVANCED_FACE ( 'NONE', ( #899 ), #92, .F. ) ;
#1317 = CARTESIAN_POINT ( 'NONE',  ( -638.8622725493455619, 934.0573669561657653, 13.00000000000000000 ) ) ;
#1318 = CARTESIAN_POINT ( 'NONE',  ( -645.8622725493455619, 927.0573669561657653, 15.00000000000000000 ) ) ;
#1319 = ORIENTED_EDGE ( 'NONE', *, *, #1152, .F. ) ;
#1320 = DIRECTION ( 'NONE',  ( -1.000000000000000000, 0.000000000000000000, 0.000000000000000000 ) ) ;
#1321 = DIRECTION ( 'NONE',  ( 1.000000000000000000, 0.000000000000000000, 0.000000000000000000 ) ) ;
#1322 = CARTESIAN_POINT ( 'NONE',  ( -728.8622725493455619, 925.0573669561656516, 15.00000000000000000 ) ) ;
#1323 = ORIENTED_EDGE ( 'NONE', *, *, #110, .F. ) ;
#1324 = LINE ( 'NONE', #746, #249 ) ;
#1325 = LINE ( 'NONE', #406, #25 ) ;
#1326 = VECTOR ( 'NONE', #426, 1000.000000000000000 ) ;
#1327 = DIRECTION ( 'NONE',  ( 1.000000000000000000, 0.000000000000000000, 0.000000000000000000 ) ) ;
#1328 = APPLICATION_PROTOCOL_DEFINITION ( 'international standard', 'config_control_design', 1994, #158 ) ;
#1329 = VECTOR ( 'NONE', #567, 1000.000000000000000 ) ;
#1330 = AXIS2_PLACEMENT_3D ( 'NONE', #702, #1314, #262 ) ;
#1331 = VERTEX_POINT ( 'NONE', #820 ) ;
#1332 = AXIS2_PLACEMENT_3D ( 'NONE', #1198, #874, #265 ) ;
#1333 = VERTEX_POINT ( 'NONE', #410 ) ;
#1334 = DIRECTION ( 'NONE',  ( -1.000000000000000000, -0.000000000000000000, 0.000000000000000000 ) ) ;
#1335 = FACE_OUTER_BOUND ( 'NONE', #1235, .T. ) ;
#1336 = CARTESIAN_POINT ( 'NONE',  ( -743.8622725493455619, 866.0573669561658789, 15.00000000000000000 ) ) ;
#1337 = DATE_AND_TIME ( #326, #798 ) ;
#1338 = ORIENTED_EDGE ( 'NONE', *, *, #10, .F. ) ;
#1339 = ORIENTED_EDGE ( 'NONE', *, *, #785, .F. ) ;
#1340 = ADVANCED_FACE ( 'NONE', ( #1006 ), #794, .T. ) ;
#1341 = FACE_OUTER_BOUND ( 'NONE', #720, .T. ) ;
#1342 = CARTESIAN_POINT ( 'NONE',  ( -741.8622725493455619, 866.0573669561658789, 9.000000000000000000 ) ) ;
#1343 = VERTEX_POINT ( 'NONE', #1031 ) ;
#1344 = ORIENTED_EDGE ( 'NONE', *, *, #1022, .F. ) ;
#1345 = EDGE_CURVE ( 'NONE', #18, #927, #811, .T. ) ;
#1346 = CARTESIAN_POINT ( 'NONE',  ( -741.8622725493455619, 927.0573669561657653, 9.000000000000000000 ) ) ;
#1347 = CARTESIAN_POINT ( 'NONE',  ( -745.8622725493455619, 927.0573669561657653, 9.000000000000000000 ) ) ;
ENDSEC;
END-ISO-10303-21;
